<?xml version="1.0" standalone="no"?>
<!DOCTYPE svg PUBLIC "-//W3C//DTD SVG 20010904//EN"
 "http://www.w3.org/TR/2001/REC-SVG-20010904/DTD/svg10.dtd">
<svg version="1.0" xmlns="http://www.w3.org/2000/svg"
 width="301.000000pt" height="301.000000pt" viewBox="0 0 301.000000 301.000000"
 preserveAspectRatio="xMidYMid meet">
<metadata>
Created by potrace 1.11, written by Peter Selinger 2001-2013
</metadata>
<g transform="translate(0.000000,301.000000) scale(0.100000,-0.100000)"
fill="#000000" stroke="none">
<path d="M1352 2495 c-158 -28 -336 -103 -443 -186 -321 -249 -466 -652 -373
-1034 88 -355 350 -626 709 -731 78 -23 110 -27 235 -28 160 -1 200 3 309 34
286 81 532 305 644 586 37 91 39 98 61 219 13 68 14 248 2 310 -46 231 -132
398 -284 548 -142 142 -297 227 -492 271 -95 22 -274 27 -368 11z"/>
</g>
</svg>
