<svg width="163" height="188" viewBox="0 0 163 188" fill="none" xmlns="http://www.w3.org/2000/svg">
<path d="M63.7537 5.86755C63.7537 5.86755 67.2044 19.3253 80.4896 19.3253C93.7748 19.3253 97.2255 5.86755 97.2255 5.86755" stroke="black" stroke-width="11.7324" stroke-linecap="round"/>
<path d="M113.874 12.4426C113.874 12.4426 106.798 24.3987 116.192 33.7928C125.586 43.1868 137.542 36.1108 137.542 36.1108" stroke="black" stroke-width="11.7324" stroke-linecap="round"/>
<path d="M144.155 52.7971C144.155 52.7971 130.697 56.2478 130.697 69.533C130.697 82.8182 144.155 86.269 144.155 86.269" stroke="black" stroke-width="11.7324" stroke-linecap="round"/>
<path d="M63.7537 133.198C63.7537 133.198 67.2044 119.741 80.4896 119.741C93.7748 119.741 97.2255 133.198 97.2255 133.198" stroke="black" stroke-width="11.7324" stroke-linecap="round"/>
<path d="M113.874 126.624C113.874 126.624 106.798 114.667 116.192 105.273C125.586 95.8793 137.542 102.955 137.542 102.955" stroke="black" stroke-width="11.7324" stroke-linecap="round"/>
<path d="M47.1052 12.4426C47.1052 12.4426 54.1813 24.3987 44.7872 33.7928C35.3931 43.1868 23.4371 36.1108 23.4371 36.1108" stroke="black" stroke-width="11.7324" stroke-linecap="round"/>
<path d="M16.824 52.7971C16.824 52.7971 30.2817 56.2478 30.2817 69.533C30.2817 82.8182 16.824 86.269 16.824 86.269" stroke="black" stroke-width="11.7324" stroke-linecap="round"/>
<path d="M47.1052 126.624C47.1052 126.624 54.1813 114.667 44.7872 105.273C35.3931 95.8793 23.4371 102.955 23.4371 102.955" stroke="black" stroke-width="11.7324" stroke-linecap="round"/>
<path d="M63.7537 77.6422C63.7537 77.6422 67.2044 91.1 80.4896 91.1C93.7748 91.1 97.2255 77.6422 97.2255 77.6422" stroke="black" stroke-width="11.7324" stroke-linecap="round"/>
<path d="M65.824 48.6562C65.824 50.3816 65.824 55.2126 65.824 60.0436" stroke="black" stroke-width="13.1127" stroke-linecap="round"/>
<path d="M96.1902 48.6562C96.1902 50.3816 96.1902 55.2126 96.1902 60.0436" stroke="black" stroke-width="13.1127" stroke-linecap="round"/>
<path d="M151.177 187.916C148.799 187.916 146.706 187.397 144.9 186.359C143.109 185.305 141.709 183.845 140.701 181.978C139.707 180.097 139.21 177.929 139.21 175.476C139.21 173.008 139.707 170.84 140.701 168.974C141.709 167.092 143.109 165.625 144.9 164.571C146.706 163.517 148.799 162.99 151.177 162.99C152.742 162.99 154.187 163.224 155.512 163.69C156.836 164.142 157.988 164.789 158.966 165.632C159.96 166.475 160.75 167.476 161.337 168.635C161.924 169.779 162.27 171.051 162.375 172.451H155.941C155.85 171.833 155.677 171.277 155.421 170.78C155.181 170.283 154.864 169.854 154.473 169.493C154.082 169.132 153.615 168.853 153.073 168.658C152.546 168.462 151.944 168.364 151.267 168.364C150.153 168.364 149.197 168.658 148.4 169.245C147.602 169.817 146.985 170.637 146.548 171.706C146.127 172.759 145.916 174.016 145.916 175.476C145.916 176.921 146.127 178.17 146.548 179.224C146.985 180.278 147.602 181.098 148.4 181.685C149.197 182.257 150.153 182.543 151.267 182.543C151.944 182.543 152.546 182.445 153.073 182.249C153.6 182.054 154.052 181.775 154.428 181.414C154.819 181.053 155.135 180.624 155.376 180.127C155.617 179.615 155.79 179.043 155.895 178.411H162.375C162.3 179.796 161.969 181.068 161.382 182.227C160.81 183.371 160.027 184.372 159.034 185.23C158.04 186.088 156.874 186.75 155.534 187.217C154.21 187.683 152.757 187.916 151.177 187.916Z" fill="black"/>
<path d="M130.94 187.375V163.532H137.601V187.375H130.94ZM134.259 160.53C133.16 160.53 132.25 160.198 131.527 159.536C130.805 158.859 130.444 158.008 130.444 156.985C130.444 155.961 130.805 155.118 131.527 154.456C132.25 153.779 133.153 153.44 134.237 153.44C135.335 153.44 136.246 153.779 136.969 154.456C137.691 155.118 138.052 155.961 138.052 156.985C138.052 158.008 137.691 158.859 136.969 159.536C136.246 160.198 135.343 160.53 134.259 160.53Z" fill="black"/>
<path d="M129.646 163.532V168.748H114V163.532H129.646ZM118.109 157.03H124.77V180.014C124.77 180.812 124.928 181.369 125.244 181.685C125.575 182.001 126.192 182.159 127.095 182.159C127.471 182.159 127.915 182.159 128.427 182.159C128.954 182.159 129.36 182.159 129.646 182.159V187.375C129.24 187.375 128.676 187.375 127.953 187.375C127.231 187.375 126.501 187.375 125.763 187.375C123.144 187.375 121.21 186.863 119.961 185.839C118.726 184.816 118.109 183.22 118.109 181.053V157.03Z" fill="black"/>
<path d="M99.7468 187.781C98.1663 187.781 96.759 187.518 95.5247 186.991C94.2905 186.464 93.3196 185.674 92.6122 184.62C91.9047 183.551 91.551 182.227 91.551 180.646C91.551 179.307 91.7994 178.193 92.2961 177.305C92.7928 176.402 93.4701 175.679 94.3281 175.137C95.2011 174.58 96.1945 174.159 97.3084 173.873C98.4373 173.587 99.6188 173.391 100.853 173.286C102.313 173.135 103.472 172.992 104.33 172.857C105.188 172.722 105.805 172.526 106.181 172.27C106.558 172.014 106.746 171.63 106.746 171.119V170.96C106.746 170.373 106.588 169.862 106.272 169.425C105.956 168.974 105.504 168.62 104.917 168.364C104.345 168.108 103.653 167.98 102.84 167.98C102.027 167.98 101.305 168.108 100.672 168.364C100.055 168.62 99.5662 168.981 99.2049 169.448C98.8437 169.914 98.6329 170.456 98.5727 171.073H92.3187C92.424 169.433 92.9057 168.01 93.7636 166.806C94.6367 165.602 95.8559 164.676 97.4213 164.029C98.9867 163.367 100.861 163.036 103.043 163.036C104.669 163.036 106.121 163.224 107.401 163.6C108.68 163.961 109.756 164.496 110.629 165.203C111.517 165.911 112.187 166.769 112.639 167.777C113.09 168.785 113.316 169.929 113.316 171.209V187.375H106.814V184.01H106.723C106.302 184.793 105.783 185.463 105.165 186.02C104.548 186.577 103.796 187.013 102.908 187.329C102.02 187.63 100.966 187.781 99.7468 187.781ZM101.598 183.153C102.667 183.153 103.585 182.957 104.353 182.565C105.135 182.174 105.737 181.64 106.159 180.962C106.58 180.285 106.791 179.517 106.791 178.66V176.266C106.595 176.372 106.34 176.477 106.023 176.582C105.707 176.673 105.339 176.763 104.917 176.853C104.496 176.929 104.037 177.011 103.54 177.102C103.043 177.192 102.531 177.275 102.005 177.35C101.237 177.47 100.545 177.659 99.9274 177.914C99.3103 178.155 98.8211 178.486 98.4598 178.908C98.0986 179.314 97.918 179.834 97.918 180.466C97.918 181.023 98.0685 181.504 98.3695 181.911C98.6706 182.317 99.0996 182.626 99.6565 182.836C100.213 183.047 100.861 183.153 101.598 183.153Z" fill="black"/>
<path d="M53.6584 187.375V163.532H60.0706V168.906H59.6642C60.0856 167.581 60.6802 166.49 61.4478 165.632C62.2155 164.759 63.1035 164.112 64.112 163.69C65.1205 163.254 66.1816 163.036 67.2955 163.036C69.1168 163.036 70.6972 163.562 72.0368 164.616C73.3764 165.655 74.1892 167.085 74.4752 168.906H73.7753C74.0764 167.687 74.6107 166.641 75.3783 165.768C76.146 164.895 77.0792 164.225 78.178 163.758C79.2918 163.276 80.496 163.036 81.7905 163.036C83.3257 163.036 84.6955 163.367 85.8996 164.029C87.1188 164.691 88.0746 165.662 88.767 166.942C89.4594 168.206 89.8056 169.749 89.8056 171.57V187.375H83.1677V172.789C83.1677 171.359 82.7764 170.291 81.9937 169.583C81.226 168.876 80.2702 168.522 79.1263 168.522C78.2834 168.522 77.5458 168.71 76.9136 169.087C76.2815 169.463 75.7923 169.99 75.4461 170.667C75.1149 171.329 74.9494 172.112 74.9494 173.015V187.375H68.5373V172.609C68.5373 171.374 68.1685 170.388 67.4309 169.651C66.6934 168.898 65.7376 168.522 64.5636 168.522C63.7809 168.522 63.0659 168.71 62.4187 169.087C61.7865 169.448 61.2747 169.99 60.8834 170.712C60.5071 171.42 60.3189 172.285 60.3189 173.309V187.375H53.6584Z" fill="black"/>
<path d="M39.9245 187.916C37.5312 187.916 35.424 187.397 33.6027 186.359C31.7814 185.32 30.359 183.867 29.3355 182.001C28.327 180.135 27.8228 177.96 27.8228 175.476C27.8228 172.977 28.327 170.795 29.3355 168.928C30.359 167.062 31.7814 165.61 33.6027 164.571C35.424 163.517 37.5312 162.99 39.9245 162.99C42.3478 162.99 44.4626 163.517 46.2689 164.571C48.0901 165.61 49.505 167.062 50.5135 168.928C51.537 170.795 52.0488 172.977 52.0488 175.476C52.0488 177.96 51.537 180.135 50.5135 182.001C49.505 183.867 48.0901 185.32 46.2689 186.359C44.4626 187.397 42.3478 187.916 39.9245 187.916ZM39.9245 182.52C41.0082 182.52 41.9565 182.242 42.7693 181.685C43.5821 181.113 44.2143 180.3 44.6658 179.247C45.1174 178.193 45.3432 176.936 45.3432 175.476C45.3432 173.986 45.1174 172.714 44.6658 171.66C44.2143 170.607 43.5821 169.801 42.7693 169.245C41.9565 168.673 41.0082 168.387 39.9245 168.387C38.8558 168.387 37.9151 168.673 37.1023 169.245C36.2894 169.801 35.6573 170.607 35.2057 171.66C34.7542 172.714 34.5284 173.986 34.5284 175.476C34.5284 176.951 34.7542 178.215 35.2057 179.269C35.6573 180.308 36.2894 181.113 37.1023 181.685C37.9151 182.242 38.8558 182.52 39.9245 182.52Z" fill="black"/>
<path d="M13.6596 187.917C10.7847 187.917 8.33123 187.465 6.29922 186.562C4.26721 185.644 2.70934 184.319 1.62561 182.588C0.541868 180.857 0 178.772 0 176.334H6.70562C6.73573 177.568 7.02924 178.622 7.58616 179.495C8.15813 180.368 8.96341 181.038 10.002 181.504C11.0406 181.971 12.2748 182.204 13.7048 182.204C14.9992 182.204 16.1206 182.031 17.0689 181.685C18.0322 181.324 18.7772 180.82 19.3041 180.172C19.8459 179.525 20.1169 178.765 20.1169 177.892C20.1169 177.169 19.9061 176.545 19.4847 176.018C19.0783 175.476 18.4311 175.002 17.543 174.596C16.67 174.189 15.5185 173.835 14.0886 173.534L10.5439 172.767C7.20233 172.044 4.71877 170.908 3.09317 169.358C1.46756 167.807 0.654757 165.828 0.654757 163.42C0.654757 161.372 1.1891 159.589 2.25779 158.069C3.32647 156.533 4.81661 155.337 6.7282 154.479C8.65484 153.621 10.89 153.192 13.4338 153.192C16.0077 153.192 18.2354 153.628 20.1169 154.501C21.9984 155.374 23.4584 156.624 24.497 158.249C25.5506 159.86 26.115 161.794 26.1903 164.052H19.6879C19.5675 162.456 18.9503 161.199 17.8365 160.281C16.7227 159.363 15.2626 158.904 13.4564 158.904C12.3275 158.904 11.319 159.085 10.431 159.446C9.55796 159.792 8.86557 160.281 8.3538 160.913C7.85709 161.546 7.60874 162.268 7.60874 163.081C7.60874 163.773 7.80441 164.375 8.19576 164.887C8.58711 165.384 9.21176 165.82 10.0697 166.197C10.9277 166.573 12.0415 166.912 13.4112 167.213L16.6399 167.913C18.4311 168.304 19.9814 168.786 21.2909 169.358C22.6004 169.914 23.6766 170.584 24.5195 171.367C25.3625 172.135 25.9871 173.023 26.3935 174.031C26.7999 175.04 27.0031 176.176 27.0031 177.44C27.0031 179.593 26.4612 181.459 25.3775 183.04C24.3088 184.605 22.7735 185.809 20.7716 186.652C18.7848 187.495 16.4141 187.917 13.6596 187.917Z" fill="black"/>
<path d="M151.835 157.855L150.286 154.248H150.987L152.031 156.806L153.07 154.248H153.771L152.227 157.855H151.835ZM150.114 157.855V154.248H150.835V157.855H150.114ZM153.222 157.855V154.248H153.943V157.855H153.222ZM147.669 157.855V154.562H148.389V157.855H147.669ZM146.571 154.865V154.248H149.487V154.865H146.571Z" fill="black"/>
</svg>
