<svg width="171" height="171" viewBox="0 0 171 171" fill="none" xmlns="http://www.w3.org/2000/svg">
<mask id="mask0_102_94" style="mask-type:luminance" maskUnits="userSpaceOnUse" x="0" y="0" width="171" height="171">
<path d="M0 171H171V0H0V171Z" fill="white"/>
</mask>
<g mask="url(#mask0_102_94)">
<path d="M171 89.5369C171 114.261 160.859 136.646 144.463 152.85C128.065 169.052 105.413 171 80.3936 171C55.3741 171 32.722 169.052 16.3242 152.85C-0.0714822 136.646 5.34261e-06 114.261 5.34261e-06 89.5369C5.34261e-06 64.8128 8.0988 42.4281 24.4945 26.2238C40.8923 10.0217 55.3741 0 80.3936 0C105.413 0 123.98 10.0217 140.378 26.2238C156.774 42.4281 171 64.8128 171 89.5369Z" fill="#E3FF24"/>
</g>
<path d="M27.5312 109.262C27.7641 108.323 27.9438 107.369 28.2441 106.452C28.5342 105.572 28.9508 104.734 29.3083 103.877C29.6004 103.172 29.8251 102.433 30.1907 101.769C30.7238 100.801 31.3692 99.8922 31.9452 98.9455C32.4559 98.1099 32.9727 97.2743 33.422 96.4083C34.5557 94.2244 36.4981 92.8155 38.3365 91.3057C39.2515 90.5508 40.1646 89.7777 41.1613 89.1378C42.3215 88.391 43.545 87.7249 44.793 87.1275C45.7898 86.6511 46.8581 86.3221 47.9039 85.9467C48.6719 85.6701 49.1376 86.1909 49.5195 86.6894C50.5204 87.9893 51.4375 89.3498 52.4506 90.6416C52.8857 91.1987 53.57 91.5761 53.9683 92.1514C54.6729 93.1748 54.8813 94.4121 54.7832 95.603C54.6546 97.1431 52.8591 97.6214 51.2823 97.1431C50.5878 96.9311 49.8545 96.6283 49.16 96.6748C48.3716 96.7293 47.5158 96.9876 46.8519 97.4075C45.5018 98.2613 44.1741 99.1878 42.9935 100.251C40.4464 102.544 38.3385 105.223 36.7596 108.245C36.0835 109.536 35.771 111.018 35.3359 112.427C35.2951 112.562 35.5218 112.911 35.6791 112.95C36.1305 113.061 36.6309 113.168 37.0762 113.087C38.1914 112.885 39.2434 112.528 40.3055 112.047C42.6667 110.976 44.648 109.359 46.8315 108.039C47.4341 107.673 48.0407 107.252 48.5003 106.731C48.8373 106.347 48.9068 105.742 49.1641 105.273C49.3051 105.013 49.5767 104.815 49.8096 104.613C49.9812 104.466 50.2467 104.395 50.3652 104.222C50.6613 103.786 50.9514 103.439 51.4988 103.802C51.5703 103.737 51.6132 103.713 51.6377 103.675C51.7847 103.443 51.9277 103.209 52.0707 102.974C52.4608 103.237 52.9041 103.447 53.2248 103.776C53.6537 104.216 53.9458 104.787 54.3747 105.227C55.012 105.879 55.0672 106.057 54.5545 106.783C54.8874 107.029 54.9303 107.91 54.6321 108.356C54.0928 109.165 54.1848 109.625 54.9998 109.954C55.0345 109.767 55.0651 109.591 55.1019 109.395C55.5655 109.702 55.6023 109.902 55.2306 110.213C54.4135 110.897 53.5536 111.533 52.757 112.241C52.3117 112.639 51.9604 113.139 51.6499 113.707C51.7909 113.644 51.9318 113.581 52.0748 113.519C52.1034 113.555 52.134 113.591 52.1647 113.628C51.9216 113.83 51.6785 114.03 51.4355 114.231C51.4763 114.298 51.5192 114.363 51.5601 114.429C52.4853 113.828 53.4106 113.228 54.3339 112.627C52.5323 114.631 50.2753 115.989 48.0448 117.423C46.6334 118.329 45.2036 119.166 43.69 119.849C42.1295 120.553 40.5343 121.262 38.8798 121.645C37.307 122.008 35.6648 121.756 34.2227 120.884C32.511 119.851 30.8668 118.72 29.3594 117.408C28.4565 116.625 28.3197 115.477 27.9643 114.437C27.7845 113.908 27.6742 113.357 27.5312 112.816V109.262Z" fill="#262626"/>
<path d="M123.975 84.3752C124.819 84.8859 125.599 85.4915 126.729 85.2291C127.521 85.0434 127.907 85.8366 128.424 86.2342C128.961 86.648 129.403 87.2011 129.829 87.734C130.414 88.4626 130.524 89.3366 130.267 90.1884C129.815 91.6821 129.206 93.1293 128.778 94.629C127.871 97.7879 127.035 100.969 126.126 104.314C126.635 104.287 127.041 104.336 127.409 104.237C128.375 103.975 129.331 103.674 130.277 103.345C131.394 102.955 132.509 102.549 133.6 102.093C134.725 101.623 135.792 101.005 136.936 100.594C138.145 100.158 139.407 99.869 140.657 99.5581C141.364 99.3825 142.087 99.2695 142.81 99.1766C143.018 99.1524 143.249 99.3018 143.47 99.3724C143.382 99.6227 143.361 99.9356 143.194 100.111C142.497 100.838 142.16 101.706 141.993 102.669C141.958 102.862 141.825 103.068 141.68 103.21C140.769 104.104 139.842 104.984 138.894 105.89C139.068 105.959 139.18 106.003 139.325 106.06C138.903 106.372 138.216 106.415 138.369 107.188C138.535 107.17 138.702 107.152 139.052 107.111C138.708 107.359 138.529 107.543 138.31 107.636C137.13 108.137 135.929 108.591 134.76 109.118C134.458 109.255 134.25 109.6 133.996 109.846C133.774 110.064 133.58 110.331 133.318 110.488C132.125 111.205 130.885 111.844 129.717 112.597C128.181 113.59 126.643 114.596 125.207 115.72C123.992 116.671 122.872 117.755 121.808 118.873C121.379 119.325 121.214 120.023 120.928 120.609C120.615 121.244 120.299 121.88 119.984 122.516C119.923 122.49 119.862 122.462 119.8 122.435C119.845 122.219 119.888 122.001 119.917 121.864C119.568 121.584 119.249 121.329 118.928 121.075C117.835 122.153 117.55 122.238 117.108 121.618C116.849 121.973 116.583 122.336 116.387 122.607C116.04 122.276 115.764 122.013 115.413 121.678C115.143 122.306 114.955 122.643 114.263 122.302C113.697 122.022 112.97 122.044 112.308 121.979C111.573 121.909 111.105 121.305 111.046 120.597C110.948 119.452 111.33 118.473 111.826 117.492C112.265 116.626 112.492 115.595 113.109 114.89C114.155 113.699 114.3 112.246 114.723 110.866C115.37 108.746 116.03 106.631 116.616 104.497C117.245 102.21 117.833 99.9093 118.364 97.6002C118.855 95.4647 119.253 93.311 119.68 91.1613C119.911 90.0068 120.058 88.832 120.348 87.6916C120.671 86.4321 121.42 85.4026 122.529 84.7002C122.889 84.4741 123.397 84.4762 123.837 84.3752H123.975Z" fill="#262626"/>
<path d="M77.547 100.878C77.6328 100.873 77.7186 100.867 77.8043 100.863C77.7676 100.252 77.7308 99.6422 77.6941 99.0326C77.6103 99.0367 77.5266 99.0407 77.4428 99.0468C77.4775 99.6563 77.5123 100.268 77.547 100.878ZM77.1712 97.8417C77.5327 97.8417 77.8125 97.8761 78.0699 97.8175C78.1393 97.8034 78.1843 97.5006 78.1679 97.3371C78.1332 97.0182 78.0617 96.6993 77.9739 96.3885C77.9473 96.2896 77.8207 96.2169 77.7186 96.1099C77.5388 96.6771 77.3795 97.1797 77.1712 97.8417ZM74.2932 119.078C74.3361 119.165 74.381 119.252 74.4259 119.336C74.861 119.167 75.2961 118.999 75.7311 118.826C75.7311 118.826 75.7087 118.765 75.6964 118.733C75.5677 118.787 75.4431 118.84 75.3145 118.896C75.5698 118.545 75.7536 118.182 76.0375 117.927C76.589 117.435 77.2488 117.058 77.7676 116.539C79.0238 115.281 80.1268 113.915 80.8457 112.256C81.4279 110.909 82.155 109.624 82.7944 108.301C82.8904 108.102 82.8577 107.839 82.9087 107.409C83.2376 107.038 84.3161 103.586 84.0771 101.863C83.9933 102.157 83.9688 102.462 83.8994 102.759C83.7687 103.32 83.832 103.885 83.5113 104.454C83.0762 105.221 82.8761 106.124 82.6044 106.975C82.3082 107.912 82.0529 108.863 81.7649 109.801C81.7363 109.896 81.5913 109.948 81.528 110.039C80.7395 111.158 79.945 112.268 79.179 113.398C78.5724 114.292 78.029 115.227 77.3999 116.105C77.2202 116.357 76.7953 116.426 76.5747 116.664C76.0845 117.187 75.6719 117.782 75.1919 118.315C74.9305 118.604 74.5955 118.826 74.2932 119.078ZM74.5179 93.6615C74.5117 93.6656 74.3422 93.7402 74.2258 93.8654C73.4026 94.7434 72.6346 95.6739 71.7665 96.5055C70.304 97.9023 69.5197 99.725 68.6986 101.467C67.3627 104.307 66.4129 107.3 66.0453 110.447C65.8757 111.896 65.6613 113.333 66.4497 114.726C67.1217 114.581 67.8039 114.417 68.4943 114.296C68.815 114.24 69.2358 114.387 69.4604 114.23C70.016 113.842 70.5001 113.35 70.9801 112.867C71.3539 112.49 71.8053 112.116 72.0034 111.652C72.3997 110.72 73.0615 110.055 73.8132 109.434C74.0031 109.276 74.2156 109.085 74.2911 108.867C74.7752 107.472 75.2225 106.067 75.6842 104.664C75.772 104.402 75.9191 104.145 75.9395 103.881C75.9967 103.14 75.9967 102.395 76.0314 101.653C76.0375 101.521 76.06 101.318 76.1417 101.277C76.8505 100.932 76.6074 100.351 76.5523 99.8098C76.5298 99.5857 76.491 99.3455 76.5502 99.1376C76.9853 97.6238 76.2724 96.3178 75.7924 94.9735C75.7597 94.8786 75.6331 94.8161 75.5555 94.7353C75.2246 94.3942 74.8957 94.0531 74.5179 93.6615ZM77.596 87.372C78.603 87.4648 79.2301 88.353 80.0553 88.9282C80.4413 89.1967 80.8396 89.447 81.2032 89.7396C81.5034 89.9798 81.8691 90.218 82.0243 90.543C82.5656 91.6794 83.1048 92.8319 83.4847 94.0269C83.6298 94.483 83.5971 94.8383 84.2037 94.7858C84.2691 94.7797 84.4019 95.0099 84.4223 95.1431C84.4815 95.5468 84.4999 95.9585 84.5367 96.3663C84.6102 97.1736 84.7368 97.979 84.7471 98.7864C84.7573 99.5877 84.6531 100.389 84.5939 101.19C84.5816 101.364 84.5448 101.536 84.6102 101.725C85.274 99.7452 86.0911 97.8014 85.752 95.6174C85.8439 95.6235 85.9338 95.6295 86.0257 95.6356C86.0257 96.2936 86.0625 96.9556 86.0175 97.6116C85.9113 99.1497 85.9134 100.716 85.5968 102.212C85.1821 104.17 84.5693 106.095 83.9178 107.993C83.4725 109.286 82.921 110.568 82.2286 111.745C81.3114 113.303 80.1819 114.74 79.1913 116.258C78.3865 117.489 77.2917 118.424 76.0661 119.165C74.6424 120.025 73.1412 120.776 71.6113 121.436C71.1006 121.658 70.3673 121.581 69.7975 121.425C68.6965 121.125 67.6426 120.658 66.56 120.287C66.2209 120.17 65.8431 120.17 65.4979 120.065C64.305 119.7 63.1162 119.32 61.9356 118.919C61.7988 118.874 61.7171 118.668 61.6108 118.535C61.474 118.361 61.3678 118.149 61.1982 118.02C60.706 117.649 60.5405 117.73 60.4139 118.46C59.4335 117.562 58.3325 116.991 57.8627 115.566C57.4134 114.199 56.964 112.841 56.7373 111.43C56.6392 110.816 56.8047 110.158 56.8782 109.525C56.9272 109.101 57.0763 108.687 57.0947 108.265C57.1825 106.188 57.4379 104.149 58.2712 102.218C58.3529 102.03 58.4163 101.832 58.4612 101.634C58.9351 99.4706 59.9829 97.5612 61.1063 95.6759C61.9213 94.3074 62.6791 92.9066 63.4103 91.4937C63.7045 90.9285 63.8618 90.2947 64.0619 89.7437C64.7053 89.3178 65.5265 89.1381 65.3467 88.0865C65.2711 87.6465 66.2577 86.9441 66.7316 86.8775C67.1197 86.825 67.4894 86.6373 67.8632 86.502C68.1164 86.4092 68.3697 86.3143 68.6107 86.1952C68.8967 86.0539 69.1704 85.8884 69.5278 85.6886C70.8433 85.9227 72.2996 86.1569 73.7458 86.4516C74.0889 86.5202 74.381 86.8048 74.7139 86.9542C75.4227 87.2711 76.1294 87.594 76.8648 87.8362C77.0118 87.8847 77.2753 87.5859 77.596 87.372Z" fill="#262626"/>
<path d="M106.069 98.9789C105.656 99.5925 105.695 100.281 106.171 100.913C106.136 100.253 106.103 99.6429 106.069 98.9789ZM105.585 97.7032C106.232 98.0524 106.598 97.9716 106.549 97.4953C106.506 97.0855 106.394 96.6798 106.289 96.2802C106.273 96.2156 106.128 96.1813 106.067 96.147C105.895 96.7 105.738 97.2046 105.585 97.7032ZM102.674 119.111L102.756 119.279C103.138 119.19 103.522 119.115 103.897 119.006C103.989 118.982 104.128 118.794 104.118 118.784C103.793 118.384 104.277 118.092 104.392 117.977C104.917 117.438 105.601 117.052 106.146 116.527C107.552 115.179 108.649 113.609 109.455 111.834C110.007 110.621 110.636 109.443 111.2 108.236C111.285 108.054 111.212 107.802 111.212 107.477C111.604 107.045 112.672 103.617 112.446 101.861C112.36 102.154 112.331 102.459 112.266 102.753C112.139 103.315 112.019 103.88 111.845 104.429C111.576 105.283 111.243 106.116 110.973 106.97C110.675 107.904 110.424 108.855 110.138 109.794C110.109 109.889 109.964 109.943 109.901 110.034C109.112 111.15 108.316 112.258 107.548 113.387C106.929 114.297 106.371 115.25 105.732 116.146C105.552 116.396 105.143 116.477 104.915 116.709C104.279 117.349 103.681 118.027 103.068 118.691C102.937 118.832 102.805 118.97 102.674 119.111ZM102.888 93.658C102.888 93.658 102.737 93.7167 102.633 93.8257C101.81 94.7038 101.044 95.6383 100.172 96.4618C98.6971 97.8526 97.9148 99.6772 97.0896 101.419C95.7272 104.295 94.7529 107.333 94.4016 110.526C94.2627 111.79 94.04 113.043 94.5936 114.291C94.7692 114.682 94.8959 114.771 95.284 114.658C95.8048 114.507 96.3359 114.38 96.8731 114.291C97.1733 114.24 97.5819 114.408 97.782 114.263C98.3662 113.837 98.885 113.32 99.3997 112.807C99.7592 112.45 100.192 112.093 100.372 111.647C100.758 110.706 101.434 110.052 102.188 109.43C102.359 109.287 102.56 109.118 102.629 108.92C103.121 107.527 103.583 106.124 104.053 104.723C104.147 104.443 104.286 104.16 104.306 103.872C104.361 103.155 104.353 102.432 104.386 101.712C104.392 101.56 104.422 101.322 104.518 101.274C105.188 100.943 104.97 100.386 104.933 99.865C104.917 99.6207 104.857 99.3563 104.921 99.1282C105.35 97.6124 104.635 96.3104 104.155 94.9641C104.122 94.8693 103.991 94.8107 103.914 94.73C103.583 94.3869 103.256 94.0437 102.888 93.658ZM92.5367 89.6677C93.0616 89.3185 93.8971 89.149 93.7071 88.0953C93.6315 87.6634 94.6181 86.9428 95.0858 86.8762C95.4739 86.8237 95.8436 86.642 96.2195 86.5068C96.4278 86.4301 96.6341 86.3413 96.8343 86.2424C97.1815 86.0708 97.5206 85.8871 97.9373 85.6711C99.1485 85.9073 100.488 86.1556 101.824 86.4321C102.149 86.5007 102.462 86.6461 102.77 86.7793C103.585 87.1325 104.386 87.5261 105.221 87.8269C105.368 87.8793 105.654 87.5604 105.938 87.3727C106.965 87.4373 107.576 88.3537 108.41 88.9148C108.818 89.1893 109.227 89.4618 109.621 89.7525C109.86 89.9301 110.146 90.1017 110.289 90.3459C111.042 91.6337 111.435 93.0627 111.892 94.4676C111.933 94.5907 112.154 94.7502 112.276 94.7401C112.695 94.7078 112.799 94.9096 112.813 95.2608C112.84 96.0117 112.873 96.7606 112.92 97.5094C112.938 97.8203 112.999 98.1291 113.034 98.4419C113.069 98.7548 113.138 99.0717 113.116 99.3826C113.063 100.156 112.964 100.927 112.979 101.714C113.602 99.756 114.466 97.8505 114.121 95.6948C114.188 95.6928 114.257 95.6908 114.325 95.6888C114.349 95.9047 114.4 96.1207 114.394 96.3347C114.311 98.8012 114.339 101.278 113.614 103.684C113.287 104.764 113.118 105.892 112.748 106.956C112.358 108.082 111.882 109.192 111.322 110.246C110.462 111.865 109.562 113.471 108.561 115.009C107.221 117.068 105.476 118.75 103.254 119.888C102.178 120.441 101.105 121.027 99.9737 121.438C99.4365 121.634 98.7257 121.58 98.1558 121.424C97.0549 121.121 96.003 120.655 94.9204 120.284C94.6038 120.175 94.2463 120.185 93.9257 120.086C92.7328 119.721 91.544 119.343 90.3614 118.941C90.2041 118.889 90.0999 118.675 89.9794 118.53C89.8364 118.36 89.7323 118.146 89.5607 118.019C89.0643 117.648 88.905 117.728 88.7804 118.461C87.802 117.561 86.7011 116.992 86.2292 115.569C85.7819 114.222 85.3469 112.884 85.112 111.497C85.0057 110.864 85.1732 110.181 85.2468 109.523C85.2897 109.146 85.4531 108.776 85.4592 108.401C85.4919 106.06 86.1189 103.857 86.7787 101.621C87.5569 98.9768 88.9275 96.6738 90.2735 94.3243C90.9108 93.2121 91.3806 92.0051 91.9321 90.8445C92.1119 90.467 92.3141 90.1017 92.5367 89.6677Z" fill="#262626"/>
<path d="M112.951 93.3192C113.619 94.28 113.411 95.2045 113.155 96.137C113.092 95.2569 113.029 94.3769 112.951 93.3192Z" fill="#262626"/>
<path d="M84.5881 93.3319C85.2622 94.2786 85.0355 95.205 84.7903 96.1356C84.727 95.2575 84.6637 94.3775 84.5881 93.3319Z" fill="#262626"/>
<path d="M44.042 103.426C44.1788 103.097 44.3157 102.768 44.4546 102.439C44.5731 102.516 44.7712 102.57 44.7998 102.673C44.9244 103.105 44.7691 103.412 44.042 103.426Z" fill="#262626"/>
<path d="M94.4946 58.5523C94.5661 58.5806 94.6355 58.6088 94.707 58.6371C95.4689 58.1607 96.2451 57.7045 96.9927 57.204C99.0965 55.791 101.002 54.1399 102.865 52.4303C104.242 51.1667 105.216 49.667 106.033 48.0301C106.284 47.5234 106.303 46.9845 105.939 46.6474C105.719 46.4415 105.143 46.4496 104.793 46.5647C103.38 47.0208 101.966 47.4992 100.6 48.0785C99.07 48.7264 97.6871 49.7538 97.0458 51.2313C96.0204 53.597 95.328 56.1059 94.4946 58.5523ZM55.1628 37.1909C55.5734 38.0629 56.3802 38.406 57.2197 38.7149C57.618 38.8602 57.8754 40.0289 57.6221 40.4608C57.4873 40.6889 57.377 40.9331 57.2565 41.1693C57.33 41.2177 57.4056 41.2662 57.4791 41.3126C57.8468 40.8847 58.2144 40.4548 58.5841 40.0248C58.623 40.0551 58.6638 40.0834 58.7047 40.1116C58.3717 40.9372 58.0306 41.7587 57.7222 42.5923C57.6691 42.7336 57.6997 43.0101 57.7978 43.0848C58.3554 43.4986 58.4207 43.5733 58.4167 44.1445C59.2582 43.8781 59.8771 43.4461 60.0262 42.5116C60.0487 42.3602 60.3244 42.2472 60.5818 42.0372C60.7289 43.6883 59.2909 44.3625 58.8619 45.5776C58.4514 46.7443 57.5649 47.7475 56.9705 48.8798C58.1573 48.5791 58.194 47.3216 58.9375 46.6292C59.6728 45.945 60.1426 44.9802 60.833 43.9871C60.3591 45.8602 59.007 47.045 58.3043 48.7305C60.2488 48.246 62.2179 47.8322 64.1236 47.2267C64.5668 47.0854 64.8855 46.3345 65.1143 45.8017C65.4451 45.0286 65.8823 44.4432 66.7381 44.2333C66.9383 44.1849 67.1609 44.1344 67.31 44.0113C67.8615 43.5551 68.4865 43.7691 68.9747 43.9709C69.6569 44.2515 70.2554 44.2798 70.9519 44.084C71.6975 43.8761 72.49 43.8438 73.2437 43.656C74.796 43.2725 76.328 42.8164 77.8783 42.4248C79.8085 41.9383 81.7551 41.5185 83.6792 41.0119C84.8965 40.6909 86.1139 40.3296 87.2802 39.8634C88.2362 39.4839 89.1962 39.6494 90.1562 39.5868C90.3318 39.5767 90.5095 39.5868 90.6954 39.5868C91.2326 40.4406 91.1019 40.6304 90.2787 41.1935C89.862 41.4801 89.67 42.1059 89.4188 42.5984C89.2452 42.9415 89.1655 43.2705 88.6774 43.3896C88.4261 43.4522 88.2525 43.8942 88.085 44.1869C87.9502 44.4251 87.8787 44.6976 87.7357 45.069C87.7827 45.2284 87.8726 45.5292 87.9727 45.8602C86.6307 46.3487 85.3153 46.8291 83.9733 47.3175C84.0652 47.5113 84.1285 47.6445 84.1469 47.6809C81.1709 48.5871 78.2316 49.5479 75.2474 50.3553C73.9218 50.7146 73.5807 51.6996 73.309 52.727C73.019 53.8271 73.3213 54.0471 74.4427 53.7262C75.0575 53.5485 75.6723 53.3447 76.2503 53.0722C77.6107 52.4303 79.0548 52.0932 80.5316 51.8833C80.7706 51.849 81.2015 52.0024 81.2669 52.174C81.3547 52.402 81.2056 52.7452 81.1015 53.0177C81.0136 53.2478 80.8318 53.4416 80.7134 53.6636C80.3988 54.253 80.3028 54.9715 79.6206 55.345C79.4817 55.4217 79.4429 55.674 79.3305 55.9C79.6308 55.8556 79.8371 55.8254 79.9515 55.8092C79.5593 56.1342 79.1283 56.4914 78.6953 56.8507C78.8138 56.986 78.9322 57.1212 79.0997 57.315C78.7995 57.5088 78.4318 57.7267 78.0887 57.975C77.6556 58.2859 76.9857 58.3424 76.9203 59.071C76.9101 59.1821 76.5853 59.2567 76.4138 59.3617C75.5783 59.8744 74.745 60.3931 73.8953 60.9179C73.9361 60.9422 74.0403 61.0007 74.0832 61.0249C73.8708 61.3378 73.6583 61.6668 73.4193 61.9756C73.3846 62.022 73.1456 62.0059 73.1252 61.9615C72.8515 61.3761 72.4471 61.7475 72.0794 61.8C70.3616 62.0402 69.2464 62.892 68.9706 64.6743C68.9032 65.1042 68.6785 65.5079 68.46 66.1013C69.2525 65.8712 69.8734 65.7441 70.4535 65.514C72.733 64.6117 75.0023 63.6812 77.2716 62.7547C78.5176 62.2461 79.7452 61.687 81.0055 61.2187C82.4598 60.6777 83.9427 60.2155 85.4092 59.7048C85.5849 59.6443 85.8382 59.5373 85.8811 59.4C86.2242 58.298 86.5245 57.1838 86.8554 56.009C85.5992 55.6982 84.4492 55.4136 83.1992 55.1027C83.3728 54.2732 83.4994 53.5485 83.6873 52.84C83.7445 52.6241 83.9611 52.4464 84.1224 52.2648C84.3001 52.0629 84.5493 51.9055 84.678 51.6794C85.254 50.6702 86.0833 50.0162 87.2292 49.7498C87.3538 49.7215 87.4865 49.6307 87.5703 49.5318C88.1524 48.8435 88.9 48.349 89.2084 47.3619C89.5005 46.4355 90.2297 45.6119 90.8833 44.8409C91.1509 44.528 91.7494 44.5058 92.1701 44.2979C93.4059 43.6904 94.6498 43.0949 95.8488 42.4248C98.1242 41.1511 100.594 40.5173 103.139 40.039C104.81 39.7261 106.427 39.7322 108.047 40.2004C108.995 40.475 109.826 40.919 110.627 41.5407C112.171 42.7417 113.174 44.2878 114.018 45.9833C114.624 47.2005 114.357 48.462 114.062 49.6549C113.787 50.7792 113.223 51.8349 112.784 52.9208C112.723 52.8966 112.659 52.8744 112.598 52.8522C112.645 52.6745 112.694 52.4989 112.741 52.3233C112.678 52.285 112.612 52.2486 112.549 52.2123C111.932 53.1448 111.374 54.1238 110.684 54.9978C109.996 55.8698 109.173 56.6388 108.355 57.5108C108.094 56.9577 107.796 57.1373 107.459 57.4825C107.122 57.8256 106.742 58.1304 106.28 58.3484C107.306 57.2241 108.333 56.0999 109.358 54.9756C109.32 54.9453 109.281 54.917 109.242 54.8888C107.494 56.4793 105.806 58.1446 103.978 59.6382C102.324 60.9926 100.518 62.1674 98.7697 63.4067C98.4408 63.6388 98.0364 63.772 97.73 64.0264C97.6157 64.1212 97.5809 64.5148 97.681 64.6238C98.4756 65.4978 99.1946 66.5091 100.163 67.1449C101.468 68.0048 102.777 68.9898 104.522 68.9676C105.189 68.9595 105.864 69.232 106.529 69.3975C106.736 69.45 106.922 69.5791 107.122 69.674C106.431 70.875 106.178 72.7037 106.656 73.0226C106.393 73.2164 106.076 73.3617 105.904 73.606C105.784 73.7755 105.864 74.0823 105.851 74.3508C105.761 74.3326 105.508 74.2822 105.196 74.2176C105.343 74.5789 105.465 74.8756 105.606 75.2228C105.094 75.1259 104.603 75.033 104.113 74.9402C104.095 75.0007 104.078 75.0613 104.062 75.1198C104.434 75.2914 104.803 75.4609 105.175 75.6305C105.155 75.6931 105.134 75.7577 105.116 75.8202C103.582 75.3721 102.046 74.9321 100.516 74.4679C99.7746 74.2438 99.0475 73.9713 98.3142 73.717C98.2284 73.6887 98.1386 73.6585 98.0671 73.606C97.4359 73.1397 96.8313 72.6351 96.1736 72.2092C95.3382 71.6703 94.4578 71.202 93.6061 70.6873C93.3324 70.5218 93.0873 70.3118 92.8401 70.11C92.4336 69.777 92.0353 69.4318 91.5615 69.0301C91.3878 69.6074 91.2694 70.1342 91.0692 70.6308C90.7567 71.4079 90.3094 72.1406 90.0602 72.9338C89.5434 74.5789 89.1349 76.2582 88.6426 77.9114C88.5364 78.2666 88.2627 78.5714 87.9767 79.0478C87.7643 78.414 87.6152 78.1616 87.1046 78.4886C86.8207 78.6723 86.5041 79.0578 86.0057 78.7389C85.9138 78.6784 85.4521 79.0498 85.2601 79.298C85.0436 79.5786 84.9415 79.946 84.7434 80.3759C84.5269 80.2447 84.3267 80.0307 84.1224 80.0247C83.8569 80.0166 83.4892 80.0913 83.3319 80.2709C82.613 81.0985 81.5386 80.8502 80.6684 81.2014C80.5949 81.2317 80.4642 81.2156 80.4049 81.1671C80.3253 81.1046 80.217 80.9532 80.2436 80.8987C80.4969 80.3961 79.6124 80.2649 79.9352 79.5988C80.5888 78.2545 81.0974 76.8234 81.5038 75.3842C82.4414 72.0679 83.285 68.7233 84.1122 65.5886C82.7478 66.3557 81.2383 67.1853 79.7493 68.0492C79.398 68.253 79.1508 68.6345 78.7974 68.8263C78.4318 69.0261 77.9988 69.1714 77.5862 69.1977C77.1818 69.2239 76.8774 69.2501 76.7181 69.676C76.6711 69.8012 76.5138 69.9021 76.3852 69.9828C74.0525 71.422 71.6811 72.8047 69.3955 74.3165C68.2598 75.0673 67.2814 76.0503 66.2336 76.9304C66.1294 77.0192 66.0518 77.1544 65.9354 77.211C64.7445 77.7943 64.2972 78.9266 63.7804 80.0106C63.7355 80.1014 63.6824 80.1882 63.6007 80.3375C63.3678 79.845 63.2004 79.4111 62.9655 79.0134C62.7959 78.7268 62.5427 78.5976 62.2444 78.9287C61.8441 79.3768 61.4233 79.8067 61.1496 80.0974C60.688 79.9056 60.3101 79.6472 59.9057 79.5988C59.0703 79.5019 58.2226 79.5302 57.3811 79.4757C56.7928 79.4373 56.2046 79.3768 55.6224 79.2799C55.1036 79.1931 54.6849 78.6219 54.8054 78.1939C55.8144 74.6192 56.8255 71.0466 57.855 67.4759C58.1573 66.4243 58.5188 65.3868 58.8129 64.4644C57.9857 64.1999 57.1972 64.0284 56.4946 63.6832C56.2331 63.5561 55.9758 62.9626 56.0636 62.6861C56.2434 62.1108 56.656 61.6082 56.9705 61.0754C57.5894 60.0278 58.7782 60.2478 59.7076 59.9107C60.3224 59.6867 60.7023 59.4263 60.8963 58.7622C61.2313 57.6097 61.7215 56.5015 62.1015 55.3611C62.3609 54.586 62.5447 53.7847 62.798 52.8703C62.2301 52.939 61.8012 52.9712 61.3804 53.0459C59.9465 53.3043 58.5453 53.1509 57.1482 52.8037C56.4823 52.6382 55.6592 52.9955 55.3303 53.6151C53.9332 56.2432 52.3645 58.7804 51.3514 61.6082C50.7488 63.2896 49.8522 64.866 49.1516 66.5171C48.6981 67.5829 48.3672 68.6971 47.973 69.785C47.1478 72.0639 46.3206 74.3407 45.4851 76.6155C45.3708 76.9304 45.1992 77.2251 44.9745 77.6954C44.4863 77.1746 44.086 76.7447 43.6509 76.2784C43.1566 76.9344 42.6684 77.5844 42.168 78.2484C41.8024 78.2484 41.3775 78.2424 40.9506 78.2484C40.4032 78.2565 39.8497 78.2222 39.3104 78.2949C38.5731 78.3938 37.8459 78.5734 37.1167 78.7288C36.7511 78.8055 36.3691 78.854 36.0342 79.0033C35.4949 79.2415 35.3479 78.8318 35.26 78.529C34.8822 77.213 34.4981 75.8909 34.2408 74.5466C34.0937 73.7675 34.2122 72.9399 34.1652 72.1386C34.0284 69.8981 33.8629 67.6596 33.722 65.4191C33.6198 63.7862 33.7894 62.0866 33.3747 60.5385C33.0071 59.1639 33.2134 57.7187 32.6006 56.3905C32.3167 55.7769 32.3841 55.016 32.1778 54.3559C31.8714 53.377 31.4608 52.4303 31.1014 51.4675C31.0135 51.2354 30.9665 50.9891 30.8828 50.755C30.5866 49.9234 30.2823 49.0958 29.98 48.2662V47.035C30.3619 46.4052 30.7459 45.7754 31.1279 45.1457C31.2096 45.0104 31.3322 44.8752 31.3485 44.7279C31.4363 43.9992 31.9756 43.8498 32.5618 43.7994C34.731 43.6157 36.843 44.0174 38.9387 44.4735C40.103 44.7279 40.8914 45.5191 41.2223 46.6313C41.5614 47.7798 41.782 48.9666 42.0148 50.1434C42.2252 51.2071 42.358 52.285 42.5745 53.3467C42.7134 54.033 42.9401 54.7031 43.1382 55.4217C43.6162 55.0987 43.99 54.8787 44.325 54.6102C44.76 54.261 45.2788 53.9441 45.5628 53.492C47.5195 50.3816 49.4048 47.2267 51.3616 44.1163C51.9295 43.214 52.3502 42.3138 52.3298 41.2339C52.3237 40.9453 52.3543 40.6162 52.4932 40.374C53.1366 39.2417 53.6718 38.0266 54.7482 37.1909H55.1628Z" fill="#262626"/>
<path d="M139.405 45.501C139.663 45.287 139.791 45.178 140.049 44.9641C140.271 46.0742 139.65 46.9886 139.562 48.1331C140.096 47.8182 140.496 47.582 141.019 47.2712C140.731 47.7758 140.555 48.2158 140.263 48.561C139.859 49.0394 139.92 49.2533 140.543 49.3219C140.623 49.33 140.696 49.3885 140.788 49.4309C139.195 51.4514 137.587 53.4356 136.041 55.4681C134.956 56.8952 133.964 58.3929 132.914 59.8462C132.736 60.0924 132.503 60.3488 132.236 60.4739C131.353 60.8918 131.153 61.7173 130.894 62.5106C130.645 63.2634 130.451 64.0325 130.189 64.7793C129.56 66.5737 128.839 68.3419 128.279 70.1585C127.683 72.1003 127.244 74.0885 126.704 76.0504C126.592 76.4561 126.349 76.8275 126.167 77.2151C126.022 77.0859 125.943 77.0132 125.826 76.9103C125.734 77.2191 125.655 77.4835 125.575 77.7479C125.546 77.7499 125.518 77.7499 125.489 77.7499C125.477 77.6591 125.479 77.5642 125.454 77.4754C125.391 77.2534 125.318 77.0334 125.248 76.8134C125.04 76.9446 124.833 77.0717 124.629 77.205C123.839 77.7217 123.353 78.5311 122.687 79.1548C122.166 79.6412 121.441 79.9158 120.797 80.267C120.56 80.3982 120.299 80.4971 120.04 80.5798C119.809 80.6505 119.566 80.6787 119.308 80.6141C118.634 81.0481 117.964 81.4902 117.28 81.91C116.918 82.13 116.453 81.9019 116.49 81.4902C116.551 80.7474 116.653 80.0046 116.812 79.2779C117.445 76.3976 118.079 73.5152 118.765 70.645C119.28 68.4933 119.878 66.3618 120.432 64.2182C120.544 63.7882 120.624 63.3502 120.736 62.8396C119.231 61.3076 118.902 59.2629 118.62 57.1717C118.497 56.2533 118.152 55.3592 117.87 54.465C117.57 53.5183 117.178 52.5999 116.91 51.6452C116.422 49.9194 115.971 48.1815 115.57 46.4335C115.489 46.0803 115.683 45.6564 115.779 45.2729C116.14 43.8277 116.865 42.663 118.393 42.2008C118.646 42.1241 119.008 42.1503 119.237 42.2775C120.609 43.0425 122.047 43.7369 123.289 44.6795C124.419 45.5373 125.156 46.7141 125.177 48.2844C125.189 49.2634 125.591 50.2363 125.804 51.2153C125.92 51.7481 126.016 52.285 126.11 52.8219C126.204 53.3589 126.359 53.4235 126.886 53.1227C128.528 52.1821 129.37 50.533 130.587 49.219C131.451 48.2865 132.217 47.2631 133.024 46.2801C133.112 46.1731 133.23 46.0742 133.267 45.9511C133.627 44.7198 134.646 43.9387 135.391 42.9799C135.898 42.328 136.597 42.1362 137.246 42.8225C137.561 43.1535 138.057 43.3089 138.457 43.5653C139.105 43.9831 139.513 44.5483 139.405 45.501Z" fill="#262626"/>
<path d="M93.2791 76.02C93.802 75.9393 93.9042 76.2865 93.9021 76.7164C93.9001 77.221 93.3465 77.7882 92.8543 77.7862C92.4131 77.7842 92.2027 77.5702 92.2211 77.108C92.2476 76.4419 92.6194 76.0221 93.2791 76.02Z" fill="#262626"/>
<path d="M37.2217 80.4114C37.1645 80.3347 36.8989 80.0824 36.9398 80.0198C37.1665 79.6585 37.4688 79.3416 37.7446 79.0106C37.9345 79.2004 38.2368 79.3618 38.294 79.5839C38.3982 79.9997 37.9121 80.4054 37.2217 80.4114Z" fill="#262626"/>
<path d="M94.0636 75.4808C93.9983 74.8006 94.2536 74.5503 94.6723 74.5624C94.8378 74.5665 95.136 74.843 95.1319 74.9863C95.1176 75.4243 94.8704 75.7836 94.3741 75.7675C94.2229 75.7614 94.082 75.499 94.0636 75.4808Z" fill="#262626"/>
<path d="M91.2732 79.4654C91.6082 79.1081 91.8757 78.8235 92.2455 78.4259C92.4252 79.421 92.2066 79.637 91.2732 79.4654Z" fill="#262626"/>
<path d="M52.7683 62.2579C52.7356 62.5103 52.7336 62.7727 52.6519 63.0088C52.6294 63.0674 52.3537 63.0411 52.1943 63.0532C52.2515 62.7666 52.3067 62.48 52.3618 62.1934C52.4966 62.2156 52.6335 62.2357 52.7683 62.2579Z" fill="#262626"/>
<path d="M68.8251 137.622C68.8517 137.896 68.8782 138.169 68.9048 138.443C71.8298 138.116 74.7547 137.789 77.6817 137.46C77.6715 137.369 77.6633 137.278 77.6552 137.188C74.7118 137.333 71.7685 137.476 68.8251 137.622ZM97.317 135.867C98.5119 136.748 107.15 137.046 109.005 135.867H97.317ZM109.34 132.589C109.335 132.527 109.329 132.462 109.325 132.398C107.113 132.398 104.901 132.396 102.691 132.402C102.572 132.402 102.368 132.45 102.348 132.519C101.903 133.99 100.681 133.443 99.7068 133.516C97.2782 133.698 94.8475 133.865 92.4168 134.039C94.296 134.485 96.1956 134.749 98.1034 134.903C98.8836 134.965 99.6904 134.689 100.473 134.741C102.626 134.886 104.77 135.157 106.923 135.29C107.279 135.31 107.661 134.878 108.028 134.656C107.622 134.485 107.217 134.18 106.807 134.174C106.024 134.16 105.24 134.315 104.454 134.402C104.425 134.212 104.397 134.025 104.368 133.837C106.024 133.421 107.683 133.005 109.34 132.589ZM89.8636 132.898C85.4864 133.136 81.1071 133.375 76.7299 133.611C76.736 133.877 76.7401 134.144 76.7462 134.412C78.6233 134.523 80.5005 134.636 82.3776 134.749C82.3756 134.808 82.3735 134.864 82.3715 134.923C81.3053 135.153 80.239 135.385 79.1728 135.615C79.1912 135.807 79.2116 135.999 79.23 136.19C80.8314 136.092 82.5451 136.318 84.0055 135.817C86.0685 135.109 87.9416 133.863 89.8963 132.846C89.8371 133.413 89.7799 133.978 89.6634 135.115C90.5663 134.448 90.985 134.085 91.4548 133.803C92.9336 132.912 94.3368 131.659 95.9484 131.28C98.0707 130.781 100.36 130.985 102.577 130.878C103.808 130.819 105.038 130.747 106.268 130.68C106.261 130.5 106.257 130.319 106.251 130.137H89.0343C89.7574 132.174 91.6754 130.642 92.7048 131.673C91.7081 132.101 90.793 132.493 89.8636 132.898ZM32.6328 130.502C34.2791 129.205 35.856 127.798 37.6024 126.647C38.5951 125.993 39.8615 125.737 41.0217 125.349C41.1871 125.293 41.614 125.466 41.6324 125.581C41.9735 127.654 43.7648 127.465 45.0741 127.455C49.7169 127.414 54.3576 127.085 59.0004 126.988C63.2714 126.899 67.5444 126.97 71.8665 127.374C71.0352 127.457 70.2039 127.541 69.3725 127.624C69.3725 127.782 69.3705 127.939 69.3705 128.096C74.242 128.276 79.1115 128.524 83.9851 128.615C90.1373 128.728 96.2936 128.643 102.444 128.779C106.698 128.874 110.945 129.293 115.198 129.36C116.748 129.384 118.492 129.725 119.718 127.866C120.139 127.228 121.942 127.368 123.115 127.356C125.184 127.331 127.257 127.394 129.318 127.553C130.735 127.664 132.137 128.002 133.669 128.258C133.732 127.624 133.795 126.988 133.83 126.631C135.004 126.492 136.056 126.367 137.384 126.209C136.82 127.786 138.955 129.293 137.435 131.106C137.272 131.3 137.656 131.954 137.809 132.386C137.946 132.767 138.115 133.136 138.369 133.746C136.514 133.195 135.695 133.865 134.745 136.318C135.209 136.517 135.676 136.717 136.634 137.129C135.421 137.214 134.761 137.26 133.634 137.341C133.854 138.179 134.055 138.929 134.312 139.894H131.434C131.377 140.044 131.32 140.191 131.262 140.338C131.838 140.766 132.414 141.196 132.99 141.624C128.609 141.929 124.277 141.891 120.002 140.365C119.955 140.015 119.881 139.479 119.802 138.905C118.75 138.709 117.734 138.487 116.709 138.338C114.448 138.007 112.189 137.622 109.913 137.446C108.804 137.361 107.659 137.837 106.535 137.813C104.478 137.769 102.427 137.517 100.371 137.397C98.712 137.303 97.0473 137.21 95.3888 137.24C93.3748 137.276 91.367 137.511 89.353 137.543C86.6486 137.585 83.9381 137.573 81.2358 137.474C80.0246 137.43 79.0421 137.363 78.5723 138.825C78.4661 139.158 77.3815 139.367 76.7667 139.329C69.3317 138.851 62.0009 139.902 54.6538 140.748C51.4163 141.122 48.1849 141.737 44.9393 141.82C42.5822 141.88 40.4293 141.182 38.3847 139.444C37.0346 138.296 35.7498 137.181 34.7979 135.748C33.9421 134.459 33.3436 133.003 32.6328 131.623V130.502Z" fill="#262626"/>
<path d="M80.2141 124.905C80.6492 126.754 80.065 127.416 78.1062 126.958C78.5862 126.227 79.0233 125.567 79.4584 124.905H80.2141Z" fill="#262626"/>
<path d="M84.4536 138.577H91.9539V139.12H84.5271C84.5026 138.939 84.4781 138.759 84.4536 138.577Z" fill="#262626"/>
<path d="M63.123 147.329C64.1627 146.32 64.9266 145.577 65.9438 144.59C66.1726 146.968 65.4924 147.66 63.123 147.329Z" fill="#262626"/>
<path d="M83.4434 137.922C83.2759 138.441 83.1472 138.836 82.9777 139.357C81.938 139.256 80.7635 139.141 79.589 139.028C79.587 138.911 79.587 138.794 79.585 138.677C80.8411 138.431 82.0973 138.187 83.4434 137.922Z" fill="#262626"/>
</svg>
