<svg height="243" viewBox="0 0 244 243" width="244" xmlns="http://www.w3.org/2000/svg"><path d="m1082.5675 502.01h-35.99v-56.374c0-13.452-.26-30.744-18.72-30.744-18.75 0-21.61 14.647-21.61 29.768v57.35h-36.030001v-115.929h34.570001v15.833h.49c4.81-9.111 16.57-18.724 34.1-18.724 36.46 0 43.19 24.005 43.19 55.232zm-152.970001-131.78c-11.54 0-20.88-9.362-20.88-20.898 0-11.524 9.34-20.886 20.88-20.886 11.52 0 20.89 9.362 20.89 20.886 0 11.536-9.37 20.898-20.89 20.898zm-18.02 131.78h36.05v-115.929h-36.05zm188.930001-207.01h-207.000001c-9.9 0-17.93 7.847-17.93 17.503v207.897c0 9.674 8.03 17.529 17.93 17.529h207.000001c9.91 0 18-7.855 18-17.529v-207.897c0-9.656-8.09-17.503-18-17.503z" fill="#fff" fill-rule="evenodd" transform="translate(-875 -295)"/></svg>