<?xml version="1.0" encoding="UTF-8" standalone="no"?>
<svg width="307px" height="250px" viewBox="0 0 307 250" version="1.1" xmlns="http://www.w3.org/2000/svg" xmlns:xlink="http://www.w3.org/1999/xlink">
    <!-- Generator: Sketch 39.1 (31720) - http://www.bohemiancoding.com/sketch -->
    <title>twitter</title>
    <desc>Created with Sketch.</desc>
    <defs></defs>
    <g id="Page-1" stroke="none" stroke-width="1" fill="none" fill-rule="evenodd">
        <g id="Artboard" transform="translate(-536.000000, -291.000000)" fill="#FFFFFF">
            <path d="M842.117082,320.975 C830.859791,325.967708 818.761874,329.342708 806.063957,330.859375 C819.024374,323.090625 828.977499,310.788542 833.664999,296.130208 C821.535832,303.323958 808.101457,308.547917 793.802499,311.363542 C782.352499,299.163542 766.037916,291.539583 747.983749,291.539583 C713.314999,291.539583 685.208749,319.645833 685.208749,354.311458 C685.208749,359.232292 685.763957,364.022917 686.833749,368.616667 C634.663957,366 588.409791,341.008333 557.448332,303.030208 C552.045207,312.301042 548.949374,323.084375 548.949374,334.588542 C548.949374,356.366667 560.031666,375.580208 576.875416,386.8375 C566.585832,386.511458 556.906666,383.6875 548.443124,378.985417 C548.437916,379.247917 548.436874,379.510417 548.436874,379.775 C548.436874,410.189583 570.075416,435.561458 598.792082,441.328125 C593.524374,442.761458 587.978541,443.529167 582.253541,443.529167 C578.208749,443.529167 574.276457,443.135417 570.443124,442.403125 C578.431666,467.341667 601.613957,485.490625 629.082707,485.997917 C607.599374,502.833333 580.532707,512.86875 551.122291,512.86875 C546.055624,512.86875 541.058749,512.571875 536.148332,511.992708 C563.928541,529.803125 596.924374,540.194792 632.373332,540.194792 C747.836874,540.194792 810.976457,444.542708 810.976457,361.590625 C810.976457,358.869792 810.914999,356.1625 810.795207,353.469792 C823.058749,344.619792 833.701457,333.563542 842.117082,320.975" id="twitter"></path>
        </g>
    </g>
</svg>