<?xml version="1.0" encoding="UTF-8"?>
<svg width="29px" height="39px" viewBox="0 0 29 39" version="1.1" xmlns="http://www.w3.org/2000/svg" xmlns:xlink="http://www.w3.org/1999/xlink">
    <!-- Generator: Sketch 50.2 (55047) - http://www.bohemiancoding.com/sketch -->
    <title>cart-icon</title>
    <desc>Created with Sketch.</desc>
    <defs>
        <path d="M2.22070312,6.07910156 C1.82812304,6.07910156 1.47802888,5.99609458 1.17041016,5.83007812 C0.862791431,5.66406167 0.623047734,5.42871246 0.451171875,5.12402344 C0.279296016,4.81933441 0.193359375,4.46777543 0.193359375,4.06933594 C0.193359375,3.67675585 0.278319463,3.3286148 0.448242188,3.02490234 C0.618164912,2.72118989 0.855955503,2.48632896 1.16162109,2.3203125 C1.46728668,2.15429604 1.8203105,2.07128906 2.22070312,2.07128906 C2.55273604,2.07128906 2.85742049,2.12988223 3.13476562,2.24707031 C3.41211076,2.3642584 3.64013583,2.53222547 3.81884766,2.75097656 C3.99755949,2.96972766 4.10644512,3.22460792 4.14550781,3.515625 L3.17285156,3.515625 C3.12792946,3.32812406 3.01806728,3.17627011 2.84326172,3.06005859 C2.66845616,2.94384708 2.45703249,2.88574219 2.20898438,2.88574219 C1.8730452,2.88574219 1.60693458,2.99365126 1.41064453,3.20947266 C1.21435449,3.42529405 1.11621094,3.71581849 1.11621094,4.08105469 C1.11621094,4.44824402 1.21630759,4.73779191 1.41650391,4.94970703 C1.61670022,5.16162215 1.88085773,5.26757812 2.20898438,5.26757812 C2.44921995,5.26757812 2.65722568,5.20849668 2.83300781,5.09033203 C3.00878994,4.97216738 3.12207006,4.81738377 3.17285156,4.62597656 L4.14550781,4.62597656 C4.11035139,4.9091811 4.0068368,5.16113171 3.83496094,5.38183594 C3.66308508,5.60254017 3.43701312,5.77392517 3.15673828,5.89599609 C2.87646344,6.01806702 2.56445484,6.07910156 2.22070312,6.07910156 Z M5.65136719,2.15332031 L6.49804688,2.15332031 L7.92480469,6 L6.99609375,6 L6.71191406,5.20898438 L5.41699219,5.20898438 L5.12988281,6 L4.21582031,6 L5.65136719,2.15332031 Z M6.45996094,4.4765625 L6.31054688,4.06054688 C6.27539045,3.95312446 6.22363315,3.79199326 6.15527344,3.57714844 L6.07617188,3.33691406 C6.06445307,3.3896487 6.03369166,3.4868157 5.98388672,3.62841797 C5.93408178,3.77002024 5.88085966,3.91406177 5.82421875,4.06054688 L5.66894531,4.4765625 L6.45996094,4.4765625 Z M8.38476562,2.15332031 L9.93457031,2.15332031 C10.4423854,2.15332031 10.8232409,2.25927628 11.0771484,2.47119141 C11.331056,2.68310653 11.4580078,2.99316202 11.4580078,3.40136719 C11.4580078,3.66504038 11.401856,3.89013579 11.2895508,4.07666016 C11.1772455,4.26318453 11.0136729,4.4062495 10.7988281,4.50585938 L11.4990234,6 L10.5146484,6 L9.92285156,4.65527344 L9.26074219,4.65527344 L9.26074219,6 L8.38476562,6 L8.38476562,2.15332031 Z M9.92871094,3.90527344 C10.131837,3.90527344 10.2832026,3.85839891 10.3828125,3.76464844 C10.4824224,3.67089797 10.5322266,3.55175854 10.5322266,3.40722656 C10.5322266,3.26660086 10.4843755,3.14941453 10.3886719,3.05566406 C10.2929683,2.96191359 10.1416026,2.91503906 9.93457031,2.91503906 L9.26074219,2.91503906 L9.26074219,3.90527344 L9.92871094,3.90527344 Z M14.9648438,2.94726562 L13.8193359,2.94726562 L13.8193359,6 L12.9433594,6 L12.9433594,2.94726562 L11.7861328,2.94726562 L11.7861328,2.15332031 L14.9648438,2.15332031 L14.9648438,2.94726562 Z" id="path-1"></path>
        <linearGradient x1="100%" y1="50%" x2="0%" y2="50%" id="linearGradient-2">
            <stop stop-color="#00F2FE" offset="0%"></stop>
            <stop stop-color="#4FACFE" offset="100%"></stop>
        </linearGradient>
    </defs>
    <g id="Page-1" stroke="none" stroke-width="1" fill="none" fill-rule="evenodd">
        <g id="cart-icon">
            <g id="CART" transform="translate(8.000000, 32.000000)">
                <g>
                    <use fill="#000000" xlink:href="#path-1"></use>
                    <use fill="#3AB6FF" xlink:href="#path-1"></use>
                </g>
            </g>
            <g id="Group-2" fill-rule="nonzero">
                <circle id="Oval-4" fill="url(#linearGradient-2)" cx="14.5" cy="14.5" r="14.5"></circle>
                <g id="Group" transform="translate(4.000000, 7.000000)" fill="#FFFFFF">
                    <path d="M0.633338303,0 C0.283545558,0 0,0.268629966 0,0.599999925 C0,0.931369884 0.283545558,1.19999985 0.633338303,1.19999985 L2.73787922,1.19999985 C3.78609633,3.65949754 4.81858555,6.12349723 5.85837926,8.58750093 L4.90178509,10.7687407 C4.82164668,10.9506006 4.84419352,11.1698806 4.95986221,11.3336606 C5.07555201,11.4974406 5.28092251,11.6008205 5.48893192,11.6000005 L16.0445703,11.6000005 C16.3791629,11.6044005 16.6869231,11.3170206 16.6869231,11.0000006 C16.6869231,10.6829807 16.3791629,10.3955207 16.0445703,10.4000007 L6.43893937,10.4000007 L6.98652367,9.16250085 L17.1529123,8.39374095 C17.41902,8.37394095 17.6598996,8.17756098 17.7202779,7.93124101 L18.9869545,2.73124966 C19.0697951,2.3810037 18.7456737,1.99882975 18.3668107,1.99999975 L4.4399548,1.99999975 L3.7538383,0.374999953 C3.65989312,0.155035981 3.41715566,5.99999926e-06 3.16669147,0 L0.633338303,0 Z M4.94795545,3.1999996 L8.8667362,3.1999996 L8.8667362,4.99999938 L5.7066314,4.99999938 L4.94795545,3.1999996 Z M10.1334128,3.1999996 L12.666766,3.1999996 L12.666766,4.99999938 L10.1334128,4.99999938 L10.1334128,3.1999996 Z M13.9334426,3.1999996 L17.5685511,3.1999996 L17.13311,4.99999938 L13.9334426,4.99999938 L13.9334426,3.1999996 Z M6.21463206,6.19999923 L8.8667362,6.19999923 L8.8667362,7.81874102 L6.96013457,7.962501 L6.21463206,6.19999923 Z M10.1334128,6.19999923 L12.666766,6.19999923 L12.666766,7.53124106 L10.1334128,7.72500103 L10.1334128,6.19999923 Z M13.9334426,6.19999923 L16.8362432,6.19999923 L16.5855468,7.2374991 L13.9334426,7.43749907 L13.9334426,6.19999923 Z M7.60005959,12.0000005 C6.4416205,12.0000005 5.48893192,12.9025204 5.48893192,14.0000002 C5.48893192,15.0974601 6.4416205,16 7.60005959,16 C8.75849868,16 9.71118727,15.0974601 9.71118727,14.0000002 C9.71118727,12.9025404 8.75849868,12.0000005 7.60005959,12.0000005 Z M13.9334426,12.0000005 C12.7750035,12.0000005 11.8223149,12.9025404 11.8223149,14.0000002 C11.8223149,15.0974601 12.7750035,16 13.9334426,16 C15.0918817,16 16.0445703,15.0974601 16.0445703,14.0000002 C16.0445703,12.9025204 15.0918817,12.0000005 13.9334426,12.0000005 Z M7.60005959,13.2000003 C8.07394442,13.2000003 8.44451066,13.5510603 8.44451066,14.0000002 C8.44451066,14.4489402 8.07394442,14.8000002 7.60005959,14.8000002 C7.12621699,14.8000002 6.75560852,14.4489202 6.75560852,14.0000002 C6.75560852,13.5510803 7.12621699,13.2000003 7.60005959,13.2000003 Z M13.9334426,13.2000003 C14.4072852,13.2000003 14.7778937,13.5510803 14.7778937,14.0000002 C14.7778937,14.4489202 14.4072852,14.8000002 13.9334426,14.8000002 C13.4595578,14.8000002 13.0889916,14.4489402 13.0889916,14.0000002 C13.0889916,13.5510603 13.4595578,13.2000003 13.9334426,13.2000003 Z" id="Shape"></path>
                </g>
            </g>
        </g>
    </g>
</svg>