<svg height="39" viewBox="0 0 36 39" width="36" xmlns="http://www.w3.org/2000/svg"><g fill="none" fill-rule="evenodd" transform=""><circle cx="18.5" cy="14.5" fill="#fff" r="14.5"/><text fill="#fff" font-family="Gelion-Bold, Gelion" font-size="6" font-weight="bold"><tspan x="0" y="38">CLOSE MENU</tspan></text><g fill="#3ab6ff"><path d="m12 14h13c.5522847 0 1 .4477153 1 1s-.4477153 1-1 1h-13c-.5522847 0-1-.4477153-1-1s.4477153-1 1-1z" transform="matrix(.70710678 -.70710678 .70710678 .70710678 -5.188077 17.474874)"/><path d="m12 14h13c.5522847 0 1 .4477153 1 1s-.4477153 1-1 1h-13c-.5522847 0-1-.4477153-1-1s.4477153-1 1-1z" transform="matrix(.70710678 .70710678 -.70710678 .70710678 16.025126 -8.688077)"/></g></g></svg>