<?xml version="1.0" encoding="UTF-8"?>
<svg width="29px" height="39px" viewBox="0 0 29 39" version="1.1" xmlns="http://www.w3.org/2000/svg" xmlns:xlink="http://www.w3.org/1999/xlink">
    <!-- Generator: Sketch 50.2 (55047) - http://www.bohemiancoding.com/sketch -->
    <title>menu-icon</title>
    <desc>Created with Sketch.</desc>
    <defs>
        <linearGradient x1="100%" y1="50%" x2="0%" y2="50%" id="linearGradient-1">
            <stop stop-color="#00F2FE" offset="0%"></stop>
            <stop stop-color="#4FACFE" offset="100%"></stop>
        </linearGradient>
        <path d="M4.30078125,2.15332031 L4.30078125,6 L3.45117188,6 L3.45117188,5.51953125 C3.45117188,4.98827859 3.47265604,4.51465052 3.515625,4.09863281 L2.70117188,5.89160156 L1.92480469,5.89160156 L1.17480469,4.14550781 C1.22363306,4.65722912 1.24804688,5.11523235 1.24804688,5.51953125 L1.24804688,6 L0.413085938,6 L0.413085938,2.15332031 L1.18066406,2.15332031 L2.34082031,4.92480469 L3.52734375,2.15332031 L4.30078125,2.15332031 Z M5.99707031,2.94726562 L5.99707031,3.67675781 L7.47949219,3.67675781 L7.47949219,4.44140625 L5.99707031,4.44140625 L5.99707031,5.20898438 L7.66113281,5.20898438 L7.66113281,6 L5.12109375,6 L5.12109375,2.15332031 L7.66113281,2.15332031 L7.66113281,2.94726562 L5.99707031,2.94726562 Z M11.6367188,2.15332031 L11.6367188,6 L10.8222656,6 L9.24316406,3.67089844 L9.24316406,6 L8.37890625,6 L8.37890625,2.15332031 L9.19628906,2.15332031 L10.7666016,4.48828125 L10.7666016,2.15332031 L11.6367188,2.15332031 Z M12.4277344,2.15332031 L13.3037109,2.15332031 L13.3037109,4.52929688 C13.3076172,4.78515753 13.3818352,4.97607359 13.5263672,5.10205078 C13.6708992,5.22802797 13.8623035,5.29101562 14.1005859,5.29101562 C14.3603529,5.29101562 14.5605462,5.22412176 14.7011719,5.09033203 C14.8417976,4.9565423 14.9121094,4.76953245 14.9121094,4.52929688 L14.9121094,2.15332031 L15.7880859,2.15332031 L15.7880859,4.56738281 C15.7880859,5.04785396 15.6352554,5.41992056 15.3295898,5.68359375 C15.0239243,5.94726694 14.6142604,6.07910156 14.1005859,6.07910156 C13.5849584,6.07910156 13.1772476,5.94384901 12.8774414,5.67333984 C12.5776352,5.40283068 12.4277344,5.03418202 12.4277344,4.56738281 L12.4277344,2.15332031 Z" id="path-2"></path>
    </defs>
    <g id="Page-1" stroke="none" stroke-width="1" fill="none" fill-rule="evenodd">
        <g id="menu-icon">
            <circle id="Oval" fill="url(#linearGradient-1)" fill-rule="nonzero" cx="14.5" cy="14.5" r="14.5"></circle>
            <g id="Group" transform="translate(6.000000, 32.000000)">
                <g id="MENU">
                    <use fill="#000000" xlink:href="#path-2"></use>
                    <use fill="#3AB6FF" xlink:href="#path-2"></use>
                </g>
            </g>
            <g id="Group" transform="translate(7.000000, 9.000000)" fill="#FFFFFF" fill-rule="nonzero">
                <rect id="Rectangle-path" x="0" y="0" width="15" height="2" rx="1"></rect>
                <rect id="Rectangle-path" x="0" y="5" width="15" height="2" rx="1"></rect>
                <rect id="Rectangle-path" x="0" y="10" width="15" height="2" rx="1"></rect>
            </g>
        </g>
    </g>
</svg>