<?xml version="1.0" encoding="UTF-8"?>
<svg width="40px" height="39px" viewBox="0 0 40 39" version="1.1" xmlns="http://www.w3.org/2000/svg" xmlns:xlink="http://www.w3.org/1999/xlink">
    <!-- Generator: Sketch 50.2 (55047) - http://www.bohemiancoding.com/sketch -->
    <title>phone-icon</title>
    <desc>Created with Sketch.</desc>
    <defs>
        <linearGradient x1="100%" y1="50%" x2="0%" y2="50%" id="linearGradient-1">
            <stop stop-color="#00F2FE" offset="0%"></stop>
            <stop stop-color="#4FACFE" offset="100%"></stop>
        </linearGradient>
        <path d="M1.83691406,35.4130859 C2.09668099,35.4130859 2.32763571,35.4692377 2.52978516,35.581543 C2.7319346,35.6938482 2.88964787,35.8491201 3.00292969,36.0473633 C3.1162115,36.2456065 3.17285156,36.4687488 3.17285156,36.7167969 C3.17285156,36.9765638 3.10693425,37.2084951 2.97509766,37.4125977 C2.84326106,37.6167002 2.66455191,37.7744135 2.43896484,37.8857422 C2.21337778,37.9970709 1.95996234,38.0527344 1.67871094,38.0527344 C1.40331894,38.0527344 1.15673937,37.9980474 0.938964844,37.8886719 C0.721190317,37.7792963 0.550293589,37.6245127 0.426269531,37.4243164 C0.302245474,37.2241201 0.240234375,36.9941419 0.240234375,36.734375 L1.08105469,36.734375 C1.08105469,36.9023446 1.13671819,37.039062 1.24804688,37.1445312 C1.35937556,37.2500005 1.5009757,37.3027344 1.67285156,37.3027344 C1.85253996,37.3027344 2.00341736,37.2470709 2.12548828,37.1357422 C2.2475592,37.0244135 2.30859375,36.8808603 2.30859375,36.7050781 C2.30859375,36.5332023 2.25097714,36.3920904 2.13574219,36.2817383 C2.02050724,36.1713862 1.86816501,36.1162109 1.67871094,36.1162109 C1.56347599,36.1162109 1.45605519,36.1391599 1.35644531,36.1850586 C1.25683544,36.2309573 1.17675812,36.2900387 1.11621094,36.3623047 L0.298828125,36.2773438 L0.796875,34.1533203 L2.91503906,34.1533203 L2.91503906,34.8857422 L1.44726562,34.8857422 L1.27734375,35.5214844 C1.42187572,35.4492184 1.60839729,35.4130859 1.83691406,35.4130859 Z M3.60644531,34.8388672 C3.96191584,34.8388672 4.22363197,34.7817389 4.39160156,34.6674805 C4.55957115,34.5532221 4.66699195,34.3818371 4.71386719,34.1533203 L5.47851562,34.1533203 L5.47851562,38 L4.62011719,38 L4.62011719,35.4863281 L3.60644531,35.4863281 L3.60644531,34.8388672 Z M7.59960938,38.0673828 C7.28320154,38.0673828 7.0092785,37.9873055 6.77783203,37.8271484 C6.54638556,37.6669914 6.36962952,37.4365249 6.24755859,37.1357422 C6.12548767,36.8349594 6.06445312,36.4834004 6.06445312,36.0810547 C6.06445312,35.6728495 6.12548767,35.3173843 6.24755859,35.0146484 C6.36962952,34.7119125 6.54540901,34.4799813 6.77490234,34.3188477 C7.00439568,34.157714 7.27929527,34.0771484 7.59960938,34.0771484 C7.91601721,34.0771484 8.1909168,34.157714 8.42431641,34.3188477 C8.65771601,34.4799813 8.83740171,34.7119125 8.96337891,35.0146484 C9.0893561,35.3173843 9.15234375,35.6728495 9.15234375,36.0810547 C9.15234375,36.4853536 9.0893561,36.8374008 8.96337891,37.137207 C8.83740171,37.4370132 8.65771601,37.6669914 8.42431641,37.8271484 C8.1909168,37.9873055 7.91601721,38.0673828 7.59960938,38.0673828 Z M7.60546875,37.3085938 C7.83007925,37.3085938 7.99902287,37.2026378 8.11230469,36.9907227 C8.2255865,36.7788075 8.28222656,36.4755879 8.28222656,36.0810547 C8.28222656,35.6845683 8.2255865,35.3793956 8.11230469,35.1655273 C7.99902287,34.9516591 7.83007925,34.8447266 7.60546875,34.8447266 C7.38476452,34.8447266 7.21630917,34.9506825 7.10009766,35.1625977 C6.98388614,35.3745128 6.92578125,35.6806621 6.92578125,36.0810547 C6.92578125,36.4736348 6.98388614,36.7763661 7.10009766,36.9892578 C7.21630917,37.2021495 7.38476452,37.3085938 7.60546875,37.3085938 Z M12.4804688,36.1806641 L12.4804688,36.9189453 L9.81445312,36.9189453 L9.81445312,36.1806641 L12.4804688,36.1806641 Z M14.9208984,35.6240234 C15.2236343,35.6689455 15.4653311,35.7954091 15.6459961,36.003418 C15.8266611,36.2114268 15.9169922,36.4667954 15.9169922,36.7695312 C15.9169922,37.0214856 15.8549811,37.2446279 15.730957,37.4389648 C15.606933,37.6333018 15.4345714,37.7851557 15.2138672,37.8945312 C14.993163,38.0039068 14.7431655,38.0585938 14.4638672,38.0585938 C14.1884752,38.0585938 13.9414073,38.0048833 13.7226562,37.8974609 C13.5039052,37.7900385 13.3349615,37.6362315 13.2158203,37.4360352 C13.0966791,37.2358388 13.0390625,37.0039076 13.0429687,36.7402344 L13.8808594,36.7402344 C13.8808594,36.908204 13.9360346,37.0449213 14.0463867,37.1503906 C14.1567388,37.2558599 14.2998038,37.3085938 14.4755859,37.3085938 C14.6474618,37.3085938 14.7875971,37.2587896 14.8959961,37.1591797 C15.0043951,37.0595698 15.0585937,36.923829 15.0585937,36.7519531 C15.0585937,36.5878898 15.0053716,36.4589848 14.8989258,36.3652344 C14.7924799,36.2714839 14.6513681,36.2207032 14.4755859,36.2128906 C14.4267576,36.2089844 14.2910167,36.2070312 14.0683594,36.2070312 L13.8398437,36.2070312 L13.8398437,35.6474609 L14.6191406,34.8857422 L13.2568359,34.8857422 L13.2568359,34.1533203 L15.7060547,34.1533203 L15.7060547,34.8447266 L14.9208984,35.6240234 Z M17.9501953,35.4130859 C18.2099622,35.4130859 18.440917,35.4692377 18.6430664,35.581543 C18.8452159,35.6938482 19.0029291,35.8491201 19.1162109,36.0473633 C19.2294928,36.2456065 19.2861328,36.4687488 19.2861328,36.7167969 C19.2861328,36.9765638 19.2202155,37.2084951 19.0883789,37.4125977 C18.9565423,37.6167002 18.7778332,37.7744135 18.5522461,37.8857422 C18.326659,37.9970709 18.0732436,38.0527344 17.7919922,38.0527344 C17.5166002,38.0527344 17.2700206,37.9980474 17.0522461,37.8886719 C16.8344716,37.7792963 16.6635748,37.6245127 16.5395508,37.4243164 C16.4155267,37.2241201 16.3535156,36.9941419 16.3535156,36.734375 L17.1943359,36.734375 C17.1943359,36.9023446 17.2499994,37.039062 17.3613281,37.1445312 C17.4726568,37.2500005 17.614257,37.3027344 17.7861328,37.3027344 C17.9658212,37.3027344 18.1166986,37.2470709 18.2387695,37.1357422 C18.3608405,37.0244135 18.421875,36.8808603 18.421875,36.7050781 C18.421875,36.5332023 18.3642584,36.3920904 18.2490234,36.2817383 C18.1337885,36.1713862 17.9814463,36.1162109 17.7919922,36.1162109 C17.6767572,36.1162109 17.5693364,36.1391599 17.4697266,36.1850586 C17.3701167,36.2309573 17.2900394,36.2900387 17.2294922,36.3623047 L16.4121094,36.2773438 L16.9101562,34.1533203 L19.0283203,34.1533203 L19.0283203,34.8857422 L17.5605469,34.8857422 L17.390625,35.5214844 C17.535157,35.4492184 17.7216785,35.4130859 17.9501953,35.4130859 Z M21.3574219,35.3955078 C21.6171888,35.3955078 21.8530263,35.4497065 22.0649414,35.5581055 C22.2768565,35.6665044 22.443847,35.8183584 22.565918,36.0136719 C22.6879889,36.2089854 22.7490234,36.4355456 22.7490234,36.6933594 C22.7490234,36.9531263 22.6840827,37.1870107 22.5541992,37.3950195 C22.4243158,37.6030284 22.2421887,37.7656244 22.0078125,37.8828125 C21.7734363,38.0000006 21.5068374,38.0585938 21.2080078,38.0585938 C20.9072251,38.0585938 20.6450206,38.0000006 20.4213867,37.8828125 C20.1977528,37.7656244 20.0268561,37.6049815 19.9086914,37.4008789 C19.7905268,37.1967763 19.7314453,36.9707044 19.7314453,36.7226562 C19.7314453,36.4785144 19.7812495,36.2524424 19.8808594,36.0444336 C19.9804692,35.8364247 20.1181632,35.6064466 20.2939453,35.3544922 L21.140625,34.1533203 L22.0722656,34.1533203 L21.1699219,35.4072266 C21.2500004,35.399414 21.3124998,35.3955078 21.3574219,35.3955078 Z M21.2373047,37.3027344 C21.4169931,37.3027344 21.5698236,37.249024 21.6958008,37.1416016 C21.821778,37.0341792 21.8847656,36.8906259 21.8847656,36.7109375 C21.8847656,36.5312491 21.8227545,36.3881841 21.6987305,36.2817383 C21.5747064,36.1752924 21.4248056,36.1220703 21.2490234,36.1220703 C21.0654288,36.1220703 20.9106452,36.1752924 20.784668,36.2817383 C20.6586908,36.3881841 20.5957031,36.5312491 20.5957031,36.7109375 C20.5957031,36.8945322 20.6577142,37.039062 20.7817383,37.1445312 C20.9057623,37.2500005 21.0576163,37.3027344 21.2373047,37.3027344 Z M26.1005859,36.1806641 L26.1005859,36.9189453 L23.4345703,36.9189453 L23.4345703,36.1806641 L26.1005859,36.1806641 Z M29.0507812,35.9492188 C29.2265634,36.0234379 29.363769,36.1416008 29.4624023,36.3037109 C29.5610356,36.4658211 29.6103516,36.6513661 29.6103516,36.8603516 C29.6103516,37.1044934 29.5483405,37.3173819 29.4243164,37.4990234 C29.3002923,37.680665 29.1279308,37.8183589 28.9072266,37.9121094 C28.6865223,38.0058598 28.440431,38.0527344 28.1689453,38.0527344 C27.889647,38.0527344 27.6411144,38.0048833 27.4233398,37.9091797 C27.2055653,37.8134761 27.0346686,37.6757821 26.9106445,37.4960938 C26.7866205,37.3164054 26.7246094,37.1044934 26.7246094,36.8603516 C26.7246094,36.6474599 26.773437,36.4609383 26.8710938,36.3007812 C26.9687505,36.1406242 27.1015617,36.0214848 27.2695312,35.9433594 C27.1464838,35.8593746 27.0458988,35.7451179 26.9677734,35.6005859 C26.889648,35.456054 26.8505859,35.3037117 26.8505859,35.1435547 C26.8505859,34.9404287 26.9062494,34.7578133 27.0175781,34.5957031 C27.1289068,34.4335929 27.284667,34.3066411 27.4848633,34.2148438 C27.6850596,34.1230464 27.9130847,34.0771484 28.1689453,34.0771484 C28.424806,34.0771484 28.6538076,34.124023 28.855957,34.2177734 C29.0581065,34.3115239 29.2153315,34.4394523 29.3276367,34.6015625 C29.439942,34.7636727 29.4960938,34.946288 29.4960938,35.1494141 C29.4960938,35.3212899 29.4550785,35.4775384 29.3730469,35.6181641 C29.2910152,35.7587898 29.1835944,35.8691402 29.0507812,35.9492188 Z M28.1630859,34.8212891 C28.0224602,34.8212891 27.9082036,34.8588863 27.8203125,34.934082 C27.7324214,35.0092777 27.6884766,35.1054682 27.6884766,35.2226562 C27.6884766,35.3457037 27.7358394,35.4453121 27.8305664,35.5214844 C27.9252934,35.5976566 28.0380853,35.6357422 28.1689453,35.6357422 C28.2978522,35.6357422 28.4101558,35.5966801 28.5058594,35.5185547 C28.601563,35.4404293 28.6494141,35.3417975 28.6494141,35.2226562 C28.6494141,35.1074213 28.6044926,35.0117191 28.5146484,34.9355469 C28.4248042,34.8593746 28.3076179,34.8212891 28.1630859,34.8212891 Z M28.1630859,37.3027344 C28.3349618,37.3027344 28.4741206,37.2578129 28.5805664,37.1679688 C28.6870123,37.0781246 28.7402344,36.9619148 28.7402344,36.8193359 C28.7402344,36.674804 28.6870123,36.5595707 28.5805664,36.4736328 C28.4741206,36.3876949 28.3369149,36.3447266 28.1689453,36.3447266 C27.9970695,36.3447266 27.8569341,36.3886714 27.7485352,36.4765625 C27.6401362,36.5644536 27.5859375,36.6787102 27.5859375,36.8193359 C27.5859375,36.9638679 27.6401362,37.080566 27.7485352,37.1694336 C27.8569341,37.2583012 27.9951163,37.3027344 28.1630859,37.3027344 Z M32.5371094,34.1533203 L32.5371094,34.8154297 L31.0722656,38 L30.1611328,38 L31.59375,34.8857422 L29.8916016,34.8857422 L29.8916016,34.1533203 L32.5371094,34.1533203 Z M34.3037109,37.2382812 L35.5693359,37.2382812 L35.5693359,38 L33.0380859,38 L33.0380859,37.3935547 L34.4121094,35.9609375 C34.5117192,35.8535151 34.5898435,35.7514653 34.6464844,35.6547852 C34.7031253,35.558105 34.7314453,35.4482428 34.7314453,35.3251953 C34.7314453,35.1767571 34.6870122,35.0605473 34.5981445,34.9765625 C34.5092769,34.8925777 34.3896492,34.8505859 34.2392578,34.8505859 C34.0712882,34.8505859 33.9409184,34.9013667 33.8481445,35.0029297 C33.7553706,35.1044927 33.7148437,35.2373039 33.7265625,35.4013672 L32.8945312,35.4013672 C32.8789062,35.1416003 32.9296869,34.9106455 33.046875,34.7084961 C33.1640631,34.5063466 33.3310536,34.3505865 33.5478516,34.2412109 C33.7646495,34.1318354 34.0107408,34.0771484 34.2861328,34.0771484 C34.5419935,34.0771484 34.769042,34.1259761 34.9672852,34.2236328 C35.1655283,34.3212896 35.3183588,34.4589835 35.4257812,34.6367188 C35.5332037,34.814454 35.5869141,35.0214832 35.5869141,35.2578125 C35.5869141,35.5058606 35.5371099,35.7177726 35.4375,35.8935547 C35.3378901,36.0693368 35.2099617,36.2431632 35.0537109,36.4150391 L34.3037109,37.2382812 Z M37.6640625,35.3955078 C37.9238294,35.3955078 38.1596669,35.4497065 38.371582,35.5581055 C38.5834972,35.6665044 38.7504877,35.8183584 38.8725586,36.0136719 C38.9946295,36.2089854 39.0556641,36.4355456 39.0556641,36.6933594 C39.0556641,36.9531263 38.9907233,37.1870107 38.8608398,37.3950195 C38.7309564,37.6030284 38.5488293,37.7656244 38.3144531,37.8828125 C38.080077,38.0000006 37.8134781,38.0585938 37.5146484,38.0585938 C37.2138657,38.0585938 36.9516613,38.0000006 36.7280273,37.8828125 C36.5043934,37.7656244 36.3334967,37.6049815 36.215332,37.4008789 C36.0971674,37.1967763 36.0380859,36.9707044 36.0380859,36.7226562 C36.0380859,36.4785144 36.0878901,36.2524424 36.1875,36.0444336 C36.2871099,35.8364247 36.4248038,35.6064466 36.6005859,35.3544922 L37.4472656,34.1533203 L38.3789062,34.1533203 L37.4765625,35.4072266 C37.556641,35.399414 37.6191404,35.3955078 37.6640625,35.3955078 Z M37.5439453,37.3027344 C37.7236337,37.3027344 37.8764642,37.249024 38.0024414,37.1416016 C38.1284186,37.0341792 38.1914062,36.8906259 38.1914062,36.7109375 C38.1914062,36.5312491 38.1293952,36.3881841 38.0053711,36.2817383 C37.881347,36.1752924 37.7314462,36.1220703 37.5556641,36.1220703 C37.3720694,36.1220703 37.2172858,36.1752924 37.0913086,36.2817383 C36.9653314,36.3881841 36.9023438,36.5312491 36.9023438,36.7109375 C36.9023438,36.8945322 36.9643548,37.039062 37.0883789,37.1445312 C37.212403,37.2500005 37.3642569,37.3027344 37.5439453,37.3027344 Z" id="path-2"></path>
    </defs>
    <g id="Page-1" stroke="none" stroke-width="1" fill="none" fill-rule="evenodd">
        <g id="phone-icon">
            <g id="Group" transform="translate(5.000000, 0.000000)" fill-rule="nonzero">
                <circle id="Oval" fill="url(#linearGradient-1)" cx="14.5" cy="14.5" r="14.5"></circle>
                <g transform="translate(7.000000, 9.000000)" fill="#FFFFFF" id="Rectangle-path">
                    <rect x="0" y="0" width="15" height="2" rx="1"></rect>
                    <rect x="0" y="5" width="15" height="2" rx="1"></rect>
                    <rect x="0" y="10" width="15" height="2" rx="1"></rect>
                </g>
            </g>
            <g id="Group">
                <circle id="Oval" fill="url(#linearGradient-1)" fill-rule="nonzero" cx="19.5" cy="14.5" r="14.5"></circle>
                <g id="510-356-8726">
                    <use fill="#000000" xlink:href="#path-2"></use>
                    <use fill="#3AB6FF" xlink:href="#path-2"></use>
                </g>
            </g>
            <path d="M25.941712,18.3646298 L25.8735291,18.1676085 C25.7218511,17.7101549 25.2246359,17.2375347 24.7610789,17.1091242 L23.0511615,16.644304 C22.5887601,16.5177712 21.9275882,16.687926 21.5904296,17.028669 L20.9672494,17.6450107 C18.7244365,17.0397912 16.9641042,15.2752655 16.3581143,13.0313308 L16.9739272,12.4131113 C17.3103636,12.0742461 17.4798096,11.4142823 17.3570226,10.9488844 L16.8892764,9.24343622 C16.7646115,8.77933824 16.2874756,8.27898487 15.8363417,8.12226333 L15.6410382,8.06029693 C15.1878819,7.90444205 14.5310437,8.0621747 14.1982187,8.40161767 L13.2667709,9.32692475 C13.10657,9.49144625 13.0008287,9.95857755 13.0008287,9.96117754 C12.9645704,12.8969981 14.1194905,15.7259302 16.1979133,17.8015878 C18.2701246,19.8736344 21.0858472,21.0254294 24.0089001,20.9995739 C24.0273904,20.9995739 24.5092933,20.8934077 24.6775837,20.7300418 L25.5997863,19.8054569 C25.941712,19.4671695 26.0922344,18.8176056 25.941712,18.3646298 Z" id="Shape" fill="#FFFFFF" fill-rule="nonzero"></path>
        </g>
    </g>
</svg>