<svg height="24" viewBox="0 0 24 24" width="24" xmlns="http://www.w3.org/2000/svg"><path d="m13 22.7297297c0 5.3693694 4.457406 9.7297298 9.9462778 9.7297298 2.1366078 0 4.0890253-.6486487 5.7099003-1.7657658l6.0414428 5.9099099c.2578664.2522523.6262471.3963964.9577897.3963964s.6999232-.1441441.9577897-.3963964c.5157329-.5045045.5157329-1.3693694 0-1.8738739l-5.9677667-5.8378378c1.3998465-1.6936937 2.247122-3.8198198 2.247122-6.1621622 0-5.3693693-4.4574059-9.7297297-9.9462778-9.7297297-5.4888718 0-9.9462778 4.3603604-9.9462778 9.7297297zm2-.2297297c0-4.1232227 3.6018957-7.5 8-7.5s8 3.3412322 8 7.5-3.6018957 7.5-8 7.5-8-3.3767773-8-7.5z" fill="#fff" transform="translate(-13 -13)"/></svg>