<?xml version="1.0" encoding="utf-8"?>
<!-- Generator: Adobe Illustrator 16.0.0, SVG Export Plug-In . SVG Version: 6.00 Build 0)  -->
<!DOCTYPE svg PUBLIC "-//W3C//DTD SVG 1.1//EN" "http://www.w3.org/Graphics/SVG/1.1/DTD/svg11.dtd">
<svg version="1.1" id="Layer_1" xmlns="http://www.w3.org/2000/svg" xmlns:xlink="http://www.w3.org/1999/xlink" x="0px" y="0px"
	 width="413.979px" height="421.479px" viewBox="0 0 413.979 421.479" enable-background="new 0 0 413.979 421.479"
	 xml:space="preserve">
<g>
	<g>
		<g>
			<g>
				<g>
					<path fill="#EF3F3A" d="M206.99,14.184c-108.555,0-196.556,88.001-196.556,196.555c0,108.557,88.001,196.556,196.556,196.556
						s196.556-87.999,196.556-196.556C403.545,102.185,315.544,14.184,206.99,14.184z M224.023,163.727l25.465,45.97l-5.634,10.362
						l-36.058-65.57L224.023,163.727z M91.759,122.285h24.337c18.026,0,30.196,6.083,37.632,15.772
						c-6.761-2.929-14.646-4.505-23.435-4.505h-27.267v76.164H91.759V122.285z M72.381,253.881l-11.268-9.013h56.109
						c53.631,0,81.348-35.602,81.348-79.093c0-22.31-7.886-44.618-24.337-59.266c24.337,14.197,35.604,40.785,35.604,68.279
						c0,39.661-29.294,79.092-81.348,79.092H72.381z M211.63,318.313h-30.873l-11.268-9.018h30.873v-96.22l11.268,20.056V318.313z
						 M287.12,235.836l-22.985,39.886h-19.381l-11.042-9.013h24.114l29.294-51.604V235.836z M332.184,318.313h-30.868l-11.268-9.018
						h30.873V154.489l11.263,9.014V318.313z"/>
				</g>
			</g>
		</g>
	</g>
	<g display="none">
		<g display="inline">
			<g>
				<g>
					<path fill="#EF3F3A" d="M174.234,106.51c16.451,14.647,24.337,36.956,24.337,59.266c0,43.491-27.717,79.093-81.348,79.093
						H61.114l11.268,9.013h56.109c52.054,0,81.348-39.431,81.348-79.092C209.838,147.295,198.571,120.708,174.234,106.51z"/>
				</g>
			</g>
		</g>
	</g>
	<g display="none">
		<g display="inline">
			<g>
				<g>
					<path fill="#EF3F3A" d="M116.096,122.285H91.759v87.432h11.268v-76.164h27.267c8.788,0,16.674,1.576,23.435,4.505
						C146.292,128.368,134.123,122.285,116.096,122.285z"/>
				</g>
			</g>
		</g>
	</g>
	<g display="none">
		<g display="inline">
			<g>
				<g>
					<polygon fill="#EF3F3A" points="320.921,154.489 320.921,309.295 290.048,309.295 301.316,318.313 332.184,318.313 
						332.184,163.502 					"/>
				</g>
			</g>
		</g>
	</g>
	<g display="none">
		<g display="inline">
			<g>
				<g>
					<polygon fill="#EF3F3A" points="200.363,213.076 200.363,309.295 169.49,309.295 180.757,318.313 211.63,318.313 
						211.63,233.131 					"/>
				</g>
			</g>
		</g>
	</g>
	<g display="none">
		<g display="inline">
			<g>
				<g>
					<polygon fill="#EF3F3A" points="224.023,163.727 207.796,154.489 243.854,220.059 249.488,209.697 					"/>
				</g>
			</g>
		</g>
	</g>
	<g display="none">
		<g display="inline">
			<g>
				<g>
					<polygon fill="#EF3F3A" points="257.826,266.709 233.711,266.709 244.753,275.722 264.134,275.722 287.12,235.836 
						287.12,215.106 					"/>
				</g>
			</g>
		</g>
	</g>
</g>
</svg>
