<?xml version="1.0" encoding="UTF-8" standalone="no"?>
<svg width="95px" height="96px" viewBox="0 0 95 96" version="1.1" xmlns="http://www.w3.org/2000/svg" xmlns:xlink="http://www.w3.org/1999/xlink" xmlns:sketch="http://www.bohemiancoding.com/sketch/ns">
    <!-- Generator: Sketch 3.4.2 (15857) - http://www.bohemiancoding.com/sketch -->
    <title>Shape</title>
    <desc>Created with Sketch.</desc>
    <defs></defs>
    <g id="Page-1" stroke="none" stroke-width="1" fill="none" fill-rule="evenodd" sketch:type="MSPage">
        <g id="v1.1.0-(Dark)" sketch:type="MSArtboardGroup" transform="translate(-1245.000000, -1151.000000)" fill="#FFC501">
            <path d="M1338.40344,1244.91017 C1337.34804,1245.96557 1335.97601,1246.49328 1334.60398,1246.49328 C1333.23195,1246.49328 1331.85993,1245.96557 1330.80452,1244.91017 L1307.05788,1221.16353 C1309.90748,1218.94718 1312.44045,1216.4142 1314.65681,1213.5646 L1338.50899,1237.41678 C1340.51426,1239.42206 1340.51426,1242.79936 1338.40344,1244.91017 L1338.40344,1244.91017 Z M1316.55654,1187.28499 C1316.55654,1207.02109 1300.51436,1223.06326 1280.77827,1223.06326 C1261.04217,1223.06326 1245,1207.02109 1245,1187.28499 C1245,1167.5489 1261.04217,1151.50672 1280.77827,1151.50672 C1300.51436,1151.50672 1316.55654,1167.5489 1316.55654,1187.28499 L1316.55654,1187.28499 Z M1309.37978,1187.28499 C1309.37978,1171.55944 1296.50382,1158.68348 1280.77827,1158.68348 C1265.05272,1158.68348 1252.17676,1171.4539 1252.17676,1187.28499 C1252.17676,1203.01054 1264.94718,1215.8865 1280.77827,1215.8865 C1296.60936,1215.8865 1309.37978,1203.01054 1309.37978,1187.28499 L1309.37978,1187.28499 Z M1280.77827,1164.06606 C1268.00785,1164.06606 1257.55933,1174.51458 1257.55933,1187.28499 C1257.55933,1188.23486 1258.40366,1189.07918 1259.35352,1189.07918 C1260.30339,1189.07918 1261.14771,1188.23486 1261.14771,1187.28499 C1261.14771,1176.41431 1270.01313,1167.65444 1280.77827,1167.65444 C1281.72813,1167.65444 1282.57246,1166.81011 1282.57246,1165.86025 C1282.57246,1164.80484 1281.72813,1164.06606 1280.77827,1164.06606 L1280.77827,1164.06606 Z" id="Shape" sketch:type="MSShapeGroup"></path>
        </g>
    </g>
</svg>