<?xml version="1.0" encoding="UTF-8" standalone="no"?>
<svg width="109px" height="97px" viewBox="0 0 109 97" version="1.1" xmlns="http://www.w3.org/2000/svg" xmlns:xlink="http://www.w3.org/1999/xlink" xmlns:sketch="http://www.bohemiancoding.com/sketch/ns">
    <!-- Generator: Sketch 3.4.2 (15857) - http://www.bohemiancoding.com/sketch -->
    <title>Shape</title>
    <desc>Created with Sketch.</desc>
    <defs></defs>
    <g id="Page-1" stroke="none" stroke-width="1" fill="none" fill-rule="evenodd" sketch:type="MSPage">
        <g id="v1.1.0-(Dark)" sketch:type="MSArtboardGroup" transform="translate(-1237.000000, -3200.000000)" fill="#FFC501">
            <g id="Shape-+-Rectangle-2-Copy-3-+-VALUE-Copy" sketch:type="MSLayerGroup" transform="translate(-1.000000, 3175.000000)">
                <path d="M1343.99874,60.1687417 L1333.91321,60.1687417 C1333.44559,58.3424784 1332.8895,56.5604486 1332.21966,54.8289729 L1333.31289,31.2076111 L1321.83081,38.8602252 C1313.47676,30.5124926 1301.93148,25.3433456 1289.18555,25.3433456 C1271.17568,25.3433456 1255.61137,35.6753224 1247.99667,50.7088224 C1247.15621,50.3549444 1246.2336,50.1590472 1245.26675,50.1590472 C1241.38673,50.1590472 1238.23975,53.3060337 1238.23975,57.1923738 C1238.23975,60.516301 1240.55259,63.2841324 1243.65534,64.0171656 C1243.25091,66.4690352 1242.99182,68.9714588 1242.99182,71.5433946 C1242.99182,84.5673718 1248.39478,96.3022217 1257.05848,104.700508 L1254.19586,121.187435 L1274.53753,121.187435 L1273.77922,115.051442 C1278.60712,116.763959 1283.77627,117.737123 1289.18555,117.737123 C1294.59483,117.737123 1299.77662,116.808193 1304.59189,115.101996 L1303.8399,121.187435 L1324.18157,121.187435 L1321.31263,104.656273 C1327.29064,98.8362428 1331.72044,91.4300783 1333.86898,83.0886662 L1344.00506,83.0886662 C1345.528,83.0886662 1346.76025,81.8627321 1346.76025,80.3334741 L1346.76025,62.9239354 C1346.75393,61.4009946 1345.528,60.1687417 1343.99874,60.1687417 L1343.99874,60.1687417 Z M1305.89365,42.6707344 C1304.98368,44.7687243 1302.55709,45.735571 1300.45278,44.8255988 C1293.29307,41.7291647 1285.07804,41.7228458 1277.91201,44.8255988 C1277.38119,45.0594107 1276.8251,45.1668376 1276.27532,45.1668376 C1274.67655,45.1668376 1273.15361,44.2379088 1272.47745,42.6707344 C1271.56748,40.5727412 1272.528,38.1398298 1274.626,37.2361764 C1283.87738,33.2297716 1294.49372,33.2297716 1303.73879,37.2361764 C1305.83678,38.1461486 1306.80363,40.5790617 1305.89365,42.6707344 L1305.89365,42.6707344 Z" id="Shape" sketch:type="MSShapeGroup"></path>
            </g>
        </g>
    </g>
</svg>