<?xml version="1.0" encoding="UTF-8"?>
<svg width="125px" height="26px" viewBox="0 0 125 26" version="1.1" xmlns="http://www.w3.org/2000/svg" xmlns:xlink="http://www.w3.org/1999/xlink">
    <title>Group Copy</title>
    <g id="Page-1" stroke="none" stroke-width="1" fill="none" fill-rule="evenodd">
        <g id="iPhone-13-Pro-Copy-3" transform="translate(-79.000000, -505.000000)" fill="#EA4C89" fill-rule="nonzero">
            <g id="Group-Copy" transform="translate(79.000000, 505.000000)">
                <path d="M13.4615385,23.9266547 C16.5921288,23.9266547 19.1413238,20.5277281 19.9910555,17.7996422 C20.0357782,17.7101968 20.0805009,17.5760286 20.0805009,17.4865832 C20.0805009,16.9946333 19.6332737,16.5921288 19.1413238,16.5921288 C17.5760286,16.5921288 17.0840787,21.4669052 14.1323792,21.4669052 C12.8354204,21.4669052 12.5670841,20.0805009 12.5670841,19.0518784 C12.5670841,18.2915921 12.9695886,15.3846154 13.372093,14.8926655 C13.7745975,14.4454383 14.0876565,14.0876565 14.0876565,13.4615385 C14.0876565,12.8354204 13.6851521,12.2093023 13.0143113,12.2093023 C11.0912343,12.2093023 11.7173524,15.7423971 8.94454383,15.7423971 C8.85509839,15.7423971 8.76565295,15.6976744 8.63148479,15.6976744 C9.16815742,14.490161 9.92844365,13.1932021 9.92844365,11.8515206 C9.92844365,11.2701252 9.48121646,10.5992844 8.85509839,10.5992844 C7.2450805,10.5992844 6.0822898,14.6243292 6.0822898,15.921288 C6.0822898,16.234347 6.12701252,16.5026834 6.26118068,16.7710197 C6.12701252,17.039356 5.99284436,17.3971377 5.99284436,17.6654741 C5.99284436,18.2021467 6.52951699,18.5599284 7.02146691,18.5599284 C7.37924866,18.5599284 7.69230769,18.3363148 7.87119857,18.0232558 C8.85509839,18.157424 9.66010733,17.7996422 10.509839,17.3076923 C10.3756708,18.1127013 10.3309481,18.9624329 10.3309481,19.7674419 C10.3309481,21.8694097 11.0017889,23.9266547 13.4615385,23.9266547 Z M20.8855098,24.2397138 C22.8533095,24.2397138 24.7316637,22.5849732 26.118068,21.332737 C26.8336315,22.7191413 28.3542039,23.7477639 29.9194991,23.7477639 C32.4239714,23.7477639 35.3309481,20.1699463 36.2701252,18.0679785 C36.3595707,17.9338104 36.4042934,17.7549195 36.4042934,17.5760286 C36.4042934,17.0840787 35.9570662,16.6368515 35.4651163,16.6368515 C33.9445438,16.6368515 32.8264758,21.332737 30.0089445,21.332737 C28.7119857,21.332737 28.1305903,19.90161 27.9516995,18.8282648 C28.2647585,17.7101968 29.3828265,16.7710197 29.3828265,15.0715564 C29.3828265,14.3112701 28.980322,13.4615385 28.1305903,13.4615385 C26.2969589,13.4615385 25.5366726,17.5313059 25.4919499,18.9177102 C24.686941,19.9910555 22.8085868,21.9588551 21.332737,21.9588551 C20.2593918,21.9588551 19.9910555,20.6171735 19.9910555,19.7674419 C19.9910555,17.039356 21.8246869,15.1610018 21.8246869,13.9982111 C21.8246869,13.3273703 21.332737,12.8354204 20.6618962,12.8354204 C20.1699463,12.8354204 19.6779964,13.1037567 19.4096601,13.5062612 C18.5152057,15.0268336 17.6654741,18.157424 17.6654741,19.90161 C17.6654741,22.0035778 18.4257603,24.2397138 20.8855098,24.2397138 Z M44.7227191,24.8658318 C47.5849732,24.8658318 50.313059,20.3935599 51.1627907,18.0232558 C51.2075134,17.8443649 51.2522361,17.6207513 51.2522361,17.4418605 C51.2522361,16.8604651 50.8944544,16.4132379 50.313059,16.4132379 C48.7030411,16.4132379 47.6744186,22.4060823 45.0805009,22.4060823 C42.2182469,22.4060823 45.3041145,14.6690519 41.2790698,14.6690519 C39.5348837,14.6690519 37.9248658,16.2790698 36.8515206,17.4865832 C36.8515206,16.2790698 37.1198569,12.2987478 35.3756708,12.2987478 C34.5706619,12.2987478 33.9445438,12.9248658 33.9445438,13.7298748 C33.9445438,14.6690519 34.3470483,15.6976744 34.3470483,16.6815742 C34.3470483,17.5760286 34.078712,20.706619 33.5420394,21.4221825 C33.3184258,21.7352415 33.0500894,22.137746 33.0500894,22.4955277 C33.0500894,23.2110912 33.8103757,23.5241503 34.391771,23.5241503 C35.5992844,23.5241503 38.7745975,17.039356 40.5635063,17.039356 C40.8765653,17.039356 40.9660107,17.352415 41.0107335,17.5760286 C41.6368515,20.2146691 40.5187835,24.8658318 44.7227191,24.8658318 Z M51.7889088,10.9570662 C53.1753131,10.9570662 54.1592129,9.61538462 54.1592129,8.31842576 C54.1592129,7.42397138 53.667263,6.44007156 52.6386404,6.44007156 C51.0733453,6.44007156 50.313059,8.31842576 50.313059,9.61538462 C50.313059,10.4651163 50.9838998,10.9570662 51.7889088,10.9570662 Z M51.9677996,23.9713775 C52.9516995,23.9713775 53.9355993,23.6135957 54.7406082,23.0322004 C56.0822898,22.0035778 58.8550984,19.0071556 58.8550984,17.2629696 C58.8550984,16.726297 58.4525939,16.3237925 57.9159213,16.3237925 C57.5134168,16.3237925 57.1556351,16.6368515 56.9320215,16.9499106 C56.216458,18.2468694 54.2486583,21.6905188 52.4597496,21.6905188 C51.3416816,21.6905188 51.3416816,20.4830054 51.3416816,19.6779964 C51.3416816,17.7549195 52.1914132,15.4293381 52.1914132,14.1323792 C52.1914132,13.5062612 51.7889088,12.9695886 51.118068,12.9695886 C49.1055456,12.9695886 48.9713775,18.3810376 48.9713775,19.8121646 C48.9713775,21.8246869 49.5527728,23.9713775 51.9677996,23.9713775 Z M60.9570662,23.3452594 C63.6404293,23.3452594 66.5921288,20.2146691 67.7996422,18.0232558 C67.8890877,17.8443649 67.9785331,17.6207513 67.9785331,17.3971377 C67.9785331,16.8604651 67.6207513,16.2790698 67.039356,16.2790698 C65.6976744,16.2790698 64.177102,20.7960644 61.4042934,20.7960644 C60.0178891,20.7960644 59.1681574,18.7388193 59.1234347,17.5760286 L59.1681574,17.4865832 C60.2862254,14.9821109 61.8067979,12.8354204 62.7012522,10.19678 L65.921288,10.19678 C66.4579606,10.19678 66.9051878,9.74955277 66.9051878,9.21288014 C66.9051878,7.91592129 64.1323792,8.13953488 63.1932021,8.09481216 C63.2826476,7.51341682 63.3273703,6.88729875 63.3273703,6.3059034 C63.3273703,5.00894454 63.1484794,2.37030411 61.3595707,2.37030411 C59.2576029,2.37030411 57.8711986,6.3059034 57.3792487,8.00536673 C56.4400716,7.96064401 54.1592129,7.64758497 54.1592129,9.07871199 C54.1592129,10.2862254 56.0822898,10.19678 56.8872987,10.19678 C56.6189624,11.8962433 56.4847943,13.5509839 56.4847943,15.2504472 C56.4847943,18.2021467 56.9767442,23.3452594 60.9570662,23.3452594 Z M61.0017889,8.09481216 L59.5706619,8.09481216 C59.9284436,7.02146691 60.4203936,5.94812165 61.0465116,4.96422182 C61.1806798,5.41144902 61.2254025,5.90339893 61.2254025,6.35062612 C61.2254025,6.93202147 61.1359571,7.51341682 61.0017889,8.09481216 Z M58.5867621,14.8926655 C58.5867621,13.3273703 58.8103757,11.7620751 59.1234347,10.2415027 L60.4651163,10.2415027 C59.9284436,11.8067979 59.3023256,13.372093 58.5867621,14.8926655 Z M70.0357782,24.7763864 C72.6744186,24.7763864 74.5527728,22.4060823 75.5813953,20.2146691 C77.7728086,20.5724508 80.3220036,19.7674419 81.4847943,17.7549195 C81.5742397,17.5760286 81.6189624,17.3971377 81.6189624,17.2182469 C81.6189624,16.726297 81.1717352,16.3237925 80.7245081,16.3237925 C79.6958855,16.3237925 79.2486583,18.2468694 76.6547406,18.2468694 C76.4758497,18.2468694 76.2969589,18.2468694 76.118068,18.2021467 C76.2075134,17.7996422 76.2522361,17.352415 76.2522361,16.9499106 C76.2522361,15.6529517 75.4472272,14.490161 74.0608229,14.490161 C73.1216458,14.490161 72.137746,15.3846154 72.137746,16.3685152 C72.137746,17.5760286 72.5402504,18.783542 73.568873,19.4991055 C73.1216458,20.5724508 71.7352415,22.4060823 70.4830054,22.4060823 C68.7388193,22.4060823 68.2915921,19.1413238 68.2915921,17.8443649 C71.6457961,14.6690519 76.1627907,9.07871199 76.1627907,4.15921288 C76.1627907,2.41502683 75.4472272,0 73.3005367,0 C68.6493739,0 65.921288,13.9982111 65.921288,17.6654741 C65.921288,20.3488372 66.4579606,24.7763864 70.0357782,24.7763864 Z M68.4257603,14.8479428 C68.8729875,12.0304114 70.706619,3.980322 73.0322004,2.45974955 C73.7477639,2.50447227 73.7924866,3.75670841 73.7924866,4.24865832 C73.7924866,8.05008945 70.9302326,12.254025 68.4257603,14.8479428 Z M82.5134168,24.9105546 C84.5706619,24.9105546 86.3148479,23.3005367 87.3434705,21.6457961 C88.059034,22.8533095 89.177102,23.7030411 90.608229,23.7030411 C93.783542,23.7030411 96.332737,20.2146691 96.6457961,17.352415 L96.6457961,17.0840787 C96.6457961,16.5921288 96.332737,16.1001789 95.7513417,16.1001789 C94.0518784,16.1001789 93.8282648,21.4669052 90.8318426,21.4669052 C89.177102,21.4669052 88.8640429,18.8729875 88.8640429,17.6207513 C88.8640429,16.7710197 89.1323792,15.9660107 89.1323792,15.1162791 C89.1323792,14.80322 89.0429338,14.490161 88.8193202,14.2665474 C88.9534884,14.0429338 89.0429338,13.8193202 89.0429338,13.5509839 C89.0429338,12.2987478 87.5670841,11.6726297 86.4937388,11.6726297 C82.7370304,11.6726297 78.5778175,17.4418605 78.5778175,20.9302326 C78.5778175,23.1216458 80.2772809,24.9105546 82.5134168,24.9105546 Z M82.7370304,22.5849732 C81.6189624,22.5849732 80.9481216,21.7799642 80.9481216,20.706619 C80.9481216,18.6493739 83.765653,14.0876565 86.0465116,14.0876565 C86.3595707,14.0876565 86.627907,14.177102 86.8515206,14.3112701 C86.4490161,14.8926655 86.3148479,15.6529517 86.3148479,16.3685152 C86.3148479,16.8604651 86.4490161,17.352415 86.4490161,17.8443649 C86.4490161,19.6779964 84.7942755,22.5849732 82.7370304,22.5849732 Z M100.9839,23.9266547 C104.472272,23.9266547 108.72093,21.1538462 110.017889,17.8890877 C110.062612,17.7101968 110.107335,17.5313059 110.107335,17.352415 C110.107335,16.8157424 109.749553,16.3685152 109.168157,16.3685152 C108.765653,16.3685152 108.497317,16.5921288 108.273703,16.9051878 L108.22898,16.9946333 C106.887299,19.3202147 104.382826,21.7352415 101.520572,21.7352415 C98.8372093,21.7352415 97.0483005,19.8568873 97.0483005,17.2182469 C97.0483005,15.2504472 98.7030411,11.5831843 101.028623,11.5831843 C101.431127,11.5831843 101.744186,11.8067979 102.012522,12.1198569 C101.610018,13.059034 101.431127,14.0876565 101.431127,15.1162791 C101.431127,16.0107335 101.520572,17.7101968 102.728086,17.7101968 C104.338104,17.7101968 104.740608,14.3559928 104.740608,13.1932021 C104.740608,12.5670841 104.695886,11.940966 104.472272,11.3595707 C104.561717,10.7334526 104.293381,10.0178891 103.533095,10.0626118 C102.996422,9.61538462 102.236136,9.25760286 101.520572,9.25760286 C97.6744186,9.25760286 94.6332737,14.177102 94.6332737,17.6654741 C94.6332737,21.2880143 97.4060823,23.9266547 100.9839,23.9266547 Z M108.944544,25.4025045 C110.19678,25.4025045 110.330948,24.2397138 110.330948,23.255814 C110.330948,21.5563506 110.420394,19.7674419 110.509839,18.0232558 C111.359571,20.8407871 114.713775,23.4794275 117.665474,23.4794275 C120.974955,23.4794275 123.255814,20.7960644 124.776386,18.2021467 C124.910555,17.9785331 125,17.7549195 125,17.5313059 C125,16.9946333 124.597496,16.4579606 124.0161,16.4579606 C122.942755,16.4579606 120.88551,21.0644007 117.531306,21.0644007 C116.413238,21.0644007 115.429338,20.4382826 114.713775,19.588551 C116.726297,18.6493739 118.738819,15.4740608 118.738819,13.1932021 C118.738819,11.0465116 117.307692,8.36314848 114.892665,8.36314848 C114.042934,8.36314848 113.237925,8.67620751 112.567084,9.16815742 C111.896243,9.66010733 111.314848,10.2862254 110.822898,10.9570662 C110.957066,8.81037567 111.18068,6.61896243 111.18068,4.47227191 C111.18068,3.53309481 111.359571,0.939177102 109.883721,0.939177102 C109.123435,0.939177102 108.631485,1.61001789 108.631485,2.3255814 C108.631485,3.44364937 108.810376,4.56171735 108.810376,5.67978533 C108.810376,8.22898032 108.497317,10.7334526 108.318426,13.2826476 C108.22898,14.2665474 108.273703,15.3398927 108.139535,16.3685152 C107.915921,18.2468694 107.379249,19.5438283 107.379249,21.6010733 C107.379249,22.5402504 107.513417,25.4025045 108.944544,25.4025045 Z M113.774597,17.6207513 C112.701252,17.6207513 113.059034,15.8765653 111.717352,15.8765653 C111.359571,15.8765653 110.957066,15.9660107 110.68873,16.234347 C111.001789,14.9373882 112.65653,10.5992844 114.355993,10.5992844 C115.78712,10.5992844 116.234347,12.3881932 116.234347,13.5062612 C116.234347,14.6243292 115.071556,17.6207513 113.774597,17.6207513 Z" id="runitback"></path>
                <path d="M1.26049616,23.8755431 C4.3910865,23.8755431 6.94028149,20.4766164 7.79001316,17.7485305 C7.83473588,17.6590851 7.87945859,17.5249169 7.87945859,17.4354715 C7.87945859,16.9435216 6.23784209,16.0941503 6.03384674,16.5176521 C5.07472834,18.5088168 4.88303641,21.4157935 1.93133695,21.4157935 M13.2014622,23.8755431 C15.9346764,23.8755431 18.2247246,21.2847266 19.3275425,18.8114878 C19.4878788,18.451909 19.6231199,18.0948154 19.7309792,17.7485305 C19.7757019,17.6590851 19.8204246,17.5249169 19.8204246,17.4354715 C19.8204246,16.9435216 19.3731974,16.5410171 18.8812475,16.5410171 C18.3783759,16.5410171 17.9862842,17.0441428 17.5878237,17.7271226 C16.7459909,19.1700632 15.8757302,21.4157935 13.872303,21.4157935 C12.5753441,21.4157935 12.3070078,20.0293892 12.3070078,19.0007667 C12.3070078,18.2404804 12.7095123,15.3335037 13.1120167,14.8415538 C13.5145212,14.3943266 13.8275802,14.0365449 13.8275802,13.4104268 C13.8275802,12.7843087 13.4250758,12.1581906 12.754235,12.1581906 C10.8311581,12.1581906 11.4572761,15.6912855 8.68446754,15.6912855 C8.5950221,15.6912855 8.50557666,15.6465627 8.37140851,15.6465627 C8.90808113,14.4390493 9.66836736,13.1420905 9.66836736,11.8004089 C9.66836736,11.2190135 9.22114017,10.5481728 8.5950221,10.5481728 C6.98500421,10.5481728 5.82221351,14.5732175 5.82221351,15.8701763 C5.82221351,16.1832354 5.86693623,16.4515717 6.00110439,16.719908 C5.86693623,16.9882443 5.73276808,17.3460261 5.73276808,17.6143624 C5.73276808,18.151035 6.26944071,18.5088168 6.76139062,18.5088168 C7.11917237,18.5088168 7.4322314,18.2852032 7.61112228,17.9721441 C8.5950221,18.1063123 9.40003105,17.7485305 10.2497627,17.2565806 C10.1155946,18.0615896 10.0708718,18.9113212 10.0708718,19.7163302 C10.0708718,21.818298 10.7417126,23.8755431 13.2014622,23.8755431 Z M1.95033603,21.4208569 C1.55814714,21.3863233 1.17647838,21.3747087 0.813944032,21.3854651 C0.714811415,21.3722995 0.573392637,21.3736942 0.488820314,21.4028148 C0.0236725349,21.562978 -0.0921473625,22.6203954 0.068015862,23.0855432 C0.231734845,23.5610176 0.503784147,23.7088872 1.27928034,23.8632825" id="rr"></path>
            </g>
        </g>
    </g>
</svg>