<svg height="250" viewBox="0 0 251 250" width="251" xmlns="http://www.w3.org/2000/svg"><path d="m1276.42564 291c-68.89559.00522-124.73897 55.852088-124.73897 124.74942 0 68.885151 55.84338 124.738399 124.73897 124.738399 68.8956 0 124.7413-55.853248 124.74884-124.738399-.00754-68.897332-55.85324-124.7442-124.74884-124.74942zm76.43214 64.678654c12.17111 15.455337 19.79176 34.592808 20.7529 55.49188-14.08237-2.988979-27.38805-4.443736-39.79234-4.443736v-.0029h-.09165c-9.98666 0-19.35905.906612-28.19258 2.473318-2.14675-5.261601-4.32308-10.315545-6.51566-15.156033 19.67286-8.62877 38.55569-20.915313 53.83933-38.362529zm-76.43214-37.25406c22.95592 0 44.01509 8.025522 60.68794 21.386311-12.7587 15.274942-29.59919 26.337587-47.79176 34.149072-12.78307-24.718678-25.13515-42.401972-33.57889-53.212877 6.68387-1.483179 13.58295-2.322506 20.68271-2.322506zm-42.98665 10.145012c6.75522 7.979118 20.28016 25.529582 34.72563 52.930974-29.37877 8.74536-58.96229 10.799884-76.86195 10.794664-.51044 0-1.01508 0-1.51044-.005221h-.01624c-3.0145 0-5.60673-.047564-7.77088-.113689 6.98318-27.943155 26.12645-51.085267 51.43388-63.606728zm-54.33585 87.179814c0-.457657.01624-.922854.0435-1.401972 2.779.102668 6.34281.190835 10.63225.190835h.02436c19.56323-.12761 53.72042-1.762181 88.33643-12.690835 1.88689 4.12587 3.75464 8.421694 5.60093 12.88167-23.11659 7.731439-41.32309 20.048724-54.78944 32.314966-12.96404 11.808004-21.72274 23.50348-26.84049 31.310904-14.32077-16.955336-23-38.744779-23.00754-62.605568zm97.3225 97.326566c-21.65835 0-41.62065-7.162993-57.81496-19.182134 3.44199-5.668794 10.82192-16.551625 22.57367-27.796984 12.09106-11.586427 28.7819-23.513921 50.57424-30.611949 7.40719 20.763921 14.10963 44.5 19.2152 71.218677-10.7558 4.095708-22.37761 6.37239-34.54815 6.37239zm55.08179-17.281902c-4.93793-24.164154-11.14559-45.953597-17.96172-65.399072 6.32077-.906613 12.95592-1.418214 19.9594-1.418214h.25174.01624.01624c11.60789 0 24.36369 1.442576 38.19722 4.585847-4.78886 25.733759-19.69432 47.896752-40.47912 62.231439z" fill="#fff" fill-rule="evenodd" transform="translate(-1151 -291)"/></svg>