<?xml version="1.0" encoding="UTF-8" standalone="no"?>
<svg width="251px" height="250px" viewBox="0 0 251 250" version="1.1" xmlns="http://www.w3.org/2000/svg" xmlns:xlink="http://www.w3.org/1999/xlink">
    <!-- Generator: Sketch 39.1 (31720) - http://www.bohemiancoding.com/sketch -->
    <title>Dribbble</title>
    <desc>Created with Sketch.</desc>
    <defs></defs>
    <g id="Page-1" stroke="none" stroke-width="1" fill="none" fill-rule="evenodd">
        <g id="Artboard" transform="translate(-1151.000000, -291.000000)" fill="#FFFFFF">
            <path d="M1276.42564,291 C1207.53005,291.00522 1151.68667,346.852088 1151.68667,415.74942 C1151.68667,484.634571 1207.53005,540.487819 1276.42564,540.487819 C1345.32124,540.487819 1401.16694,484.634571 1401.17448,415.74942 C1401.16694,346.852088 1345.32124,291.00522 1276.42564,291 L1276.42564,291 Z M1352.85778,355.678654 C1365.02889,371.133991 1372.64954,390.271462 1373.61068,411.170534 C1359.52831,408.181555 1346.22263,406.726798 1333.81834,406.726798 L1333.81834,406.723898 L1333.72669,406.723898 C1323.74003,406.723898 1314.36764,407.63051 1305.53411,409.197216 C1303.38736,403.935615 1301.21103,398.881671 1299.01845,394.041183 C1318.69131,385.412413 1337.57414,373.12587 1352.85778,355.678654 L1352.85778,355.678654 Z M1276.42564,318.424594 C1299.38156,318.424594 1320.44073,326.450116 1337.11358,339.810905 C1324.35488,355.085847 1307.51439,366.148492 1289.32182,373.959977 C1276.53875,349.241299 1264.18667,331.558005 1255.74293,320.7471 C1262.4268,319.263921 1269.32588,318.424594 1276.42564,318.424594 L1276.42564,318.424594 Z M1233.43899,328.569606 C1240.19421,336.548724 1253.71915,354.099188 1268.16462,381.50058 C1238.78585,390.24594 1209.20233,392.300464 1191.30267,392.295244 C1190.79223,392.295244 1190.28759,392.295244 1189.79223,392.290023 L1189.77599,392.290023 C1186.76149,392.290023 1184.16926,392.242459 1182.00511,392.176334 C1188.98829,364.233179 1208.13156,341.091067 1233.43899,328.569606 L1233.43899,328.569606 Z M1179.10314,415.74942 C1179.10314,415.291763 1179.11938,414.826566 1179.14664,414.347448 C1181.92564,414.450116 1185.48945,414.538283 1189.77889,414.538283 L1189.80325,414.538283 C1209.36648,414.410673 1243.52367,412.776102 1278.13968,401.847448 C1280.02657,405.973318 1281.89432,410.269142 1283.74061,414.729118 C1260.62402,422.460557 1242.41752,434.777842 1228.95117,447.044084 C1215.98713,458.852088 1207.22843,470.547564 1202.11068,478.354988 C1187.78991,461.399652 1179.11068,439.610209 1179.10314,415.74942 L1179.10314,415.74942 Z M1276.42564,513.075986 C1254.76729,513.075986 1234.80499,505.912993 1218.61068,493.893852 C1222.05267,488.225058 1229.4326,477.342227 1241.18435,466.096868 C1253.27541,454.510441 1269.96625,442.582947 1291.75859,435.484919 C1299.16578,456.24884 1305.86822,479.984919 1310.97379,506.703596 C1300.21799,510.799304 1288.59618,513.075986 1276.42564,513.075986 L1276.42564,513.075986 Z M1331.50743,495.794084 C1326.5695,471.62993 1320.36184,449.840487 1313.54571,430.395012 C1319.86648,429.488399 1326.50163,428.976798 1333.50511,428.976798 L1333.75685,428.976798 L1333.77309,428.976798 L1333.78933,428.976798 C1345.39722,428.976798 1358.15302,430.419374 1371.98655,433.562645 C1367.19769,459.296404 1352.29223,481.459397 1331.50743,495.794084 L1331.50743,495.794084 Z" id="Dribbble"></path>
        </g>
    </g>
</svg>