<svg height="250" viewBox="0 0 251 250" width="251" xmlns="http://www.w3.org/2000/svg"><path d="m2243.2507 291h-222.40882c-7.62176 0-13.79021 6.177066-13.79021 13.797744v222.403436c0 7.619601 6.16845 13.797743 13.79021 13.797743h119.7412v-96.812427h-32.58623v-37.729837h32.58623v-27.824785c0-32.290187 19.72183-49.872971 48.52948-49.872971 13.79021 0 25.65345 1.026999 29.10907 1.486673v33.74564l-19.98019.008612c-15.66335 0-18.69914 7.444128-18.69914 18.367566v24.089265h37.36598l-4.86587 37.729837h-32.50011v96.812427h63.7084c7.62175 0 13.80097-6.178142 13.80097-13.797743v-222.403436c0-7.620678-6.17922-13.797744-13.80097-13.797744" fill="#fff" fill-rule="evenodd" transform="translate(-2007 -291)"/></svg>