<svg height="250" viewBox="0 0 256 250" width="256" xmlns="http://www.w3.org/2000/svg"><path d="m1956.46691 354.85373c-11.42657-19.578089-26.92599-35.078089-46.50233-46.503497-19.57926-11.425991-40.95396-17.137529-64.13928-17.137529-23.1824 0-44.5641 5.713287-64.13928 17.137529-19.57808 11.424825-35.07692 26.925408-46.50349 46.503497-11.42483 19.577505-17.13753 40.956293-17.13753 64.13578 0 27.843823 8.12354 52.881702 24.37471 75.120047 16.24941 22.240093 37.24126 37.629371 62.97377 46.169581 2.99534.555944 5.21271.164918 6.65443-1.163171 1.44231-1.329836 2.16259-2.995338 2.16259-4.98951 0-.332751-.02856-3.32634-.08392-8.984266-.05711-5.657925-.08391-10.593823-.08391-14.805361l-3.82693.662004c-2.43997.44697-5.51806.636364-9.23426.582751-3.71445-.051865-7.57051-.441142-11.56294-1.164918-3.99417-.717366-7.70921-2.381119-11.14802-4.987763-3.43706-2.606643-5.87704-6.018648-7.31934-10.230769l-1.66376-3.828671c-1.10897-2.548951-2.85489-5.380536-5.24009-8.484266-2.3852-3.106643-4.7972-5.212704-7.23718-6.321678l-1.16492-.833916c-.77622-.554196-1.4965-1.222611-2.16259-1.998252-.6655-.775641-1.16375-1.551865-1.4965-2.329254-.33333-.777972-.05711-1.416084.83159-1.916667.88869-.500583 2.49475-.74359 4.82517-.74359l3.32634.497087c2.21853.444638 4.9627 1.772727 8.23601 3.992424 3.27157 2.217949 5.96096 5.101399 8.06877 8.649184 2.55245 4.548951 5.62762 8.015152 9.23426 10.40035 3.60373 2.385198 7.23718 3.575757 10.89686 3.575757 3.65967 0 6.82051-.277389 9.48368-.829254 2.66026-.554778 5.15618-1.388694 7.4866-2.497086.99825-7.434732 3.7162-13.14627 8.15151-17.138695-6.32168-.664335-12.00524-1.664918-17.05361-2.995338-5.04545-1.332167-10.25932-3.494172-15.63811-6.491841-5.3817-2.99359-9.84616-6.710956-13.39452-11.145688-3.54896-4.437063-6.46154-10.262238-8.73369-17.470279-2.27331-7.210956-3.41025-15.529138-3.41025-24.956877 0-13.42366 4.38228-24.846737 13.1451-34.275641-4.10489-10.092075-3.71736-21.405594 1.16375-33.939394 3.21679-.999417 7.98718-.249417 14.30886 2.245338 6.32285 2.495921 10.95222 4.634033 13.89278 6.40676 2.94056 1.772145 5.29662 3.273893 7.07167 4.491842 10.3176-2.882868 20.96504-4.324593 31.94523-4.324593 10.98018 0 21.62995 1.441725 31.94813 4.324593l6.32226-3.991259c4.32343-2.66317 9.42891-5.10373 15.3042-7.322261 5.87879-2.217366 10.37412-2.828089 13.48135-1.828672 4.98951 12.534383 5.43415 23.84732 1.32809 33.939394 8.76224 9.428905 13.14627 20.854895 13.14627 34.275641 0 9.427739-1.14103 17.772145-3.41084 25.038462-2.27273 7.267482-5.21037 13.08683-8.8141 17.47028-3.60781 4.382867-8.10082 8.071095-13.47961 11.064102-5.37995 2.995338-10.59557 5.157343-15.64102 6.489511-5.04779 1.332167-10.73135 2.333333-17.05303 2.998834 5.76573 4.989511 8.64918 12.865385 8.64918 23.624126v35.103147c0 1.994172.69347 3.659091 2.08159 4.98951 1.38636 1.328089 3.57575 1.719115 6.57109 1.162588 25.73602-8.539045 46.72786-23.928905 62.97669-46.168998 16.24709-22.238345 24.37355-47.276224 24.37355-75.120047-.00583-23.176573-5.72145-44.553613-17.14103-64.131118z" fill="#fff" fill-rule="evenodd" transform="translate(-1718 -291)"/></svg>