<svg height="250" viewBox="0 0 250 250" width="250" xmlns="http://www.w3.org/2000/svg"><g fill="#fff" fill-rule="evenodd" transform="translate(-.030834)"><path d="m125 22.5550595c33.366071 0 37.317956.1269842 50.494544.7281746 12.183531.5560516 18.800099 2.5917659 23.203869 4.3025794 5.832341 2.2668651 9.995535 4.9751984 14.368055 9.3477182 4.37252 4.3725199 7.080853 8.5357143 9.347222 14.3680556 1.71131 4.4037698 3.747024 11.0203373 4.303076 23.203373.60119 13.1770834.728174 17.1289683.728174 50.4950397 0 33.366071-.126984 37.317956-.728174 50.494544-.556052 12.183531-2.591766 18.800099-4.303076 23.203869-2.266369 5.832341-4.974702 9.995535-9.347222 14.368055s-8.535714 7.080853-14.368055 9.347222c-4.40377 1.71131-11.020338 3.747024-23.203869 4.303076-13.174604.60119-17.126488.728174-50.494544.728174-33.3680556 0-37.3199405-.126984-50.4945437-.728174-12.1835317-.556052-18.8000992-2.591766-23.203373-4.303076-5.8328373-2.266369-9.9960317-4.974702-14.3685516-9.347222-4.3725198-4.37252-7.0808531-8.535714-9.3472222-14.368055-1.7113095-4.40377-3.7470238-11.020338-4.3030754-23.203373-.6011904-13.177084-.7281746-17.128969-.7281746-50.49504 0-33.3660714.1269842-37.3179563.7281746-50.4945437.5560516-12.1835317 2.5917659-18.8000992 4.3030754-23.203869 2.2663691-5.8323413 4.9747024-9.9955357 9.3472222-14.3680556 4.3725199-4.3725198 8.5357143-7.0808531 14.3685516-9.3477182 4.4032738-1.7108135 11.0198413-3.7465278 23.202877-4.3025794 13.1770834-.6011904 17.1289683-.7281746 50.4950397-.7281746m0-22.51587299c-33.9375 0-38.1924603.1438492-51.5208333.75198413-13.3010913.60714285-22.3844246 2.71924603-30.3333334 5.80853174-8.2172619 3.19345238-15.1860119 7.46626982-22.1329365 14.41319442s-11.21974204 13.9156746-14.41319442 22.1329365c-3.08928571 7.9489088-5.20138889 17.0322421-5.80853174 30.3333334-.60813493 13.327877-.7514881 17.5833333-.7514881 51.5208333s.14335317 38.192956.7514881 51.520833c.60714285 13.301092 2.71924603 22.384425 5.80853174 30.333334 3.19345238 8.216766 7.46626982 15.186012 14.41319442 22.132936 6.9469246 6.946925 13.9156746 11.219742 22.1329365 14.413195 7.9489088 3.089285 17.0322421 5.201389 30.3333334 5.808531 13.328373.608135 17.5833333.751488 51.5208333.751488s38.192956-.143353 51.520833-.751488c13.301092-.607142 22.384425-2.719246 30.333334-5.808531 8.217262-3.193453 15.186012-7.46627 22.132936-14.413195 6.946925-6.946924 11.219742-13.915674 14.413195-22.132936 3.089285-7.948909 5.201389-17.032242 5.808531-30.333334.608135-13.327877.751984-17.583333.751984-51.520833s-.143849-38.1929563-.751984-51.5208333c-.607142-13.3010913-2.719246-22.3844246-5.808531-30.3333334-3.193453-8.2172619-7.46627-15.1860119-14.413195-22.1329365-6.946924-6.9469246-13.915674-11.21974204-22.132936-14.41319442-7.948909-3.08928571-17.032242-5.20138889-30.333334-5.80853174-13.327877-.60813493-17.583333-.75198413-51.520833-.75198413"/><path d="m125 60.8308532c-35.4394841 0-64.1691468 28.7296627-64.1691468 64.1691468 0 35.439484 28.7296627 64.169147 64.1691468 64.169147 35.439484 0 64.169147-28.729663 64.169147-64.169147 0-35.4394841-28.729663-64.1691468-64.169147-64.1691468zm0 105.8229168c-23.004464 0-41.6537698-18.649306-41.6537698-41.65377s18.6493058-41.6537698 41.6537698-41.6537698 41.65377 18.6493058 41.65377 41.6537698-18.649306 41.65377-41.65377 41.65377z"/><path d="m206.699405 58.2956349c0 8.2817461-6.713294 14.9955357-14.99504 14.9955357s-14.995536-6.7137896-14.995536-14.9955357c0-8.281746 6.71379-14.9950397 14.995536-14.9950397s14.99504 6.7132937 14.99504 14.9950397"/></g></svg>