<svg height="250" viewBox="0 0 307 250" width="307" xmlns="http://www.w3.org/2000/svg"><path d="m842.117082 320.975c-11.257291 4.992708-23.355208 8.367708-36.053125 9.884375 12.960417-7.76875 22.913542-20.070833 27.601042-34.729167-12.129167 7.19375-25.563542 12.417709-39.8625 15.233334-11.45-12.2-27.764583-19.823959-45.81875-19.823959-34.66875 0-62.775 28.10625-62.775 62.771875 0 4.920834.555208 9.711459 1.625 14.305209-52.169792-2.616667-98.423958-27.608334-129.385417-65.586459-5.403125 9.270834-8.498958 20.054167-8.498958 31.558334 0 21.778125 11.082292 40.991666 27.926042 52.248958-10.289584-.326042-19.96875-3.15-28.432292-7.852083-.005208.2625-.00625.525-.00625.789583 0 30.414583 21.638542 55.786458 50.355208 61.553125-5.267708 1.433333-10.813541 2.201042-16.538541 2.201042-4.044792 0-7.977084-.39375-11.810417-1.126042 7.988542 24.938542 31.170833 43.0875 58.639583 43.594792-21.483333 16.835416-48.55 26.870833-77.960416 26.870833-5.066667 0-10.063542-.296875-14.973959-.876042 27.780209 17.810417 60.776042 28.202084 96.225 28.202084 115.463542 0 178.603125-95.652084 178.603125-178.604167 0-2.720833-.061458-5.428125-.18125-8.120833 12.263542-8.85 22.90625-19.90625 31.321875-32.494792" fill="#fff" fill-rule="evenodd" transform="translate(-536 -291)"/></svg>