<?xml version="1.0" encoding="UTF-8"?>
<svg width="150px" height="150px" viewBox="0 0 150 150" version="1.1" xmlns="http://www.w3.org/2000/svg" xmlns:xlink="http://www.w3.org/1999/xlink">
    <!-- Generator: Sketch 50.2 (55047) - http://www.bohemiancoding.com/sketch -->
    <title>notification-icon</title>
    <desc>Created with Sketch.</desc>
    <defs></defs>
    <g id="Page-4" stroke="none" stroke-width="1" fill="none" fill-rule="evenodd">
        <g id="Artboard-4" transform="translate(-1072.000000, -386.000000)">
            <g id="notification-icon" transform="translate(1072.000000, 386.000000)">
                <circle id="Oval-7-Copy-4" fill="#FFFFFF" cx="75" cy="75" r="75"></circle>
                <g id="Group" transform="translate(38.000000, 38.000000)" fill="#3AB6FF" fill-rule="nonzero">
                    <path d="M54.5,0 C43.7788845,0 35,8.77888446 35,19.5 C35,30.2211155 43.7788845,39 54.5,39 C65.2211155,39 74,30.2211155 74,19.5 C74,8.77888446 65.2211155,0 54.5,0 Z" id="Shape"></path>
                    <path d="M15.7382022,75 L53.2617978,75 C61.9449438,75 69,67.8507295 69,59.0516274 L69,47.1099888 C69,45.4601571 67.6820225,44.0460157 65.9764045,44.0460157 C64.3483146,44.0460157 62.952809,45.3815937 62.952809,47.1099888 L62.952809,59.0516274 C62.952809,64.4725028 58.611236,68.9506173 53.1842697,68.9506173 L15.7382022,68.9506173 C10.388764,68.9506173 5.96966292,64.5510662 5.96966292,59.0516274 L5.96966292,21.026936 C5.96966292,15.6060606 10.311236,11.1279461 15.7382022,11.1279461 L27.5224719,11.1279461 C29.1505618,11.1279461 30.5460674,9.79236813 30.5460674,8.06397306 C30.5460674,6.335578 29.2280899,5 27.5224719,5 L15.7382022,5 C7.05505618,5.07856341 0,12.2278339 0,21.026936 L0,59.0516274 C0,67.8507295 7.05505618,75 15.7382022,75 Z" id="Shape"></path>
                </g>
            </g>
        </g>
    </g>
</svg>