<?xml version="1.0" encoding="UTF-8"?>
<svg width="150px" height="150px" viewBox="0 0 150 150" version="1.1" xmlns="http://www.w3.org/2000/svg" xmlns:xlink="http://www.w3.org/1999/xlink">
    <!-- Generator: Sketch 50.2 (55047) - http://www.bohemiancoding.com/sketch -->
    <title>professional-coaches-icon</title>
    <desc>Created with Sketch.</desc>
    <defs></defs>
    <g id="Page-4" stroke="none" stroke-width="1" fill="none" fill-rule="evenodd">
        <g id="Artboard-4" transform="translate(-450.000000, -386.000000)">
            <g id="professional-coaches-icon" transform="translate(450.000000, 386.000000)">
                <circle id="Oval-7-Copy" fill="#FFFFFF" cx="75" cy="75" r="75"></circle>
                <path d="M67.4208225,107.558407 C51.9836585,107.558407 39.4241314,94.9980739 39.4241314,79.5609099 C39.4241314,64.1237458 51.9836585,51.5634125 67.4208225,51.5634125 L81.4776238,51.578732 L83.7118441,53.8129522 L85.9412267,51.584376 L120.052796,51.6222714 L120.052796,77.187202 L95.317534,77.187202 C95.3836495,77.9765566 95.4167073,78.7691364 95.4167073,79.5609099 C95.4167073,94.9980739 82.8579865,107.558407 67.4208225,107.558407 Z M67.4167911,58.6942116 C55.9151121,58.6942116 46.5541242,68.0551995 46.5541242,79.5609099 C46.5541242,91.0666202 55.9143058,100.427608 67.4200162,100.427608 C78.9257266,100.427608 88.2859082,91.0666202 88.2859082,79.5609099 C88.2859082,77.8467445 88.0762737,76.1398356 87.6642612,74.4845292 L86.5604548,70.0572092 L112.921997,70.0572092 L112.921997,58.7450076 L88.8914295,58.7184002 L83.7102315,63.8979856 L78.5201644,58.7063059 L67.4167911,58.6942116 Z" id="Shape" fill="#3AB6FF" fill-rule="nonzero" transform="translate(79.738464, 79.560910) rotate(-17.000000) translate(-79.738464, -79.560910) "></path>
            </g>
        </g>
    </g>
</svg>