<?xml version="1.0" encoding="UTF-8"?>
<svg width="150px" height="150px" viewBox="0 0 150 150" version="1.1" xmlns="http://www.w3.org/2000/svg" xmlns:xlink="http://www.w3.org/1999/xlink">
    <!-- Generator: Sketch 50.2 (55047) - http://www.bohemiancoding.com/sketch -->
    <title>satisfaction-guarantee-icon</title>
    <desc>Created with Sketch.</desc>
    <defs></defs>
    <g id="Page-4" stroke="none" stroke-width="1" fill="none" fill-rule="evenodd">
        <g id="Artboard-4" transform="translate(-662.000000, -386.000000)">
            <g id="satisfaction-guarantee-icon" transform="translate(662.000000, 386.000000)">
                <circle id="Oval-7-Copy-2" fill="#FFFFFF" cx="75" cy="75" r="75"></circle>
                <g id="Group" transform="translate(24.000000, 24.000000)" fill="#3AB6FF" fill-rule="nonzero">
                    <g id="Shape">
                        <path d="M58.0741935,7.23870968 C58.0741935,7.56774194 57.9096774,7.81451613 57.6629032,8.06129032 C56.5935484,8.96612903 55.5241935,9.87096774 54.3725806,10.7758065 C54.0435484,11.0225806 54.0435484,11.2693548 54.1258065,11.5983871 C54.4548387,12.9145161 54.783871,14.2306452 55.1129032,15.6290323 C55.2774194,16.1225806 55.1129032,16.533871 54.7016129,16.8629032 C54.3725806,17.1096774 53.8790323,17.1096774 53.3854839,16.8629032 C52.1516129,16.1225806 51,15.3822581 49.766129,14.5596774 C49.5193548,14.3951613 49.3548387,14.3951613 49.1080645,14.5596774 C47.9564516,15.3 46.8048387,16.0403226 45.6532258,16.6983871 C45.3241935,16.9451613 44.9951613,17.0274194 44.583871,16.9451613 C44.0080645,16.7806452 43.6790323,16.2048387 43.8435484,15.6290323 C44.1725806,14.1483871 44.583871,12.75 44.9129032,11.2693548 C44.9951613,11.0225806 44.9129032,10.9403226 44.7483871,10.7758065 C43.6790323,9.95322581 42.6919355,9.0483871 41.7048387,8.14354839 C41.2935484,7.81451613 40.9645161,7.48548387 41.0467742,6.90967742 C41.0467742,6.33387097 41.4580645,5.92258065 42.033871,5.92258065 C43.5145161,5.84032258 45.0774194,5.75806452 46.5580645,5.59354839 C46.8048387,5.59354839 46.8870968,5.42903226 46.9693548,5.26451613 C47.4629032,4.03064516 47.9564516,2.79677419 48.5322581,1.48064516 C48.6145161,1.3983871 48.6145161,1.23387097 48.6967742,1.1516129 C48.9435484,0.740322581 49.2725806,0.493548387 49.766129,0.493548387 C50.2596774,0.493548387 50.5887097,0.740322581 50.7532258,1.23387097 C51.3290323,2.55 51.8225806,3.9483871 52.3983871,5.26451613 C52.233871,5.59354839 52.3983871,5.75806452 52.7274194,5.75806452 C54.0435484,5.84032258 55.3596774,5.92258065 56.6758065,6.00483871 C56.8403226,6.00483871 57.0870968,6.00483871 57.2516129,6.08709677 C57.7451613,6.2516129 58.0741935,6.74516129 58.0741935,7.23870968 Z"></path>
                        <path d="M86.8645161,25.0887097 C86.6177419,25.3354839 86.2887097,25.4177419 85.9596774,25.3354839 C84.5612903,25.1709677 83.1629032,25.0887097 81.7645161,24.9241935 C81.3532258,24.8419355 81.1887097,25.0064516 81.0241935,25.3354839 C80.366129,26.4870968 79.6258065,27.7209677 78.8854839,28.8725806 C78.6387097,29.283871 78.2274194,29.5306452 77.733871,29.4483871 C77.2403226,29.366129 76.9112903,29.0370968 76.8290323,28.4612903 C76.5,27.0629032 76.1709677,25.6645161 75.9241935,24.266129 C75.8419355,23.9370968 75.7596774,23.8548387 75.4306452,23.7725806 C74.1145161,23.4435484 72.7983871,23.1145161 71.4,22.8677419 C70.9887097,22.7854839 70.6596774,22.6209677 70.4951613,22.2919355 C70.166129,21.7983871 70.3306452,21.1403226 70.9064516,20.8112903 C72.2225806,20.0709677 73.4564516,19.2483871 74.7725806,18.5080645 C74.9370968,18.4258065 75.0193548,18.2612903 75.0193548,18.0967742 C74.9370968,16.7806452 74.7725806,15.3822581 74.6903226,14.066129 C74.6080645,13.5725806 74.6080645,13.0790323 75.0193548,12.75 C75.4306452,12.4209677 76.0064516,12.3387097 76.4177419,12.75 C77.5693548,13.7370968 78.7209677,14.7241935 79.7903226,15.7112903 C79.9548387,15.8758065 80.1193548,15.7935484 80.283871,15.7935484 C81.5177419,15.3 82.7516129,14.7241935 84.0677419,14.2306452 C84.15,14.1483871 84.3145161,14.1483871 84.3967742,14.066129 C84.8080645,13.9016129 85.2193548,13.983871 85.6306452,14.3129032 C85.9596774,14.6419355 86.0419355,15.0532258 85.8774194,15.5467742 C85.3016129,16.8629032 84.7258065,18.1790323 84.15,19.5774194 C84.0677419,19.8241935 84.0677419,19.9887097 84.2322581,20.2354839 C85.1370968,21.2225806 85.9596774,22.2096774 86.8645161,23.2790323 C87.0290323,23.4435484 87.1112903,23.6080645 87.1935484,23.7725806 C87.3580645,24.183871 87.2758065,24.6774194 86.8645161,25.0887097 Z"></path>
                        <path d="M94.7612903,58.0741935 C94.4322581,58.0741935 94.1854839,57.9096774 93.9387097,57.6629032 C93.033871,56.5935484 92.1290323,55.5241935 91.2241935,54.3725806 C90.9774194,54.0435484 90.7306452,54.0435484 90.4016129,54.1258065 C89.0854839,54.4548387 87.7693548,54.783871 86.3709677,55.1129032 C85.8774194,55.2774194 85.466129,55.1129032 85.1370968,54.7016129 C84.8903226,54.3725806 84.8903226,53.8790323 85.1370968,53.3854839 C85.8774194,52.1516129 86.6177419,51 87.4403226,49.766129 C87.6048387,49.5193548 87.6048387,49.3548387 87.4403226,49.1080645 C86.7,47.9564516 85.9596774,46.8048387 85.3016129,45.6532258 C85.0548387,45.3241935 84.9725806,44.9951613 85.0548387,44.583871 C85.2193548,44.0080645 85.7951613,43.6790323 86.3709677,43.8435484 C87.8516129,44.1725806 89.25,44.583871 90.7306452,44.9129032 C90.9774194,44.9951613 91.0596774,44.9129032 91.2241935,44.7483871 C92.0467742,43.6790323 92.9516129,42.6919355 93.8564516,41.7048387 C94.1854839,41.2935484 94.5145161,40.9645161 95.0903226,41.0467742 C95.666129,41.0467742 96.0774194,41.4580645 96.0774194,42.033871 C96.1596774,43.5145161 96.2419355,45.0774194 96.4064516,46.5580645 C96.4064516,46.8048387 96.5709677,46.8870968 96.7354839,46.9693548 C97.9693548,47.4629032 99.2032258,47.9564516 100.519355,48.5322581 C100.601613,48.6145161 100.766129,48.6145161 100.848387,48.6967742 C101.259677,48.9435484 101.506452,49.2725806 101.506452,49.766129 C101.506452,50.2596774 101.259677,50.5887097 100.766129,50.7532258 C99.45,51.3290323 98.0516129,51.8225806 96.7354839,52.3983871 C96.4887097,52.4806452 96.3241935,52.6451613 96.3241935,52.9741935 C96.2419355,54.2903226 96.1596774,55.6064516 96.0774194,56.9225806 C96.0774194,57.0870968 96.0774194,57.333871 95.9951613,57.4983871 C95.7483871,57.7451613 95.2548387,58.0741935 94.7612903,58.0741935 Z"></path>
                        <path d="M76.9112903,86.8645161 C76.6645161,86.6177419 76.5822581,86.2887097 76.6645161,85.9596774 C76.8290323,84.5612903 76.9112903,83.1629032 77.0758065,81.7645161 C77.1580645,81.3532258 76.9935484,81.1887097 76.6645161,81.0241935 C75.5129032,80.366129 74.2790323,79.6258065 73.1274194,78.8854839 C72.716129,78.6387097 72.4693548,78.2274194 72.5516129,77.733871 C72.633871,77.2403226 72.9629032,76.9112903 73.5387097,76.8290323 C74.9370968,76.5 76.3354839,76.1709677 77.733871,75.9241935 C78.0629032,75.8419355 78.1451613,75.7596774 78.2274194,75.4306452 C78.5564516,74.1145161 78.8854839,72.7983871 79.1322581,71.4 C79.2145161,70.9887097 79.3790323,70.6596774 79.7080645,70.4951613 C80.2016129,70.166129 80.8596774,70.3306452 81.1887097,70.9064516 C81.9290323,72.2225806 82.7516129,73.4564516 83.4919355,74.7725806 C83.5741935,74.9370968 83.7387097,75.0193548 83.9032258,75.0193548 C85.2193548,74.9370968 86.6177419,74.7725806 87.933871,74.6903226 C88.4274194,74.6080645 88.9209677,74.6080645 89.25,75.0193548 C89.5790323,75.4306452 89.6612903,76.0064516 89.25,76.4177419 C88.2629032,77.5693548 87.2758065,78.7209677 86.2887097,79.7903226 C86.1241935,79.9548387 86.2064516,80.1193548 86.2064516,80.283871 C86.7,81.5177419 87.2758065,82.7516129 87.7693548,84.0677419 C87.8516129,84.15 87.8516129,84.3145161 87.933871,84.3967742 C88.0983871,84.8080645 88.016129,85.2193548 87.6870968,85.6306452 C87.3580645,85.9596774 86.9467742,86.0419355 86.4532258,85.8774194 C85.1370968,85.3016129 83.8209677,84.7258065 82.4225806,84.15 C82.1758065,84.0677419 82.0112903,84.0677419 81.7645161,84.2322581 C80.7774194,85.1370968 79.7903226,85.9596774 78.7209677,86.8645161 C78.5564516,87.0290323 78.3919355,87.1112903 78.2274194,87.1935484 C77.816129,87.3580645 77.3225806,87.2758065 76.9112903,86.8645161 Z"></path>
                        <path d="M43.9258065,94.7612903 C43.9258065,94.4322581 44.0903226,94.1854839 44.3370968,93.9387097 C45.4064516,93.033871 46.4758065,92.1290323 47.6274194,91.2241935 C47.9564516,90.9774194 47.9564516,90.7306452 47.8741935,90.4016129 C47.5451613,89.0854839 47.216129,87.7693548 46.8870968,86.3709677 C46.7225806,85.8774194 46.8870968,85.466129 47.2983871,85.1370968 C47.6274194,84.8903226 48.1209677,84.8903226 48.6145161,85.1370968 C49.8483871,85.8774194 51,86.6177419 52.233871,87.4403226 C52.4806452,87.6048387 52.6451613,87.6048387 52.8919355,87.4403226 C54.0435484,86.7 55.1951613,85.9596774 56.3467742,85.3016129 C56.6758065,85.0548387 57.0048387,84.9725806 57.416129,85.0548387 C57.9919355,85.2193548 58.3209677,85.7951613 58.1564516,86.3709677 C57.8274194,87.8516129 57.416129,89.25 57.0870968,90.7306452 C57.0048387,90.9774194 57.0870968,91.0596774 57.2516129,91.2241935 C58.3209677,92.0467742 59.3080645,92.9516129 60.2951613,93.8564516 C60.7064516,94.1854839 61.0354839,94.5145161 60.9532258,95.0903226 C60.9532258,95.666129 60.5419355,96.0774194 59.966129,96.0774194 C58.4854839,96.1596774 56.9225806,96.2419355 55.4419355,96.4064516 C55.1951613,96.4064516 55.1129032,96.5709677 55.0306452,96.7354839 C54.5370968,97.9693548 54.0435484,99.2032258 53.4677419,100.519355 C53.3854839,100.601613 53.3854839,100.766129 53.3032258,100.848387 C53.0564516,101.259677 52.7274194,101.506452 52.233871,101.506452 C51.7403226,101.506452 51.4112903,101.259677 51.2467742,100.766129 C50.6709677,99.45 50.1774194,98.0516129 49.6016129,96.7354839 C49.5193548,96.4887097 49.3548387,96.3241935 49.0258065,96.3241935 C47.7096774,96.2419355 46.3935484,96.1596774 45.0774194,96.0774194 C44.9129032,96.0774194 44.666129,96.0774194 44.5016129,95.9951613 C44.2548387,95.7483871 43.9258065,95.2548387 43.9258065,94.7612903 Z"></path>
                        <path d="M15.1354839,76.9112903 C15.3822581,76.6645161 15.7112903,76.5822581 16.0403226,76.6645161 C17.4387097,76.8290323 18.8370968,76.9112903 20.2354839,77.0758065 C20.6467742,77.1580645 20.8112903,76.9935484 20.9758065,76.6645161 C21.633871,75.5129032 22.3741935,74.2790323 23.1145161,73.1274194 C23.3612903,72.716129 23.7725806,72.4693548 24.266129,72.5516129 C24.7596774,72.633871 25.0887097,72.9629032 25.1709677,73.5387097 C25.5,74.9370968 25.8290323,76.3354839 26.0758065,77.733871 C26.1580645,78.0629032 26.2403226,78.1451613 26.5693548,78.2274194 C27.8854839,78.5564516 29.2016129,78.8854839 30.6,79.1322581 C31.0112903,79.2145161 31.3403226,79.3790323 31.5048387,79.7080645 C31.833871,80.2016129 31.6693548,80.8596774 31.0935484,81.1887097 C29.7774194,81.9290323 28.5435484,82.7516129 27.2274194,83.4919355 C27.0629032,83.5741935 26.9806452,83.7387097 26.9806452,83.9032258 C27.0629032,85.2193548 27.2274194,86.6177419 27.3096774,87.933871 C27.3919355,88.4274194 27.3919355,88.9209677 26.9806452,89.25 C26.5693548,89.5790323 25.9935484,89.6612903 25.5822581,89.25 C24.4306452,88.2629032 23.2790323,87.2758065 22.2096774,86.2887097 C22.0451613,86.1241935 21.8806452,86.2064516 21.716129,86.2064516 C20.4822581,86.7 19.2483871,87.2758065 17.9322581,87.7693548 C17.85,87.8516129 17.6854839,87.8516129 17.6032258,87.933871 C17.1919355,88.0983871 16.7806452,88.016129 16.3693548,87.6870968 C16.0403226,87.3580645 15.9580645,86.9467742 16.1225806,86.4532258 C16.6983871,85.1370968 17.2741935,83.8209677 17.85,82.4225806 C17.9322581,82.1758065 17.9322581,82.0112903 17.7677419,81.7645161 C16.8629032,80.7774194 16.0403226,79.7903226 15.1354839,78.7209677 C14.9709677,78.5564516 14.8887097,78.3919355 14.8064516,78.2274194 C14.6419355,77.816129 14.7241935,77.3225806 15.1354839,76.9112903 Z"></path>
                        <path d="M7.23870968,43.9258065 C7.56774194,43.9258065 7.81451613,44.0903226 8.06129032,44.3370968 C8.96612903,45.4064516 9.87096774,46.4758065 10.7758065,47.6274194 C11.0225806,47.9564516 11.2693548,47.9564516 11.5983871,47.8741935 C12.9145161,47.5451613 14.2306452,47.216129 15.6290323,46.8870968 C16.1225806,46.7225806 16.533871,46.8870968 16.8629032,47.2983871 C17.1096774,47.6274194 17.1096774,48.1209677 16.8629032,48.6145161 C16.1225806,49.8483871 15.3822581,51 14.5596774,52.233871 C14.3951613,52.4806452 14.3951613,52.6451613 14.5596774,52.8919355 C15.3,54.0435484 16.0403226,55.1951613 16.6983871,56.3467742 C16.9451613,56.6758065 17.0274194,57.0048387 16.9451613,57.416129 C16.7806452,57.9919355 16.2048387,58.3209677 15.6290323,58.1564516 C14.1483871,57.8274194 12.75,57.416129 11.2693548,57.0870968 C11.0225806,57.0048387 10.9403226,57.0870968 10.7758065,57.2516129 C9.95322581,58.3209677 9.0483871,59.3080645 8.14354839,60.2951613 C7.81451613,60.7064516 7.48548387,61.0354839 6.90967742,60.9532258 C6.33387097,60.9532258 5.92258065,60.5419355 5.92258065,59.966129 C5.84032258,58.4854839 5.75806452,56.9225806 5.59354839,55.4419355 C5.59354839,55.1951613 5.42903226,55.1129032 5.26451613,55.0306452 C4.03064516,54.5370968 2.79677419,54.0435484 1.48064516,53.4677419 C1.3983871,53.3854839 1.23387097,53.3854839 1.1516129,53.3032258 C0.740322581,53.0564516 0.493548387,52.7274194 0.493548387,52.233871 C0.493548387,51.7403226 0.740322581,51.4112903 1.23387097,51.2467742 C2.55,50.6709677 3.9483871,50.1774194 5.26451613,49.6016129 C5.59354839,49.766129 5.75806452,49.6016129 5.75806452,49.2725806 C5.84032258,47.9564516 5.92258065,46.6403226 6.00483871,45.3241935 C6.00483871,45.1596774 6.00483871,44.9129032 6.08709677,44.7483871 C6.2516129,44.2548387 6.74516129,43.9258065 7.23870968,43.9258065 Z"></path>
                        <path d="M25.0887097,15.1354839 C25.3354839,15.3822581 25.4177419,15.7112903 25.3354839,16.0403226 C25.1709677,17.4387097 25.0887097,18.8370968 24.9241935,20.2354839 C24.8419355,20.6467742 25.0064516,20.8112903 25.3354839,20.9758065 C26.4870968,21.633871 27.7209677,22.3741935 28.8725806,23.1145161 C29.283871,23.3612903 29.5306452,23.7725806 29.4483871,24.266129 C29.366129,24.7596774 29.0370968,25.0887097 28.4612903,25.1709677 C27.0629032,25.5 25.6645161,25.8290323 24.266129,26.0758065 C23.9370968,26.1580645 23.8548387,26.2403226 23.7725806,26.5693548 C23.4435484,27.8854839 23.1145161,29.2016129 22.8677419,30.6 C22.7854839,31.0112903 22.6209677,31.3403226 22.2919355,31.5048387 C21.7983871,31.833871 21.1403226,31.6693548 20.8112903,31.0935484 C20.0709677,29.7774194 19.2483871,28.5435484 18.5080645,27.2274194 C18.4258065,27.0629032 18.2612903,26.9806452 18.0967742,26.9806452 C16.7806452,27.0629032 15.3822581,27.2274194 14.066129,27.3096774 C13.5725806,27.3919355 13.0790323,27.3919355 12.75,26.9806452 C12.4209677,26.5693548 12.3387097,25.9935484 12.75,25.5822581 C13.7370968,24.4306452 14.7241935,23.2790323 15.7112903,22.2096774 C15.8758065,22.0451613 15.7935484,21.8806452 15.7935484,21.716129 C15.3,20.4822581 14.7241935,19.2483871 14.2306452,17.9322581 C14.1483871,17.85 14.1483871,17.6854839 14.066129,17.6032258 C13.9016129,17.1919355 13.983871,16.7806452 14.3129032,16.3693548 C14.6419355,16.0403226 15.0532258,15.9580645 15.5467742,16.1225806 C16.8629032,16.6983871 18.1790323,17.2741935 19.5774194,17.85 C19.8241935,17.9322581 19.9887097,17.9322581 20.2354839,17.7677419 C21.2225806,16.8629032 22.2096774,16.0403226 23.2790323,15.1354839 C23.4435484,14.9709677 23.6080645,14.8887097 23.7725806,14.8064516 C24.183871,14.6419355 24.6774194,14.7241935 25.0887097,15.1354839 Z"></path>
                    </g>
                    <g transform="translate(27.000000, 25.000000)" id="Shape">
                        <path d="M46.0965517,16.354717 L45.9310345,16.1886792 C45.8482759,16.1056604 45.8482759,16.1056604 45.7655172,16.1056604 L45.6827586,16.0226415 C45.6827586,16.0226415 45.6,16.0226415 45.6,15.9396226 L45.3517241,15.8566038 C45.2689655,15.7735849 45.1034483,15.7735849 45.0206897,15.690566 C43.0344828,15.0264151 40.8827586,15.3584906 38.8965517,15.5245283 C38.8137931,15.5245283 38.7310345,15.5245283 38.6482759,15.5245283 C38.4827586,15.5245283 38.2344828,15.5245283 37.9034483,15.5245283 C37.8206897,15.5245283 37.6551724,15.5245283 37.4896552,15.5245283 C37.4068966,15.5245283 37.3241379,15.5245283 37.1586207,15.5245283 C36.7448276,15.5245283 36.2482759,15.5245283 35.8344828,15.6075472 C35.7517241,15.6075472 35.6689655,15.6075472 35.5862069,15.6075472 C35.5034483,15.6075472 35.4206897,15.6075472 35.4206897,15.6075472 C35.2551724,15.6075472 35.1724138,15.6075472 35.0068966,15.6075472 C34.7586207,15.6075472 34.5103448,15.690566 34.3448276,15.690566 C34.262069,15.690566 34.1793103,15.690566 34.1793103,15.690566 C34.1793103,15.690566 34.1793103,15.690566 34.1793103,15.690566 C34.1793103,15.690566 34.1793103,15.690566 34.1793103,15.690566 C34.0965517,15.690566 34.0965517,15.6075472 34.0965517,15.6075472 C34.0965517,15.6075472 34.0965517,15.6075472 34.0965517,15.6075472 L34.6758621,13.6150943 C35.0068966,12.3698113 35.4206897,11.1245283 35.7517241,9.87924528 C36.3310345,8.13584906 36.4965517,6.64150943 36.3310345,5.31320755 C36.1655172,3.56981132 35.0896552,1.90943396 33.6,0.996226415 C32.7724138,0.498113208 31.7793103,0.166037736 30.7862069,0.166037736 C30.7034483,0.166037736 30.6206897,0.166037736 30.537931,0.166037736 C29.6275862,0.166037736 29.0482759,0.747169811 28.9655172,1.66037736 C28.8827586,2.82264151 28.7172414,3.90188679 28.5517241,4.98113208 C28.3034483,6.80754717 27.8068966,8.30188679 27.062069,9.54716981 C26.6482759,10.2943396 26.1517241,10.9584906 25.5724138,11.5396226 C24.8275862,12.3698113 24,13.2830189 23.0896552,14.2792453 L21.0206897,16.6037736 C20.5241379,17.1849057 20.0275862,17.6830189 19.5310345,18.1811321 C19.4482759,18.2641509 19.2827586,18.4301887 19.1172414,18.5132075 C18.7862069,18.845283 18.3724138,19.0943396 17.9586207,19.2603774 C17.7103448,19.3433962 17.3793103,19.509434 16.9655172,19.5924528 C15.2275862,20.090566 14.2344828,20.5886792 14.1517241,21.5849057 C14.1517241,22.1660377 14.0689655,22.6641509 14.0689655,23.1622642 L14.0689655,23.4943396 C14.0689655,23.909434 14.0689655,24.4075472 14.0689655,24.8226415 L14.0689655,41.0113208 L16.8,41.0113208 L16.9655172,41.0113208 C17.8758621,41.1773585 18.8689655,41.3433962 20.1103448,41.509434 L20.6896552,41.5924528 C23.0896552,42.0075472 25.4068966,42.3396226 27.6413793,42.6716981 C33.1862069,43.3358491 39.8068966,44.9132075 43.862069,39.9320755 C45.5172414,37.8566038 45.6827586,34.9509434 46.0137931,32.4603774 C46.5931034,28.3924528 47.337931,24.2415094 47.9172414,20.1735849 C48,18.845283 47.337931,17.2679245 46.0965517,16.354717 Z"></path>
                        <path d="M9.26896552,17.6 L1.90344828,17.6 C0.910344828,17.6 0.165517241,18.3471698 0.165517241,19.3433962 L0.165517241,41.1773585 C0.165517241,42.1735849 0.910344828,42.9207547 1.90344828,42.9207547 L9.26896552,42.9207547 C10.262069,42.9207547 11.0068966,42.1735849 11.0068966,41.1773585 L11.0068966,19.3433962 C11.0068966,18.3471698 10.262069,17.6 9.26896552,17.6 Z"></path>
                    </g>
                </g>
            </g>
        </g>
    </g>
</svg>