<?xml version="1.0" encoding="UTF-8"?>
<svg width="150px" height="150px" viewBox="0 0 150 150" version="1.1" xmlns="http://www.w3.org/2000/svg" xmlns:xlink="http://www.w3.org/1999/xlink">
    <!-- Generator: Sketch 50.2 (55047) - http://www.bohemiancoding.com/sketch -->
    <title>savings-icon</title>
    <desc>Created with Sketch.</desc>
    <defs></defs>
    <g id="Page-4" stroke="none" stroke-width="1" fill="none" fill-rule="evenodd">
        <g id="Artboard-4" transform="translate(-1464.000000, -386.000000)">
            <g id="savings-icon" transform="translate(1464.000000, 386.000000)">
                <circle id="Oval-7-Copy-6" fill="#FFFFFF" cx="75" cy="75" r="75"></circle>
                <path d="M83.0414143,30 C72.4873711,30 63.9074641,38.5799367 63.9074641,49.1304114 C63.9074641,51.3315618 64.2820047,53.4462512 64.9687862,55.4158228 C63.7361033,55.6758006 62.5241622,55.983135 61.3406201,56.3429555 C58.0937597,53.7376761 53.4444169,53.1906596 49.5348621,55.2733814 C48.4443976,55.8554135 47.7606642,56.9881793 47.7606642,58.2258431 L47.7606642,63.5938607 C44.1176295,66.6619259 41.3093934,70.3158147 39.5212166,74.3093771 C35.3485617,74.4812584 32,77.9348669 32,82.1494513 L32,87.4018654 C32,91.6200183 35.3521302,95.070207 39.5212166,95.2454337 C41.3163816,99.246133 44.1176295,102.896082 47.7606642,105.957159 L47.7606642,112.920802 C47.7606642,117.24757 51.2881697,120.767716 55.6148635,120.767716 L60.8673519,120.767716 C64.56659,120.767716 67.6698195,118.197898 68.4972582,114.754698 C72.8941765,115.326247 77.3749836,115.248782 81.7088887,114.540515 C82.4591592,118.088985 85.6185177,120.76437 89.3913555,120.76437 L94.6434722,120.76437 C98.9703147,120.76437 102.490237,117.244076 102.487263,112.917308 L102.487263,104.617868 C107.718785,99.6599267 110.828705,93.4923491 111.389847,86.7917316 C114.787401,84.9158322 117,81.3113816 117,77.3281529 C117,74.4986547 115.902324,71.8162071 113.917735,69.7789832 C112.897376,68.7306712 111.309185,68.4679427 110.008181,69.1341312 C108.837202,69.7301398 108.135998,70.9501844 108.185139,72.2333462 C105.827424,67.9879837 102.287132,64.2218368 97.8307837,61.2488564 C100.539995,57.9473539 102.168034,53.7260042 102.168034,49.1304114 C102.168034,38.5799367 93.5884693,30 83.0414143,30 Z M83.0414143,37.0126355 C89.7209928,37.0126355 95.1555474,42.4509073 95.1555474,49.1304114 C95.1555474,55.8099155 89.7174986,61.2484104 83.0414143,61.2484104 C76.3583417,61.2484104 70.9197726,55.8099155 70.9197726,49.1304114 C70.9197726,42.4509073 76.3583417,37.0126355 83.0414143,37.0126355 Z M83.0414143,39.9334271 C77.9677954,39.9334271 73.8443556,44.0604353 73.8443556,49.1304114 C73.8443556,54.2006106 77.9677954,58.3274701 83.0414143,58.3274701 C88.1114647,58.3274701 92.2383987,54.2006106 92.2383987,49.1304114 C92.2383987,44.0604353 88.1079706,39.9334271 83.0414143,39.9334271 Z M83.0414143,43.4397448 C86.1795107,43.4397448 88.7320066,45.9958835 88.7320066,49.1304114 C88.7320066,52.2650881 86.1760166,54.8213011 83.0414143,54.8213011 C79.9067377,54.8213011 77.3506734,52.2650881 77.3506734,49.1304114 C77.3506734,45.9958835 79.9033922,43.4397448 83.0414143,43.4397448 Z M54.6773971,60.6562676 C55.8168537,60.6478668 57.052436,61.2581493 57.8414393,62.2475816 C58.7355637,63.3661478 60.2503786,63.8007575 61.5861753,63.3028818 C63.3494449,62.6662819 65.1970938,62.1652094 67.1093469,61.8033072 C66.4214503,62.4739563 66.0246812,63.4345434 66.1092836,64.4670204 C66.2599771,66.30441 67.7993252,67.7210177 69.7103591,67.528246 C76.852649,66.9637589 83.9390328,68.3836377 89.7068676,71.5428475 C90.2118059,71.823344 90.7691561,71.9566412 91.3091843,71.9566412 C92.4942876,71.9566412 93.637164,71.3291111 94.2473721,70.2210273 C94.8528223,69.1196343 94.7705245,67.8271796 94.1483471,66.8336585 C99.4833564,70.3991533 103.126391,75.2964304 104.33521,80.6837028 C104.507091,81.4411846 104.931367,82.1004592 105.520462,82.5703819 C105.068158,83.2118885 104.801564,84.0006687 104.801564,84.7755468 C104.801564,90.6172043 102.01407,96.237914 96.9543529,100.60676 C96.2216274,101.241427 95.797054,102.166776 95.797054,103.137994 L95.797054,112.920802 C95.797054,113.562457 95.2782879,114.077729 94.6401267,114.077729 L89.3874896,114.077729 C88.7424146,114.077729 88.2237972,113.562457 88.2237972,112.920802 L88.2237972,110.455957 C88.2237972,109.421621 87.7433921,108.443043 86.9229417,107.808376 C86.1024169,107.177352 85.0468193,106.956627 84.0334486,107.219504 C78.2482176,108.727182 71.9825071,108.850146 66.0918873,107.54929 C65.1030498,107.338899 64.0650715,107.569958 63.2760682,108.208268 C62.4907078,108.839292 62.0242792,109.800251 62.0242792,110.813621 L62.0242792,112.920802 C62.0242792,113.562457 61.5055131,114.077729 60.8673519,114.077729 L55.6148635,114.077729 C54.9697885,114.077729 54.450725,113.562457 54.450725,112.920802 L54.450725,104.351348 C54.450725,103.306531 53.9634804,102.321038 53.1289048,101.689939 C49.1913227,98.6884855 46.3687384,94.9335644 44.9664046,90.8277439 C44.5034701,89.4742535 43.2341361,88.5622867 41.8034776,88.5622867 L39.8505566,88.5622867 C39.2123954,88.5622867 38.6936293,88.0435206 38.6936293,87.4018654 L38.6936293,82.1494513 C38.6936293,81.5077961 39.2123954,80.9923754 39.8505566,80.9923754 L41.8034776,80.9923754 C43.2341361,80.9923754 44.5069642,80.0840514 44.9664046,78.7271412 C46.3617501,74.6282347 49.1914714,70.866028 53.136116,67.8611544 C53.9635547,67.2266361 54.450725,66.2446381 54.450725,65.1996716 L54.450725,60.6662296 C54.5256628,60.6602821 54.6014185,60.6569367 54.6773971,60.6562676 Z M55.6851921,74.2532481 C54.8333527,74.2532311 54.0163975,74.5916155 53.4140561,75.1939569 C52.8117147,75.7962983 52.4733303,76.6132535 52.4733473,77.4650929 C52.4733501,78.3169194 52.8117431,79.1338554 53.4140824,79.7361808 C54.0164217,80.3385061 54.8333656,80.6768803 55.6851921,80.6768633 C56.5370186,80.6768803 57.3539625,80.3385061 57.9563018,79.7361808 C58.5586411,79.1338554 58.8970341,78.3169194 58.8970369,77.4650929 C58.8970539,76.6132535 58.5586695,75.7962983 57.9563281,75.1939569 C57.3539867,74.5916155 56.5370315,74.2532311 55.6851921,74.2532481 Z" id="Shape" fill="#3AB6FF" fill-rule="nonzero"></path>
            </g>
        </g>
    </g>
</svg>