<?xml version="1.0" encoding="UTF-8"?>
<svg width="150px" height="150px" viewBox="0 0 150 150" version="1.1" xmlns="http://www.w3.org/2000/svg" xmlns:xlink="http://www.w3.org/1999/xlink">
    <!-- Generator: Sketch 50.2 (55047) - http://www.bohemiancoding.com/sketch -->
    <title>schedule-icon</title>
    <desc>Created with Sketch.</desc>
    <defs></defs>
    <g id="Page-4" stroke="none" stroke-width="1" fill="none" fill-rule="evenodd">
        <g id="Artboard-4" transform="translate(-860.000000, -386.000000)">
            <g id="schedule-icon" transform="translate(860.000000, 386.000000)">
                <circle id="Oval-7-Copy-3" fill="#FFFFFF" cx="75" cy="75" r="75"></circle>
                <path d="M93.9258978,76.7112735 C82.2427012,76.7112735 72.771599,86.1823757 72.771599,97.8655724 C72.771599,109.548769 82.2427012,119.019871 93.9258978,119.019871 C105.609094,119.019871 115.080197,109.548769 115.080197,97.8655724 C115.052285,86.1939566 105.597514,76.739185 93.9258978,76.7112735 Z M93.9258978,114.848244 C87.0810057,114.848244 80.9101057,110.72498 78.2906788,104.401124 C75.671252,98.0772684 77.1191496,90.7981955 81.9592193,85.9581259 C86.7992889,81.1180562 94.0783618,79.6701586 100.402218,82.2895854 C106.726073,84.9090122 110.849337,91.0799122 110.849337,97.9248044 C110.821457,107.259789 103.260883,114.820364 93.9258978,114.848244 Z M102.066072,103.044145 C102.671854,103.558593 102.93818,104.36917 102.755567,105.142657 C102.572954,105.916144 101.972217,106.522015 101.200313,106.711204 C100.428408,106.900394 99.6155939,106.640975 99.0960085,106.039593 L92.4450969,99.3886819 C92.0486063,98.9911895 91.8263887,98.4523878 91.8273914,97.8909575 L91.8273914,86.713026 C91.8273914,85.5447063 92.7745016,84.5975961 93.9428213,84.5975961 C95.1111409,84.5975961 96.0582511,85.5447063 96.0582511,86.713026 L96.0582511,97.0194004 L102.066072,103.044145 Z M50.9657477,105.371118 L66.6706992,105.371118 C67.8390188,105.371118 68.7861291,104.424007 68.7861291,103.255688 C68.7861291,102.087368 67.8390188,101.140258 66.6706992,101.140258 L53.9781198,101.140258 L53.9781198,90.0215584 C53.9734628,87.4531866 51.8925459,85.3722697 49.3241741,85.3676126 L38.2308598,85.3676126 L38.2308598,64.6025528 L97.1751981,64.6025528 L97.1751981,70.5257565 C97.1751981,71.2815269 97.5783967,71.9798875 98.232913,72.3577727 C98.8874293,72.7356578 99.6938267,72.7356578 100.348343,72.3577727 C101.002859,71.9798875 101.406058,71.2815269 101.406058,70.5257565 L101.406058,49.7099264 C101.401401,47.1415547 99.3204839,45.0606378 96.7521122,45.0559807 L89.4073396,45.0559807 L89.4073396,39.1158536 C89.4074533,38.5473987 89.1787799,38.0028184 88.7728617,37.6048594 C88.3669435,37.2069004 87.8179423,36.9890546 87.2496011,37.0004237 L77.4424681,37.0004237 C76.2741485,37.0004237 75.3270383,37.9475339 75.3270383,39.1158536 L75.3270383,45.0390573 L60.0959431,45.0390573 L60.0959431,39.1158536 C60.0959431,37.9475339 59.1488329,37.0004237 57.9805132,37.0004237 L48.1226099,37.0004237 C46.9542903,37.0004237 46.00718,37.9475339 46.00718,39.1158536 L46.00718,45.0390573 L38.6539458,45.0390573 C36.085574,45.0437143 34.0046571,47.1246312 34,49.693003 L34,88.4138316 C34.0079213,88.9676608 34.2327415,89.4962919 34.6261672,89.8861708 L49.4680233,104.753412 C49.8655157,105.149903 50.4043174,105.37212 50.9657477,105.371118 Z M49.781107,90.0215584 L49.781107,99.08406 L40.2955193,89.5984724 L49.358021,89.5984724 C49.5916849,89.5984724 49.781107,89.7878944 49.781107,90.0215584 Z M79.557898,41.2312835 L85.1764798,41.2312835 L85.1764798,50.6999476 L79.557898,50.6999476 L79.557898,41.2312835 Z M50.2380398,41.2312835 L55.8566216,41.2312835 L55.8566216,50.6999476 L50.2380398,50.6999476 L50.2380398,41.2312835 Z M38.6539458,49.269917 L45.9987183,49.269917 L45.9987183,52.7984541 C45.9987183,53.9667737 46.9458285,54.913884 48.1141482,54.913884 L57.9635898,54.913884 C59.1319094,54.913884 60.0790196,53.9667737 60.0790196,52.7984541 L60.0790196,49.269917 L75.3101148,49.269917 L75.3101148,52.7984541 C75.3101148,53.9667737 76.257225,54.913884 77.4255447,54.913884 L87.2496011,54.913884 C88.4179208,54.913884 89.365031,53.9667737 89.365031,52.7984541 L89.365031,49.269917 L96.7098036,49.269917 C96.9434675,49.269917 97.1328895,49.4593391 97.1328895,49.693003 L97.1328895,60.3716931 L38.2305208,60.3716931 L38.2308598,49.7099264 C38.2262516,49.5948146 38.2687838,49.4828012 38.3486328,49.3997583 C38.4284817,49.3167154 38.5387417,49.2698248 38.6539458,49.269917 Z" id="Shape" fill="#3AB6FF" fill-rule="nonzero"></path>
            </g>
        </g>
    </g>
</svg>