<?xml version="1.0" encoding="UTF-8"?>
<svg width="150px" height="150px" viewBox="0 0 150 150" version="1.1" xmlns="http://www.w3.org/2000/svg" xmlns:xlink="http://www.w3.org/1999/xlink">
    <!-- Generator: Sketch 50.2 (55047) - http://www.bohemiancoding.com/sketch -->
    <title>school-endorsed-icon</title>
    <desc>Created with Sketch.</desc>
    <defs></defs>
    <g id="Page-4" stroke="none" stroke-width="1" fill="none" fill-rule="evenodd">
        <g id="Artboard-4" transform="translate(-266.000000, -386.000000)">
            <g id="school-endorsed-icon" transform="translate(266.000000, 386.000000)">
                <circle id="Oval-7" fill="#FFFFFF" cx="75" cy="75" r="75"></circle>
                <g id="Group-15" transform="translate(46.000000, 32.000000)" fill="#3AB6FF" fill-rule="nonzero">
                    <path d="M19.3378724,34.1764512 L17.7534222,43.595651 C17.6235801,44.3670262 17.9340721,45.1479718 18.5569379,45.6073516 C18.9107107,45.8657528 19.3265818,45.9997385 19.7462165,45.9997385 C20.0679991,45.9997385 20.3916635,45.9212611 20.6871014,45.7623923 L28.9988786,41.3140647 L37.3163011,45.7623923 C37.9993835,46.1279821 38.8273623,46.0686455 39.4464645,45.6054375 C40.0693303,45.1460578 40.3817041,44.3670262 40.251862,43.595651 L38.6617665,34.1745371 L45.3909753,27.5039598 C45.9423339,26.9565322 46.1380379,26.1411331 45.9009349,25.396555 C45.6619502,24.6519769 45.0315573,24.1102916 44.2694405,23.9973607 L34.9734977,22.6230495 L30.8129047,14.0537024 C30.1335858,12.6487659 27.8679349,12.6487659 27.188616,14.0537024 L23.0317865,22.6230495 L13.7320802,23.9973607 C12.9699634,24.1102916 12.3376887,24.6519769 12.098704,25.396555 C11.861601,26.139219 12.0591868,26.9565322 12.6105454,27.5039598 L19.3378724,34.1764512 Z M24.6632809,26.5354341 C25.3219004,26.4397299 25.8901949,26.0167177 26.1856327,25.4118677 L29.0007603,19.6083697 L31.8215333,25.4118677 C32.1150894,26.0205459 32.6833838,26.4397299 33.343885,26.5354341 L39.638405,27.4675922 L35.0807586,31.9848268 C34.6046708,32.4576052 34.3882673,33.1390185 34.4992917,33.8051192 L35.575664,40.184756 L29.943527,37.1719903 C29.3526513,36.8542526 28.6488694,36.8542526 28.0598754,37.1719903 L22.4296202,40.184756 L23.5041107,33.8051192 C23.6170169,33.1390185 23.3987316,32.4576052 22.9245257,31.9848268 L18.368761,27.4675922 L24.6632809,26.5354341 Z" id="Shape"></path>
                    <path d="M29.0019232,0 C13.0104781,0 0,12.8326138 0,28.6054422 C0,36.3353611 3.13674647,43.3463501 8.20631342,48.4983647 L0.330791167,79.8258765 C0.130777903,80.6320644 0.444260229,81.4799843 1.12699781,81.9674908 C1.8116586,82.4549974 2.72710392,82.485348 3.43868957,82.0395735 L13.8470721,75.5711015 L20.1359507,86.0041209 C20.5109755,86.6282051 21.1917899,87 21.9110684,87 C22.0149214,87 22.1168513,86.9924123 22.2207043,86.9753401 C23.0515286,86.8520408 23.722727,86.2450288 23.920817,85.436944 L28.9384575,64.8554422 L34.0811062,85.4483255 C34.2811194,86.2507195 34.9523178,86.8539377 35.7831421,86.977237 C35.885072,86.9924123 35.9850786,87 36.0850852,87 C36.8082101,87 37.4871013,86.6282051 37.8621261,86.0041209 L44.1510047,75.5711015 L54.5593872,82.0395735 C55.2748193,82.485348 56.1902646,82.4549974 56.871079,81.9674908 C57.5538166,81.4799843 57.8692221,80.6320644 57.6672856,79.8258765 L49.7917634,48.4983647 C54.8632535,43.3463501 58,36.3334642 58,28.6035453 C58,12.8326138 44.9895219,0 29.0019232,0 Z M29.0019232,4.0764652 C42.7124478,4.0764652 53.8689568,15.0785583 53.8689568,28.6054422 C53.8689568,42.1304291 42.7124478,53.1325222 29.0019232,53.1325222 C15.2875522,53.1325222 4.13104317,42.1304291 4.13104317,28.6054422 C4.13104317,15.0785583 15.2875522,4.0764652 29.0019232,4.0764652 Z M21.0898601,79.6115254 L16.3145434,71.6919152 C16.0299091,71.2176871 15.5644937,70.8781397 15.0240732,70.7491497 C14.4721135,70.6182627 13.9086146,70.7131083 13.4374295,71.0090267 L5.57729292,75.8916797 L11.7065455,51.508765 C15.9337489,54.6234956 21.0321639,56.632326 26.5844552,57.0837912 L21.0898601,79.6115254 Z M44.5606473,71.0090267 C44.0894622,70.7150052 43.5240401,70.6182627 42.9759268,70.7491497 C42.4355063,70.8781397 41.9700909,71.2176871 41.6835334,71.6919152 L36.8870615,79.6437729 L31.2520724,57.0932758 C36.8678294,56.6645735 42.0239406,54.6538462 46.2915313,51.510662 L52.4207839,75.8916797 L44.5606473,71.0090267 Z" id="Shape"></path>
                </g>
            </g>
        </g>
    </g>
</svg>