<?xml version="1.0" encoding="UTF-8"?>
<svg width="150px" height="150px" viewBox="0 0 150 150" version="1.1" xmlns="http://www.w3.org/2000/svg" xmlns:xlink="http://www.w3.org/1999/xlink">
    <!-- Generator: Sketch 50.2 (55047) - http://www.bohemiancoding.com/sketch -->
    <title>tracking-icon</title>
    <desc>Created with Sketch.</desc>
    <defs></defs>
    <g id="Page-4" stroke="none" stroke-width="1" fill="none" fill-rule="evenodd">
        <g id="Artboard-4" transform="translate(-1262.000000, -386.000000)">
            <g id="tracking-icon" transform="translate(1262.000000, 386.000000)">
                <circle id="Oval-7-Copy-5" fill="#FFFFFF" cx="75" cy="75" r="75"></circle>
                <g id="Group-2" transform="translate(38.000000, 32.000000)" fill="#3AB6FF" fill-rule="nonzero">
                    <path d="M59.1141124,14.4948522 C57.9045546,11.6681791 56.1751775,9.13003234 53.9706969,6.95226703 C51.7673342,4.77229079 49.200657,3.06103155 46.3422103,1.86602429 C43.3831534,0.627903907 40.2396445,0 37.0022328,0 C33.7614675,0 30.6179586,0.627903907 27.6589017,1.86602429 C24.8015729,3.06213701 22.2337778,4.77229079 20.031533,6.95226703 C17.8259345,9.13003234 16.0965574,11.6692846 14.8869996,14.4948522 C13.6338441,17.4221225 13,20.530689 13,23.73322 C13,29.1124109 16.8488979,37.78257 24.4393763,49.500495 C30.0053545,58.0932715 35.649585,65.2832134 35.7054795,65.3550686 L37.0011149,67 L38.2933967,65.3550686 C38.3504091,65.2843189 43.9957575,58.094377 49.5606178,49.500495 C57.1510962,37.78257 60.9999941,29.1124109 60.9999941,23.73322 C61.0022299,20.530689 60.3672679,17.423228 59.1141124,14.4948522 Z M37.0011149,31.8727561 C31.8644068,31.8727561 27.6991458,27.7537949 27.6991458,22.6730795 C27.6991458,17.592364 31.8655247,13.4734029 37.0011149,13.4734029 C42.1400588,13.4734029 46.3030841,17.592364 46.3030841,22.6730795 C46.3030841,27.7537949 42.1400588,31.8727561 37.0011149,31.8727561 Z" id="Shape"></path>
                    <path d="M58.3080429,49 C57.1896564,50.9189369 56.0221102,52.8334826 54.8400394,54.7118012 C63.8575188,57.4222447 69.3902357,62.1021234 69.3902357,66.4570562 C69.3902357,73.1019789 56.4980668,80.5076701 37.9994414,80.5076701 C19.5008159,80.5076701 6.60864708,73.1019789 6.60864708,66.4570562 C6.60864708,62.1021234 12.1424812,57.4222447 21.1599606,54.7118012 C19.9756553,52.8334826 18.8092263,50.9189369 17.6908399,49 C6.98740132,52.5952622 0,59.00416 0,66.4570562 C0,77.9750686 16.690884,87 37.9994414,87 C59.309116,87 76,77.9750686 76,66.4570562 C76,59.0052578 69.0125987,52.59636 58.3080429,49 Z" id="Shape"></path>
                </g>
            </g>
        </g>
    </g>
</svg>