<svg xmlns="http://www.w3.org/2000/svg" width="200" height="46" viewBox="0 0 200 46">
  <path fill="#6D239C" fill-rule="evenodd" d="M34.3726611 27.8037855C33.7580952 29.2680265 32.8421289 30.6435928 31.6286835 31.8440265 30.4157983 33.043906 29.0253221 33.9500506 27.5446499 34.5585807 26.0645378 35.1665566 24.4947899 35.4769181 22.9228011 35.4846771 21.3508123 35.4929904 19.7765826 35.1992554 18.2880672 34.5990386L21.0068347 28.2704361C21.6701401 28.553641 22.357535 28.6927494 23.0382073 28.6927494 23.7188796 28.6927494 24.3939496 28.553641 25.0320448 28.2826289 25.6707003 28.0110627 26.2729412 27.6070386 26.8096359 27.0760988 27.3457703 26.5457133 27.7541737 25.9493759 28.0286835 25.3181229 28.3031933 24.6863157 28.4432493 24.0190386 28.4432493 23.3451108 28.4432493 22.6717373 28.3031933 21.9922675 28.0163585 21.3360747 27.7295238 20.6798819 27.2964706 20.0469663 26.7104762 19.4672554 26.1244818 18.8880988 25.4847059 18.4591349 24.8219608 18.1753759 24.1586555 17.8916169 23.4712605 17.7530627 22.7905882 17.7530627 22.109916 17.7530627 21.4354062 17.8916169 20.7967507 18.1631831 20.1580952 18.4347494 19.5558543 18.8387735 19.0191597 19.3697133 18.4830252 19.9000988 18.0746218 20.4958819 17.800112 21.1276892 17.5256022 21.7594964 17.3855462 22.4267735 17.3855462 23.100147 17.3855462 23.7740747 17.5256022 24.4535446 17.812437 25.1097373L11.4146779 27.799906C10.8085154 26.3273518 10.5110364 24.7700024 10.5194398 23.2148699 10.5278431 21.6597373 10.8410084 20.1062675 11.4561345 18.6420265 12.0707003 17.1777855 12.9866667 15.8022193 14.200112 14.6017855 15.4129972 13.401906 16.8034734 12.4957614 18.2835854 11.8872313 19.7642577 11.2792554 21.3340056 10.968894 22.9059944 10.9611349 24.4785434 10.9528217 26.0522129 11.2465566 27.5407283 11.8467735 29.0292437 12.4464361 30.432605 13.3525807 31.6617367 14.5690867 32.8914286 15.7855928 33.807395 17.1733518 34.4141176 18.645906 35.0208403 20.1184602 35.3177591 21.6758096 35.3093557 23.2309422 35.3009524 24.7860747 34.9877871 26.3395446 34.3726611 27.8037855M22.9143978.554050602C10.2589356.554050602.000112044818 10.7034241.000112044818 23.2226289.000112044818 35.742388 10.2589356 45.8917614 22.9143978 45.8917614 35.5698599 45.8917614 45.8286835 35.742388 45.8286835 23.2226289 45.8286835 10.7034241 35.5698599.554050602 22.9143978.554050602M100.383529 20.7878988L100.383529 33.9294892 93.8927731 33.9294892 93.8927731 21.7295133C93.8927731 19.0759229 92.2053782 17.8339229 90.1286275 17.8339229 87.7487955 17.8339229 86.1039776 19.203947 86.1039776 22.2432723L86.1039776 33.9294892 79.6137815 33.9294892 79.6137815 6.84601928 86.1039776 3.96464578 86.1039776 14.5379952C87.272605 12.9540434 89.4361905 11.9270795 92.2922129 11.9270795 96.6619608 11.9270795 100.383529 15.0090795 100.383529 20.7878988M152.828067 23.2278386C152.828067 20.1885133 150.664482 18.176706 147.852157 18.176706 145.039272 18.176706 142.875686 20.1885133 142.875686 23.2278386 142.875686 26.2671639 145.039272 28.2789711 147.852157 28.2789711 150.664482 28.2789711 152.828067 26.2671639 152.828067 23.2278386M136.38493 23.2278386C136.38493 16.8493566 141.491373 11.9268024 147.852157 11.9268024 154.212941 11.9268024 159.318824 16.8493566 159.318824 23.2278386 159.318824 29.6057663 154.212941 34.5288747 147.852157 34.5288747 141.491373 34.5288747 136.38493 29.6057663 136.38493 23.2278386M175.978151 12.5688627L175.978151 19.3752C173.295238 18.9467904 169.487395 20.0169831 169.487395 24.2550795L169.487395 33.9294892 162.997199 33.9294892 162.997199 12.526188 169.487395 12.526188 169.487395 16.3358747C170.352941 13.4678024 173.252101 12.5688627 175.978151 12.5688627M104.364706 33.9609687L110.855462 33.9609687 110.855462 12.5576675 104.364706 12.5576675 104.364706 33.9609687zM103.715966 6.82152289C103.715966 4.72381205 105.489636 2.96916145 107.610084 2.96916145 109.730532 2.96916145 111.504762 4.72381205 111.504762 6.82152289 111.504762 8.91867952 109.730532 10.6738843 107.610084 10.6738843 105.489636 10.6738843 103.715966 8.91867952 103.715966 6.82152289zM199.993221 12.5262988L196.293501 22.9067807C196.293501 22.9067807 192.533277 33.9268289 192.502465 34.0099614 191.303585 37.2560096 189.763529 39.1032145 187.79098 40.5536 185.792661 42.0228289 183.351204 42.6258169 180.372493 42.4955759 180.336078 42.4939133 177.096863 42.5149735 177.059888 42.5129203L177.059888 37.918853C177.059888 37.918853 181.700224 37.8977928 181.779216 37.8966843 182.854846 37.8966843 185.670532 37.2742988 185.670532 34.0099614L181.36521 22.7355277 177.059888 12.5262988 180.629636 12.5262988 184.199384 12.5262988 186.601064 19.0754795 189.002745 25.6252145 191.036359 19.0754795 193.069972 12.5262988 196.531597 12.5262988 199.993221 12.5262988zM125.449748 28.2790819C122.62958 28.2790819 120.343866 26.0173229 120.343866 23.2279494 120.343866 19.9248169 122.771877 18.1768169 125.449748 18.1768169 127.283361 18.1768169 128.886723 19.1361663 129.787003 20.5721422L135.302969 17.4064554C133.442465 14.1099735 129.721457 11.9269133 125.524258 11.9269133 118.947227 11.9269133 114.057591 16.8494675 114.057591 23.2279494 114.057591 29.6058771 118.947227 34.5289855 125.524258 34.5289855 129.764594 34.5289855 133.442465 32.3453711 135.302969 29.0067687L129.858151 25.9225518C128.972997 27.4233711 127.332661 28.2790819 125.449748 28.2790819M67.1634174 28.2790819C64.3432493 28.2790819 62.057535 26.0173229 62.057535 23.2279494 62.057535 19.9248169 64.4855462 18.1768169 67.1634174 18.1768169 68.9970308 18.1768169 70.6003922 19.1361663 71.5006723 20.5721422L77.0166387 17.4064554C75.1561345 14.1099735 71.4351261 11.9269133 67.2379272 11.9269133 60.6608964 11.9269133 55.7712605 16.8494675 55.7712605 23.2279494 55.7712605 29.6058771 60.6608964 34.5289855 67.2379272 34.5289855 71.4782633 34.5289855 75.1561345 32.3453711 77.0166387 29.0067687L71.5718207 25.9225518C70.6866667 27.4233711 69.0463305 28.2790819 67.1634174 28.2790819"/>
</svg>
