<svg width="312" height="75" viewBox="0 0 312 75" fill="none" xmlns="http://www.w3.org/2000/svg">
<path d="M301.959 34.0154C300.046 34.0154 298.328 33.7161 296.804 33.1173C295.28 32.5036 294.054 31.613 293.128 30.4455C292.202 29.263 291.679 27.826 291.559 26.1346H297.14C297.26 27.2872 297.723 28.1853 298.53 28.8289C299.351 29.4576 300.465 29.7719 301.869 29.7719C303.229 29.7719 304.297 29.5025 305.074 28.9636C305.866 28.4248 306.262 27.7362 306.262 26.898C306.262 26.1795 305.971 25.6032 305.388 25.1692C304.82 24.7351 304.036 24.4133 303.035 24.2037L299 23.373C296.729 22.894 295.011 22.0782 293.845 20.9256C292.68 19.7731 292.097 18.3062 292.097 16.525C292.097 15.073 292.486 13.8007 293.262 12.708C294.054 11.6154 295.16 10.7622 296.58 10.1485C298.014 9.53476 299.695 9.22791 301.623 9.22791C303.535 9.22791 305.216 9.54972 306.666 10.1934C308.13 10.837 309.273 11.7501 310.095 12.9326C310.932 14.1001 311.372 15.4996 311.417 17.1312H306.105C306.09 16.0684 305.679 15.1928 304.873 14.5042C304.081 13.8157 303.042 13.4714 301.757 13.4714C300.517 13.4714 299.538 13.7483 298.821 14.3022C298.104 14.856 297.745 15.537 297.745 16.3453C297.745 17.0488 298.022 17.6251 298.574 18.0742C299.127 18.5083 299.897 18.8376 300.883 19.0621L305.141 19.9377C307.487 20.4317 309.213 21.21 310.319 22.2728C311.44 23.3355 312 24.7351 312 26.4714C312 28.0131 311.567 29.3528 310.7 30.4904C309.848 31.613 308.668 32.4812 307.159 33.0949C305.649 33.7086 303.916 34.0154 301.959 34.0154Z" fill="#F43D00"/>
<path d="M278.368 33.9257C276.186 33.9257 274.296 33.529 272.697 32.7357C271.113 31.9424 269.888 30.8123 269.021 29.3454C268.17 27.8635 267.744 26.1122 267.744 24.0915V9.74438H273.392V23.7772C273.392 24.8998 273.586 25.8578 273.975 26.6511C274.363 27.4444 274.931 28.0506 275.678 28.4697C276.425 28.8888 277.322 29.0984 278.368 29.0984C279.444 29.0984 280.348 28.8888 281.08 28.4697C281.812 28.0506 282.372 27.4444 282.761 26.6511C283.149 25.8578 283.343 24.8998 283.343 23.7772V9.74438H289.014V24.0915C289.014 26.1122 288.581 27.8635 287.714 29.3454C286.862 30.8123 285.645 31.9424 284.061 32.7357C282.477 33.529 280.579 33.9257 278.368 33.9257Z" fill="#F43D00"/>
<path d="M249.666 26.0449V19.354H250.227L259.438 9.74437H266.23L255.247 21.4421H254.126L249.666 26.0449ZM244.511 33.4542V0H250.159V33.4542H244.511ZM260.066 33.4542L251.863 22.6994L255.673 18.7478L266.812 33.4542H260.066Z" fill="#F43D00"/>
<path d="M231.342 33.9931C229.041 33.9931 227.017 33.4692 225.268 32.4214C223.535 31.3736 222.183 29.9217 221.212 28.0656C220.255 26.2096 219.777 24.0616 219.777 21.6218C219.777 19.1819 220.255 17.034 221.212 15.1779C222.183 13.3069 223.535 11.8475 225.268 10.7997C227.017 9.73694 229.041 9.20557 231.342 9.20557C232.837 9.20557 234.211 9.43009 235.466 9.87914C236.721 10.3132 237.82 10.9344 238.761 11.7427C239.702 12.551 240.457 13.509 241.025 14.6166C241.608 15.7093 241.959 16.9142 242.078 18.2315H236.542C236.438 17.5878 236.251 17.0041 235.982 16.4802C235.713 15.9563 235.354 15.5072 234.906 15.133C234.473 14.7438 233.965 14.4445 233.382 14.2349C232.799 14.0254 232.142 13.9206 231.41 13.9206C230.184 13.9206 229.123 14.2349 228.227 14.8636C227.345 15.4923 226.665 16.3829 226.187 17.5354C225.724 18.688 225.492 20.0501 225.492 21.6218C225.492 23.1785 225.724 24.5331 226.187 25.6857C226.665 26.8233 227.345 27.7064 228.227 28.3351C229.108 28.9637 230.169 29.2781 231.41 29.2781C232.142 29.2781 232.792 29.1808 233.359 28.9862C233.942 28.7766 234.443 28.4847 234.861 28.1105C235.28 27.7214 235.623 27.2573 235.892 26.7185C236.161 26.1796 236.363 25.5884 236.497 24.9447H242.078C241.974 26.247 241.637 27.4519 241.07 28.5596C240.517 29.6523 239.762 30.6102 238.806 31.4335C237.85 32.2418 236.736 32.8705 235.466 33.3195C234.211 33.7686 232.837 33.9931 231.342 33.9931Z" fill="#F43D00"/>
<path d="M206.563 33.9257C204.382 33.9257 202.492 33.529 200.893 32.7357C199.309 31.9424 198.084 30.8123 197.217 29.3454C196.365 27.8635 195.939 26.1122 195.939 24.0915V9.74438H201.588V23.7772C201.588 24.8998 201.782 25.8578 202.17 26.6511C202.559 27.4444 203.127 28.0506 203.874 28.4697C204.621 28.8888 205.517 29.0984 206.563 29.0984C207.639 29.0984 208.543 28.8888 209.275 28.4697C210.007 28.0506 210.568 27.4444 210.956 26.6511C211.345 25.8578 211.539 24.8998 211.539 23.7772V9.74438H217.21V24.0915C217.21 26.1122 216.776 27.8635 215.91 29.3454C215.058 30.8123 213.84 31.9424 212.256 32.7357C210.672 33.529 208.775 33.9257 206.563 33.9257Z" fill="#F43D00"/>
<path d="M168 33.4542V0H181.022C183.473 0 185.587 0.434081 187.365 1.30224C189.158 2.1704 190.54 3.40529 191.511 5.0069C192.483 6.60851 192.968 8.502 192.968 10.6874C192.968 12.8578 192.453 14.7363 191.422 16.3229C190.406 17.9096 188.971 19.137 187.118 20.0051C185.281 20.8583 183.121 21.2849 180.641 21.2849H171.496V16.3903H180.731C182.046 16.3903 183.181 16.1583 184.137 15.6943C185.094 15.2303 185.833 14.5716 186.356 13.7185C186.879 12.8653 187.141 11.8549 187.141 10.6874C187.141 9.51984 186.879 8.51697 186.356 7.67874C185.833 6.84052 185.094 6.18939 184.137 5.72538C183.181 5.26136 182.031 5.02935 180.686 5.02935H173.917V33.4542H168ZM187.074 33.4542L179.296 18.3661H185.662L193.596 33.4542H187.074Z" fill="#F43D00"/>
<path d="M249.89 75C247.978 75 246.259 74.7007 244.735 74.1019C243.211 73.4882 241.986 72.5976 241.06 71.4301C240.133 70.2476 239.61 68.8106 239.491 67.1192H245.072C245.191 68.2718 245.654 69.1699 246.461 69.8135C247.283 70.4422 248.396 70.7565 249.801 70.7565C251.161 70.7565 252.229 70.4871 253.006 69.9482C253.798 69.4094 254.194 68.7208 254.194 67.8826C254.194 67.1641 253.902 66.5879 253.32 66.1538C252.752 65.7197 251.967 65.3979 250.966 65.1883L246.932 64.3576C244.661 63.8786 242.942 63.0628 241.777 61.9103C240.611 60.7577 240.029 59.2908 240.029 57.5096C240.029 56.0576 240.417 54.7853 241.194 53.6927C241.986 52.6 243.092 51.7468 244.511 51.1331C245.946 50.5194 247.627 50.2125 249.554 50.2125C251.467 50.2125 253.148 50.5343 254.597 51.178C256.062 51.8216 257.205 52.7347 258.026 53.9172C258.863 55.0847 259.304 56.4842 259.349 58.1158H254.037C254.022 57.053 253.611 56.1774 252.804 55.4889C252.012 54.8003 250.974 54.456 249.689 54.456C248.449 54.456 247.47 54.733 246.753 55.2868C246.035 55.8406 245.677 56.5217 245.677 57.33C245.677 58.0335 245.953 58.6097 246.506 59.0588C247.059 59.4929 247.828 59.8222 248.815 60.0467L253.073 60.9223C255.419 61.4163 257.145 62.1947 258.251 63.2574C259.371 64.3202 259.932 65.7197 259.932 67.456C259.932 68.9977 259.498 70.3374 258.632 71.475C257.78 72.5976 256.599 73.4658 255.09 74.0795C253.581 74.6932 251.848 75 249.89 75Z" fill="#F43D00"/>
<path d="M227.823 74.9102C226.792 74.9102 225.821 74.7605 224.91 74.4611C224.013 74.1618 223.199 73.7127 222.467 73.114C221.749 72.5003 221.144 71.7369 220.651 70.8238H220.606V74.4387H215.048V40.9845H220.696V54.0967H220.741C221.249 53.2286 221.861 52.5101 222.579 51.9413C223.296 51.3725 224.095 50.9534 224.977 50.684C225.873 50.3996 226.83 50.2574 227.846 50.2574C229.893 50.2574 231.678 50.7738 233.203 51.8066C234.742 52.8394 235.937 54.2838 236.789 56.1399C237.64 57.996 238.066 60.1364 238.066 62.5613C238.066 65.0161 237.64 67.1716 236.789 69.0276C235.952 70.8837 234.764 72.3281 233.225 73.3609C231.686 74.3938 229.885 74.9102 227.823 74.9102ZM226.501 70.1727C227.666 70.1727 228.683 69.8808 229.549 69.2971C230.431 68.7133 231.118 67.8526 231.611 66.715C232.104 65.5774 232.351 64.1929 232.351 62.5613C232.351 60.9298 232.104 59.5527 231.611 58.4301C231.118 57.2925 230.431 56.4318 229.549 55.848C228.683 55.2493 227.666 54.9499 226.501 54.9499C225.261 54.9499 224.185 55.2643 223.273 55.8929C222.362 56.5216 221.652 57.4047 221.144 58.5423C220.636 59.6799 220.382 61.0196 220.382 62.5613C220.382 64.103 220.636 65.4502 221.144 66.6028C221.652 67.7403 222.362 68.6235 223.273 69.2521C224.185 69.8658 225.261 70.1727 226.501 70.1727Z" fill="#F43D00"/>
<path d="M198.808 74.8204C197.239 74.8204 195.835 74.5585 194.595 74.0346C193.369 73.5107 192.398 72.7174 191.681 71.6546C190.979 70.5919 190.627 69.2747 190.627 67.703C190.627 66.3559 190.881 65.2482 191.389 64.38C191.898 63.4969 192.585 62.7934 193.451 62.2695C194.318 61.7456 195.312 61.349 196.432 61.0795C197.553 60.7951 198.719 60.5931 199.929 60.4733C201.393 60.3087 202.551 60.1665 203.403 60.0467C204.27 59.912 204.89 59.7249 205.263 59.4854C205.637 59.2309 205.824 58.8343 205.824 58.2954V58.1158C205.824 57.4273 205.652 56.8285 205.308 56.3196C204.964 55.7957 204.464 55.3916 203.806 55.1072C203.164 54.8078 202.394 54.6581 201.498 54.6581C200.586 54.6581 199.779 54.8078 199.077 55.1072C198.39 55.3916 197.844 55.7957 197.441 56.3196C197.038 56.8285 196.806 57.4198 196.746 58.0934H191.3C191.404 56.5217 191.875 55.1521 192.712 53.9846C193.564 52.8021 194.744 51.889 196.253 51.2454C197.762 50.5867 199.548 50.2574 201.61 50.2574C203.149 50.2574 204.524 50.4446 205.734 50.8188C206.959 51.178 207.99 51.7094 208.827 52.4129C209.679 53.1164 210.321 53.9621 210.754 54.95C211.203 55.9379 211.427 57.0456 211.427 58.273V74.4387H205.868V71.0933H205.779C205.405 71.7968 204.92 72.433 204.322 73.0018C203.724 73.5556 202.977 73.9972 202.081 74.3265C201.184 74.6558 200.093 74.8204 198.808 74.8204ZM200.198 70.6218C201.438 70.6218 202.477 70.3973 203.313 69.9483C204.15 69.4992 204.778 68.9005 205.196 68.1521C205.629 67.4036 205.846 66.5729 205.846 65.6598V63.1003C205.667 63.205 205.405 63.3098 205.062 63.4146C204.718 63.5194 204.307 63.6241 203.829 63.7289C203.366 63.8187 202.858 63.9085 202.305 63.9984C201.767 64.0882 201.206 64.178 200.624 64.2678C199.817 64.3726 199.07 64.5597 198.382 64.8291C197.71 65.0836 197.165 65.4428 196.746 65.9068C196.343 66.3559 196.141 66.9396 196.141 67.6581C196.141 68.2718 196.305 68.8032 196.634 69.2522C196.978 69.7013 197.449 70.0455 198.046 70.285C198.659 70.5096 199.376 70.6218 200.198 70.6218Z" fill="#F43D00"/>
<path d="M168 74.4387V40.9845H173.917V69.297H189.405V74.4387H168Z" fill="#F43D00"/>
<path d="M272.626 74.6659L270.386 69.4406H271.4L272.91 73.1465L274.412 69.4406H275.425L273.193 74.6659H272.626ZM270.138 74.6659V69.4406H271.18V74.6659H270.138ZM274.632 74.6659V69.4406H275.673V74.6659H274.632ZM266.602 74.6659V69.8949H267.644V74.6659H266.602ZM265.014 70.3351V69.4406H269.231V70.3351H265.014Z" fill="#F43D00"/>
<path d="M104.172 0H0L29.8568 16.4151H97.0448L73.469 29.5472L124.459 58H159L106.914 29.5472L132.297 15.4674L104.172 0Z" fill="#F43D00"/>
</svg>
