<?xml version="1.0" encoding="UTF-8"?>
<svg width="59px" height="59px" viewBox="0 0 59 59" version="1.1" xmlns="http://www.w3.org/2000/svg" xmlns:xlink="http://www.w3.org/1999/xlink">
    <title>verycool</title>
    <defs>
        <polygon id="path-1" points="0 59 59 59 59 0 0 0"></polygon>
    </defs>
    <g id="Page-1" stroke="none" stroke-width="1" fill="none" fill-rule="evenodd">
        <g id="iPhone-13-Pro-Copy-3" transform="translate(-192.000000, -414.000000)">
            <g id="verycool" transform="translate(192.000000, 414.000000)">
                <g id="Fill-1-Clipped">
                    <mask id="mask-2" fill="white">
                        <use xlink:href="#path-1"></use>
                    </mask>
                    <g id="path-1"></g>
                    <path d="M58.9999991,30.8928563 C58.9999991,39.4234047 55.5009317,47.1467929 49.8439284,52.7377181 C44.1862204,58.3279468 36.3705774,59 27.7381328,59 C19.1056881,59 11.2900452,58.3279468 5.63233713,52.7377181 C-0.0246661411,47.1467929 -9.27764996e-07,39.4234047 -9.27764996e-07,30.8928563 C-9.27764996e-07,22.3623079 2.79432141,14.6389197 8.45132469,9.04799452 C14.1090327,3.45776576 19.1056881,0 27.7381328,0 C36.3705774,0 42.7767266,3.45776576 48.4344346,9.04799452 C54.0914379,14.6389197 58.9999991,22.3623079 58.9999991,30.8928563" id="Fill-1" fill="#E3FF24" fill-rule="nonzero" mask="url(#mask-2)"></path>
                </g>
                <path d="M9.49893093,37.6984915 C9.57927208,37.3746524 9.64128981,37.0452419 9.7448876,36.7290635 C9.84496166,36.4254208 9.98873002,36.1364031 10.1120607,35.8404212 C10.2128395,35.5973677 10.2903617,35.342475 10.4165114,35.1133502 C10.6004503,34.7790647 10.8231503,34.465672 11.021889,34.1390472 C11.1980757,33.8507259 11.3763766,33.5624047 11.531421,33.263637 C11.9225555,32.5101017 12.5927698,32.0239949 13.227042,31.5030666 C13.5427686,31.2426025 13.8577904,30.9758705 14.2017069,30.7551028 C14.6020032,30.4974244 15.0241465,30.2676031 15.4547469,30.0614604 C15.7986634,29.8971033 16.167246,29.7835855 16.5280764,29.6540499 C16.7930612,29.5586393 16.9537435,29.7383177 17.0855312,29.9103355 C17.4308572,30.3588352 17.7472885,30.8282278 18.096843,31.2739418 C18.2469541,31.466156 18.4830443,31.596388 18.6204699,31.79487 C18.8636076,32.1479591 18.9354918,32.5748696 18.9016639,32.9857622 C18.8572649,33.5171369 18.2377924,33.6821903 17.6937278,33.5171369 C17.4541138,33.4440119 17.2011097,33.3395477 16.9614957,33.3555655 C16.6894634,33.3743691 16.3941745,33.4635119 16.1651318,33.6083689 C15.6992941,33.902958 15.2412086,34.2226186 14.8338649,34.5896362 C13.9550455,35.3807786 13.2277467,36.3049387 12.6829774,37.3474917 C12.4497062,37.7932057 12.3418799,38.304384 12.1917688,38.7904908 C12.1776739,38.8371515 12.2559008,38.9576336 12.3101663,38.9708657 C12.4659153,39.0091692 12.6385783,39.0460799 12.7922131,39.0182228 C13.1770049,38.94858 13.5399496,38.8253122 13.906418,38.6595623 C14.7211054,38.289759 15.4047099,37.73192 16.1580843,37.276456 C16.3659846,37.1504025 16.5752944,37.004849 16.7338625,36.8251706 C16.8501457,36.6928492 16.8741071,36.4839208 16.9629052,36.3223494 C17.0115328,36.2325102 17.1052641,36.1642603 17.1856052,36.0946174 C17.244804,36.0437782 17.3364211,36.0194032 17.3772964,35.9595104 C17.4794847,35.8090819 17.5795588,35.6892963 17.7684309,35.8146533 C17.7930971,35.7923676 17.8078967,35.7840105 17.8163537,35.7707783 C17.8670955,35.6906891 17.9164278,35.6099034 17.9657601,35.5291178 C18.1003667,35.6196534 18.2532968,35.692082 18.363942,35.8055998 C18.5119389,35.9574211 18.6127177,36.1545103 18.7607145,36.3063316 C18.9805956,36.5312779 18.9996237,36.5925636 18.8227323,36.8432777 C18.937606,36.9282419 18.9524057,37.2318846 18.8495126,37.3857952 C18.6634595,37.6650629 18.6951731,37.8238485 18.9763671,37.9373663 C18.9883478,37.8725985 18.998919,37.8120093 19.0116044,37.7444557 C19.171582,37.8503128 19.1842674,37.9192592 19.0560035,38.0265091 C18.7741047,38.2625983 18.4774063,38.4819731 18.202555,38.7264194 C18.0489202,38.8636158 17.9277037,39.0363299 17.8205822,39.2320263 C17.8692097,39.210437 17.9178373,39.1888477 17.9671695,39.1672584 C17.977036,39.1797941 17.9876072,39.1923298 17.9981784,39.2048656 C17.9143135,39.2745084 17.8304486,39.3434548 17.7465838,39.4130976 C17.7606787,39.4360797 17.7754784,39.4583654 17.7895733,39.4813475 C18.1088237,39.2738119 18.428074,39.0669728 18.7466196,38.8594372 C18.1250328,39.5509903 17.3462875,40.0196865 16.5767039,40.5141505 C16.0897238,40.8268467 15.596401,41.1158644 15.0741836,41.3512571 C14.5357569,41.5943105 13.9853496,41.8387568 13.4145046,41.9710782 C12.8718495,42.0964352 12.305233,42.0093817 11.8076817,41.7085248 C11.2171038,41.3519535 10.6497826,40.9619538 10.1296794,40.5092755 C9.81818128,40.2390614 9.77096323,39.8427937 9.64833728,39.4841332 C9.58631955,39.3016691 9.54826322,39.1115442 9.49893093,38.9249014 L9.49893093,37.6984915 Z" id="Fill-4" fill="#262626" fill-rule="nonzero"></path>
                <path d="M42.7752467,29.1119502 C43.0663071,29.2881466 43.3355204,29.497075 43.7252455,29.4065393 C43.9986873,29.342468 44.1318844,29.6161642 44.3101854,29.7533606 C44.4955338,29.8961283 44.6477591,30.0869496 44.7950512,30.2708067 C44.9966089,30.5222172 45.0346652,30.8237706 44.9458671,31.1176633 C44.790118,31.6330201 44.5801034,32.1323591 44.4321066,32.6498052 C44.119199,33.7397153 43.8309575,34.8372861 43.5173451,35.9912675 C43.6928271,35.9822139 43.8330717,35.9989282 43.9599262,35.9648032 C44.2932715,35.8742676 44.623093,35.7704998 44.9493908,35.656982 C45.3348874,35.5225714 45.7196792,35.3825893 46.096014,35.2251965 C46.4843295,35.0629288 46.8522074,34.8498218 47.2468657,34.7077504 C47.6640758,34.5573219 48.0996094,34.4577327 48.5309145,34.3504828 C48.7747569,34.2898935 49.0242373,34.2508936 49.2737177,34.2188579 C49.3456019,34.2105007 49.4252383,34.2620364 49.501351,34.2864114 C49.4710468,34.3727685 49.4639994,34.4807148 49.4062101,34.5413041 C49.1658914,34.7920182 49.0496082,35.0914823 48.991819,35.4236786 C48.9798383,35.4905357 48.9340297,35.5615713 48.8839927,35.6103213 C48.5696756,35.918839 48.2497205,36.2224816 47.9227179,36.5351779 C47.9826214,36.5588564 48.0213825,36.5741779 48.0714195,36.5936778 C47.9255369,36.7016242 47.688742,36.7162492 47.741598,36.9829812 C47.7986825,36.9767133 47.8564717,36.9704455 47.9769834,36.9565169 C47.858586,37.0421776 47.7965682,37.1055525 47.7211603,37.1375882 C47.3138166,37.3103024 46.8994255,37.4669987 46.4963102,37.6487665 C46.3920077,37.6961236 46.3201235,37.8152128 46.2327349,37.9001771 C46.1559175,37.9753913 46.0889665,38.0673198 45.9987589,38.1216412 C45.5871867,38.3688732 45.1594054,38.5896409 44.7562902,38.8494086 C44.2263205,39.1920513 43.6956461,39.5388725 43.200209,39.926783 C42.7808846,40.2548006 42.3946833,40.6287825 42.0275102,41.0146037 C41.8795134,41.1706036 41.8224289,41.4115678 41.7237643,41.613532 C41.615938,41.8329068 41.5067023,42.0522817 41.3981712,42.2716566 C41.3770288,42.262603 41.3558864,42.252853 41.334744,42.2437994 C41.3502485,42.1692816 41.3650481,42.0940674 41.3749146,42.0467103 C41.2544029,41.9499067 41.1444624,41.8621568 41.0338171,41.7744069 C40.6567775,42.1462995 40.558113,42.1755495 40.4058876,41.961746 C40.3163848,42.0843174 40.2247677,42.2096744 40.157112,42.3029958 C40.037305,42.1887816 39.9421642,42.0982459 39.8209477,41.9826389 C39.7279211,42.199228 39.6630844,42.3155315 39.4241752,42.1978352 C39.2289603,42.1010317 38.9780704,42.1086924 38.7497324,42.0864067 C38.4960236,42.0620317 38.3346365,41.8537997 38.3141989,41.6093534 C38.280371,41.2144786 38.4121587,40.876711 38.5834122,40.5382469 C38.7349328,40.2394792 38.8131597,39.8836044 39.0259932,39.640551 C39.3868236,39.2296584 39.4368607,38.7282301 39.5827433,38.2518733 C39.806148,37.5206237 40.0337813,36.790767 40.2360436,36.0546425 C40.4531057,35.2655894 40.6560728,34.4716613 40.839307,33.6749475 C41.0084462,32.9381265 41.1458719,32.1950377 41.293164,31.4533417 C41.3728004,31.0549848 41.4235421,30.6496636 41.5236162,30.2561817 C41.6349662,29.8216105 41.8936083,29.4664322 42.2762859,29.2240752 C42.4003213,29.1460752 42.5758033,29.1467716 42.7273239,29.1119502 L42.7752467,29.1119502 Z" id="Fill-6" fill="#262626" fill-rule="nonzero"></path>
                <path d="M26.756068,34.8057379 C26.7856674,34.804345 26.8152667,34.8022557 26.8448661,34.8008629 C26.8321807,34.5898451 26.8194952,34.3795238 26.8068098,34.1692025 C26.7779151,34.1705954 26.7490205,34.1719882 26.7201259,34.1740775 C26.7321066,34.3843988 26.7440873,34.5954166 26.756068,34.8057379 M26.6263946,33.7583099 C26.7511348,33.7583099 26.8476851,33.7701492 26.9364832,33.7499528 C26.9604446,33.7450778 26.975949,33.6406136 26.970311,33.5842029 C26.9583303,33.4741672 26.9336642,33.3641316 26.9033601,33.2568817 C26.8941984,33.2227567 26.8505041,33.1976853 26.8152667,33.1607746 C26.753249,33.3564709 26.6982787,33.5298815 26.6263946,33.7583099 M25.6334062,41.0854305 C25.6482059,41.1153769 25.6637103,41.1453233 25.6792147,41.1745733 C25.8293258,41.1160733 25.9794369,41.0582698 26.129548,40.998377 C26.129548,40.998377 26.1217958,40.9774841 26.1175673,40.9663413 C26.0731683,40.9851448 26.0301787,41.003252 25.9857796,41.022752 C26.073873,40.9015735 26.1373002,40.7762164 26.23526,40.6884664 C26.4255417,40.518538 26.6531749,40.3883059 26.8321807,40.2093239 C27.2656,39.7754491 27.6461633,39.3039673 27.8942342,38.7315033 C28.0950871,38.2669858 28.345977,37.823361 28.5665627,37.3672006 C28.5996859,37.2982542 28.5884099,37.2077185 28.6060286,37.0593794 C28.7194928,36.9312366 29.0915992,35.7403444 29.0091438,35.1455948 C28.9802492,35.2472733 28.9717922,35.352434 28.9478308,35.4548089 C28.902727,35.6484159 28.9245742,35.8434158 28.8139289,36.0398085 C28.6638178,36.3044512 28.5947526,36.6157546 28.5010213,36.9096473 C28.398833,37.23279 28.3107396,37.5608076 28.2113703,37.8846467 C28.2015039,37.9173788 28.1514668,37.935486 28.1296197,37.9668252 C27.8575874,38.3526464 27.5834408,38.7356819 27.3191608,39.1256817 C27.1098509,39.4341993 26.9223883,39.7566456 26.7053262,40.0595918 C26.6433085,40.1466453 26.4967211,40.1703239 26.4206085,40.2525024 C26.2514692,40.4328773 26.1091103,40.6383236 25.9434948,40.8221806 C25.8532872,40.9217699 25.7377087,40.998377 25.6334062,41.0854305 M25.7109284,32.3160072 C25.7088141,32.3174001 25.6503201,32.3431679 25.6101495,32.3863465 C25.3261366,32.6892927 25.0611517,33.0103461 24.7616343,33.2972745 C24.2570355,33.7792028 23.9864127,34.4080774 23.7031045,35.0090949 C23.2422,35.9889693 22.9144927,37.0217722 22.7876383,38.1075037 C22.7291443,38.6075391 22.6551458,39.103396 22.9271781,39.5839314 C23.1590399,39.5337886 23.3944253,39.4773779 23.6326298,39.4355922 C23.743275,39.4160922 23.8884529,39.4669315 23.9659751,39.4126101 C24.1576662,39.2788959 24.3246912,39.1089674 24.4903067,38.9425211 C24.6192754,38.812289 24.7750245,38.6834498 24.8433849,38.5232713 C24.9801058,38.2015215 25.2084438,37.9723967 25.4677907,37.7578968 C25.5333321,37.7035754 25.6066258,37.6374147 25.6327015,37.5622005 C25.7997265,37.0809686 25.954066,36.5962546 26.1133388,36.1122371 C26.1436429,36.0217014 26.1943847,35.933255 26.2014322,35.8420229 C26.2211651,35.5864338 26.2211651,35.3294518 26.2331458,35.0731663 C26.23526,35.0278984 26.2430123,34.9575592 26.2712021,34.9436306 C26.5157493,34.8245414 26.4318844,34.6239701 26.4128563,34.4373274 C26.405104,34.3600238 26.3917138,34.2771489 26.4121515,34.2054168 C26.5622626,33.6830957 26.3163059,33.2325067 26.1506904,32.7686855 C26.1394145,32.7359534 26.0957202,32.7143641 26.0689398,32.686507 C25.9547708,32.5688106 25.8413065,32.4511143 25.7109284,32.3160072 M26.7729819,30.1459371 C27.1204221,30.1779728 27.3367794,30.4844012 27.6214972,30.6828832 C27.7546943,30.7755082 27.89212,30.8618652 28.0175649,30.9628473 C28.1211627,31.0457223 28.2473124,31.1279008 28.3008732,31.2400257 C28.4876311,31.6321148 28.6736843,32.0297753 28.8047672,32.4420607 C28.8548042,32.5994535 28.8435283,32.7220248 29.0528381,32.7039177 C29.07539,32.7018284 29.1211985,32.7812212 29.128246,32.8271855 C29.1486837,32.9664711 29.1550264,33.1085425 29.1677118,33.2492209 C29.1930827,33.5277922 29.236777,33.805667 29.2403008,34.0842383 C29.2438245,34.3607203 29.2078824,34.6372022 29.1874448,34.9136842 C29.1832163,34.973577 29.1705308,35.0327734 29.1930827,35.0982377 C29.4221255,34.4150417 29.7040242,33.7443814 29.5870362,32.9908461 C29.6187499,32.9929354 29.6497587,32.9950247 29.6814723,32.997114 C29.6814723,33.2241495 29.6941578,33.452578 29.6786533,33.6789171 C29.6420065,34.2095954 29.6427112,34.7500236 29.5334755,35.2660769 C29.3904119,35.9416122 29.1789878,36.6060046 28.9541735,37.2606471 C28.8005387,37.7070575 28.6102571,38.1492894 28.3713479,38.555307 C28.0549165,39.0929496 27.6651915,39.5888064 27.3233892,40.1125204 C27.045719,40.5373415 26.6679746,40.8597878 26.2451265,41.1153769 C25.7539179,41.4120553 25.235929,41.6711266 24.7080735,41.8988586 C24.5318868,41.9754657 24.2788827,41.9490014 24.0822583,41.8953764 C23.7023997,41.7916086 23.3387503,41.6307337 22.9652345,41.5025909 C22.8482465,41.4621981 22.7178683,41.4621981 22.5987661,41.4259839 C22.1871939,41.2999304 21.7770312,41.1690019 21.3696875,41.0304127 C21.3224695,41.0150912 21.2942796,40.9440556 21.2576328,40.8980913 C21.2104147,40.8381985 21.1737679,40.7650735 21.1152739,40.7205021 C20.9454299,40.5923594 20.8883454,40.6202165 20.8446511,40.8723235 C20.5063726,40.5624129 20.126514,40.3653238 19.9644222,39.8736455 C19.8093779,39.4021636 19.6543336,38.9334675 19.5761067,38.4466642 C19.5422788,38.2349501 19.5993633,38.0079145 19.6247342,37.7892361 C19.6416482,37.6429861 19.6930947,37.5002184 19.6994374,37.3546649 C19.7297415,36.6380403 19.8178349,35.9346479 20.1053716,35.2681662 C20.1335615,35.2033983 20.1554086,35.1351484 20.1709131,35.0668984 C20.3344143,34.3203274 20.6959495,33.6615064 21.0835603,33.0110425 C21.3647543,32.5388642 21.6262154,32.0555431 21.8785148,31.5680434 C21.9799983,31.3730435 22.0342638,31.1543651 22.103329,30.9642402 C22.3253243,30.8172938 22.6086326,30.7553117 22.5466148,30.3924727 C22.5205392,30.2406513 22.8609319,29.9982943 23.0244332,29.9753122 C23.1583351,29.9572051 23.2858943,29.8924373 23.414863,29.8457766 C23.5022516,29.8137409 23.5896402,29.7810088 23.6728004,29.7399195 C23.7714649,29.6911695 23.865901,29.6340624 23.9892317,29.565116 C24.4430887,29.6459017 24.9455732,29.7266874 25.444534,29.8283659 C25.5629315,29.8520444 25.6637103,29.9502408 25.7785841,30.0017765 C26.0231312,30.1111157 26.2669736,30.2225442 26.5206825,30.3061156 C26.5714243,30.3228299 26.6623367,30.2197585 26.7729819,30.1459371" id="Fill-8" fill="#262626" fill-rule="nonzero"></path>
                <path d="M36.5968012,34.1506079 C36.4544423,34.3623221 36.4678325,34.5998041 36.6320385,34.8177861 C36.6200578,34.5900541 36.6087819,34.3797328 36.5968012,34.1506079 M36.4297762,33.7104653 C36.6531809,33.8309474 36.7793306,33.8030903 36.7624167,33.6387332 C36.747617,33.4973583 36.7088559,33.3573762 36.6729138,33.2194835 C36.6672759,33.1971978 36.6172388,33.1853585 36.5960964,33.1735192 C36.5368977,33.3643405 36.4826322,33.5384476 36.4297762,33.7104653 M35.4255118,41.0967823 L35.4537017,41.1545858 C35.5854894,41.123943 35.7179818,41.0981751 35.8476552,41.060568 C35.8793688,41.0522109 35.9272916,40.987443 35.9237679,40.9839609 C35.8117131,40.8460681 35.9787381,40.7450861 36.018204,40.7053896 C36.1993239,40.5194433 36.4354141,40.3864256 36.6235815,40.2053542 C37.1084474,39.7401402 37.4868965,39.1983191 37.7652715,38.5861588 C37.9555532,38.1676055 38.1726152,37.7608914 38.3671253,37.3444274 C38.3967247,37.2817489 38.3713538,37.1946953 38.3713538,37.0825704 C38.5066652,36.9335348 38.8752479,35.7509998 38.797021,35.1451073 C38.7674216,35.2460894 38.7575551,35.35125 38.7350032,35.4529285 C38.6913089,35.6465356 38.6497289,35.8415354 38.5898254,36.0309639 C38.4967988,36.325553 38.381925,36.6131778 38.2888984,36.9077669 C38.1860054,37.2302132 38.0993215,37.5582308 38.000657,37.8820699 C37.9907905,37.914802 37.9407535,37.9336056 37.9189063,37.9649449 C37.646874,38.3500696 37.3720227,38.7324087 37.1070379,39.121712 C36.8934996,39.4358011 36.7011037,39.7645152 36.4805179,40.0737293 C36.4185002,40.1600864 36.2775508,40.1879435 36.1986192,40.2680328 C35.9794429,40.4888005 35.7729521,40.7228003 35.561528,40.9519252 C35.5164242,41.0006752 35.4706156,41.0480323 35.4255118,41.0967823 M35.4995103,32.3147598 C35.5009198,32.3134304 35.447359,32.3350197 35.4114169,32.3726268 C35.1274039,32.6755731 34.8631238,32.9980193 34.5621969,33.282162 C34.0533696,33.762001 33.7834516,34.391572 33.4987338,34.9925895 C33.0286677,35.9849996 32.6925034,37.033124 32.5712869,38.1348733 C32.5233642,38.5708374 32.4465467,39.0033192 32.6375331,39.4337118 C32.6981414,39.5688189 32.7418357,39.5994617 32.8757376,39.5604618 C33.0554481,39.5082297 33.2386822,39.4643547 33.4240307,39.4337118 C33.5276285,39.4163011 33.6685778,39.4741047 33.737643,39.4239618 C33.9392006,39.2770155 34.1182064,39.0987299 34.2958026,38.9218372 C34.419838,38.7985694 34.5692444,38.6753016 34.6312621,38.521391 C34.7644593,38.1968554 34.9977305,37.9712127 35.2577821,37.7567129 C35.3169808,37.7072665 35.386046,37.6487665 35.4100074,37.5805165 C35.5798514,37.0999811 35.7391242,36.6159635 35.901216,36.1326424 C35.9336343,36.0358389 35.9815571,35.938339 35.9886046,35.8387497 C36.0076328,35.5915177 36.0048138,35.3421965 36.0160897,35.0935716 C36.018204,35.0413395 36.0287752,34.959161 36.0618983,34.9424467 C36.2930553,34.8282325 36.2176473,34.6360183 36.2049619,34.4563399 C36.1993239,34.3720721 36.1788863,34.28084 36.2007334,34.2021436 C36.3487303,33.679126 36.1020689,33.2299299 35.9364533,32.7654123 C35.9251774,32.7326802 35.8800736,32.7124838 35.8532932,32.6846266 C35.7391242,32.5662339 35.6263647,32.4478411 35.4995103,32.3147598 M31.927853,30.9379848 C32.108973,30.8175028 32.3972145,30.7590028 32.331673,30.3954673 C32.3055974,30.2464317 32.6459901,29.9978068 32.8073771,29.9748247 C32.9412791,29.9567176 33.0688382,29.894039 33.1985117,29.8473784 C33.2703959,29.8209141 33.3415753,29.7902713 33.4106405,29.7561463 C33.5304475,29.6969499 33.6474354,29.6335749 33.7912038,29.5590571 C34.2091187,29.6405392 34.6714327,29.7261999 35.1323371,29.8216105 C35.2443919,29.8452891 35.3522182,29.8954319 35.4586349,29.9413962 C35.7398289,30.0632711 36.0160897,30.1990746 36.3043312,30.3028424 C36.355073,30.3209495 36.4537375,30.2109139 36.5516974,30.146146 C36.906185,30.1684317 37.1169044,30.4846101 37.4044411,30.6782171 C37.5453905,30.7729314 37.6863399,30.8669492 37.822356,30.9672348 C37.9048114,31.0285205 38.003476,31.0877169 38.0528082,31.1719847 C38.3128598,31.6163059 38.4481712,32.109377 38.6060345,32.594091 C38.6201295,32.6365731 38.6962421,32.6915909 38.738527,32.6881088 C38.8830001,32.6769659 38.9189422,32.7466087 38.9238754,32.8677872 C38.9330371,33.1268585 38.9443131,33.3852334 38.9605222,33.6436082 C38.966865,33.7508581 38.9880074,33.8574116 38.9999881,33.965358 C39.0119688,34.0733044 39.0359301,34.1826436 39.0281779,34.2898935 C39.0098545,34.5566255 38.9760267,34.8226611 38.9809599,35.094268 C39.1959077,34.4187327 39.4940156,33.7613046 39.3749134,33.0175193 C39.39817,33.0168229 39.4221314,33.0161264 39.4453881,33.01543 C39.4538451,33.0899478 39.4714637,33.1644656 39.4693495,33.238287 C39.4404549,34.0893222 39.4503213,34.9438396 39.2001362,35.7739819 C39.0873767,36.146571 39.0288827,36.5358743 38.9013235,36.9028919 C38.7667168,37.2914989 38.6025108,37.6745343 38.4094102,38.0380698 C38.1127117,38.5966052 37.8019183,39.150962 37.4565924,39.6816403 C36.9942784,40.391997 36.3924246,40.9721216 35.62566,41.3649071 C35.2542583,41.5557284 34.8842662,41.7576926 34.4938365,41.8997639 C34.308488,41.9673175 34.0632361,41.9485139 33.8666117,41.8948889 C33.4867531,41.7904247 33.1238085,41.6295498 32.7502926,41.501407 C32.6410569,41.4637999 32.5177262,41.467282 32.4070809,41.4331571 C31.9955087,41.3071036 31.585346,41.1768715 31.1772976,41.0382823 C31.1230321,41.0201752 31.08709,40.9463538 31.0455099,40.896211 C30.9961776,40.837711 30.9602356,40.7638896 30.9010368,40.7200146 C30.7297833,40.5918719 30.6748131,40.619729 30.6318235,40.8725324 C30.2942497,40.5619254 29.9143912,40.3655327 29.7515946,39.8745509 C29.5972551,39.4100333 29.447144,38.9483014 29.3660981,38.4698553 C29.3294513,38.2511768 29.3872405,38.0157841 29.4126114,37.7887486 C29.4274111,37.6585165 29.4837908,37.5310701 29.4859051,37.4015345 C29.497181,36.5936778 29.7135383,35.8338747 29.9411716,35.0622323 C30.2096801,34.1499115 30.6825653,33.355287 31.1469935,32.5446446 C31.3668745,32.1609127 31.5289663,31.7444486 31.719248,31.3440025 C31.7812657,31.2137704 31.8510356,31.0877169 31.927853,30.9379848" id="Fill-10" fill="#262626" fill-rule="nonzero"></path>
                <path d="M38.9713753,32.197893 C39.2018276,32.5293928 39.1299434,32.8483569 39.04185,33.1701067 C39.0200029,32.866464 38.9981557,32.5628214 38.9713753,32.197893" id="Fill-12" fill="#262626" fill-rule="nonzero"></path>
                <path d="M29.185401,32.2022805 C29.4179675,32.5289053 29.3397406,32.8485658 29.2551709,33.1696192 C29.2333238,32.866673 29.2114766,32.5630303 29.185401,32.2022805" id="Fill-14" fill="#262626" fill-rule="nonzero"></path>
                <path d="M15.1958229,35.6849784 C15.2430409,35.5714606 15.290259,35.4579428 15.3381818,35.344425 C15.3790571,35.3708893 15.4474175,35.3896929 15.457284,35.4252107 C15.5002735,35.5742463 15.4467128,35.6801034 15.1958229,35.6849784" id="Fill-16" fill="#262626" fill-rule="nonzero"></path>
                <path d="M32.6034939,20.2022663 C32.62816,20.2120163 32.6521214,20.2217663 32.6767875,20.2315163 C32.9396581,20.0671593 33.207462,19.9097665 33.4653993,19.7370523 C34.1912886,19.2495526 34.8488175,18.6798744 35.4915466,18.0899998 C35.966546,17.6540357 36.3027103,17.1365896 36.584609,16.5717864 C36.6712929,16.3969829 36.6776356,16.2110366 36.5521907,16.0947331 C36.476078,16.0236974 36.2773394,16.0264832 36.1568277,16.0661796 C35.6691428,16.2235723 35.181458,16.3886258 34.7099823,16.5885007 C34.1821269,16.8120541 33.7050133,17.166536 33.4837227,17.6763214 C33.1299398,18.4925352 32.8910306,19.3581954 32.6034939,20.2022663 L32.6034939,20.2022663 Z M19.0328878,12.8319672 C19.1745419,13.1328242 19.4529169,13.251217 19.7425679,13.3577705 C19.8799935,13.4079133 19.9687917,13.8111452 19.881403,13.9601808 C19.8348897,14.0388772 19.7968334,14.123145 19.7552534,14.2046271 C19.7806242,14.2213414 19.8066999,14.2380557 19.8320708,14.2540735 C19.9589252,14.1064307 20.0857796,13.9580916 20.2133388,13.8097524 C20.226729,13.8201988 20.240824,13.8299488 20.2549189,13.8396988 C20.1400452,14.1245379 20.0223524,14.4079841 19.9159356,14.695609 C19.8976122,14.7443589 19.9081834,14.8397696 19.9420113,14.8655374 C20.1344072,15.0083052 20.1569591,15.034073 20.1555496,15.2311622 C20.4459053,15.1392337 20.6594436,14.9901981 20.7108901,14.6677518 C20.7186423,14.6155197 20.8137832,14.5765197 20.9025813,14.5040912 C20.9533231,15.0737694 20.4571813,15.3063764 20.3091844,15.7256262 C20.1675303,16.1281617 19.8616701,16.4742865 19.6565888,16.8649826 C20.0660467,16.7612149 20.0787322,16.3273401 20.33526,16.0884653 C20.5889689,15.8523761 20.7510607,15.5194835 20.9892652,15.1768408 C20.8257639,15.8231261 20.3592214,16.2319295 20.1167885,16.813447 C20.7877075,16.6463042 21.4670835,16.5035364 22.1246124,16.294608 C22.2775425,16.245858 22.387483,15.9867868 22.4664146,15.8029297 C22.5805836,15.5361977 22.7313995,15.3342336 23.0266884,15.261805 C23.0957536,15.2450908 23.172571,15.2276801 23.2240175,15.185198 C23.4142992,15.0278052 23.6299517,15.1016266 23.7983862,15.1712694 C24.0337717,15.2680729 24.2402625,15.2778229 24.4805812,15.2102694 C24.7378139,15.1385373 25.0112556,15.1273944 25.2713072,15.0626266 C25.8069149,14.9303052 26.335475,14.7729125 26.8703779,14.6378054 C27.5363637,14.4699662 28.2079875,14.3251092 28.8718591,14.1503057 C29.2918882,14.0395736 29.7119174,13.914913 30.1143279,13.7540381 C30.4441494,13.6231096 30.7753804,13.6802167 31.1066115,13.6586274 C31.1672197,13.6551453 31.2285327,13.6586274 31.2926647,13.6586274 C31.4780131,13.9532166 31.4329093,14.0186808 31.1488963,14.2129843 C31.0051279,14.3118771 30.9388817,14.5277698 30.8521979,14.6976982 C30.7922944,14.816091 30.7648092,14.9296088 30.5963747,14.9706981 C30.5096909,14.9922874 30.4497874,15.1448051 30.3919981,15.2457872 C30.3454848,15.3279657 30.3208187,15.4219835 30.2714864,15.5501263 C30.2876956,15.6051441 30.3187045,15.7089119 30.3532371,15.8231261 C29.8902184,15.9916617 29.4363614,16.1574116 28.9733427,16.3259473 C29.0050563,16.3928044 29.0269034,16.4387686 29.0332461,16.4513043 C28.0064299,16.7640006 26.9922991,17.0955004 25.9626639,17.3740716 C25.5052832,17.4980358 25.3875905,17.8378928 25.2938591,18.1923747 C25.1937851,18.571928 25.2980876,18.6478387 25.6849937,18.5371066 C25.8971225,18.475821 26.1092513,18.4054817 26.3086947,18.3114639 C26.7780561,18.0899998 27.2763121,17.9736963 27.7858441,17.9012677 C27.8682995,17.8894285 28.0170011,17.942357 28.039553,18.0015534 C28.0698571,18.0802498 28.0184106,18.1986426 27.9824685,18.2926604 C27.9521644,18.3720532 27.8894419,18.4389103 27.8485666,18.5155174 C27.7400356,18.7188744 27.7069125,18.9668028 27.471527,19.095642 C27.4236042,19.1221063 27.4102141,19.2091598 27.371453,19.2871598 C27.4750508,19.2718383 27.5462302,19.2613919 27.585696,19.2558205 C27.4503846,19.3679454 27.301683,19.4912132 27.1522767,19.6151774 C27.193152,19.6618381 27.2340273,19.7084988 27.2918166,19.7753559 C27.1882188,19.842213 27.0613643,19.9174272 26.9429669,20.0030879 C26.7935605,20.1103378 26.5624035,20.1298378 26.5398516,20.3812484 C26.5363279,20.4195519 26.4242732,20.4453198 26.3650744,20.481534 C26.0768329,20.6584268 25.7892962,20.8374088 25.4961215,21.0184801 C25.5102164,21.0268373 25.5461585,21.0470337 25.5609582,21.0553908 C25.4876645,21.1633372 25.4143709,21.276855 25.3319155,21.3834085 C25.3199348,21.3994263 25.2374794,21.3938549 25.2304319,21.3785335 C25.1359958,21.1765693 24.996456,21.3047121 24.8696015,21.3228192 C24.2769094,21.4056942 23.8921176,21.6995869 23.7969768,22.3145329 C23.7737201,22.4628721 23.696198,22.6021577 23.62079,22.8069076 C23.8942318,22.7275148 24.1084749,22.6836398 24.308623,22.604247 C25.0951205,22.2929436 25.8780943,21.9718903 26.6610681,21.6522298 C27.0909637,21.4767299 27.5145166,21.2838193 27.9493454,21.1222479 C28.4511252,20.9356052 28.9627714,20.7761231 29.4687797,20.5999268 C29.5293879,20.579034 29.6167766,20.5421233 29.6315762,20.4947662 C29.7499737,20.1145164 29.8535715,19.7300881 29.9677405,19.3247669 C29.5343212,19.2175169 29.1375487,19.1193206 28.7062436,19.0120706 C28.7661471,18.7258387 28.8098414,18.475821 28.8746781,18.2313747 C28.894411,18.1568569 28.9691142,18.0955712 29.0247892,18.0328927 C29.0861022,17.9632498 29.1720813,17.9089284 29.2164803,17.8309285 C29.4152189,17.4827144 29.7013462,17.2570717 30.0967092,17.1651432 C30.1396988,17.1553932 30.1855073,17.1240539 30.2144019,17.0899289 C30.4152548,16.8524469 30.6731921,16.681822 30.7796089,16.3412687 C30.8803877,16.0216082 31.1319824,15.7374655 31.3575014,15.4714299 C31.4498232,15.3634836 31.6563141,15.3558228 31.8014919,15.2840907 C32.2278638,15.0744659 32.6570546,14.8690196 33.0707411,14.6378054 C33.8558291,14.1983593 34.7078681,13.9796808 35.5859827,13.8146274 C36.1624657,13.706681 36.7206252,13.7087703 37.2794895,13.8703416 C37.606492,13.9650558 37.893324,14.11827 38.1695848,14.3327699 C38.7023734,14.7471446 39.0484042,15.2806086 39.3394646,15.8656083 C39.5487745,16.2855544 39.4564526,16.720822 39.3549691,17.1324111 C39.2598282,17.5203215 39.0653181,17.8845535 38.9137975,18.2592318 C38.8926551,18.2508747 38.870808,18.243214 38.8496655,18.2355532 C38.8658747,18.1742676 38.8827886,18.1136783 38.8989978,18.0530891 C38.8771507,18.0398569 38.8545988,18.0273212 38.8327516,18.0147855 C38.6199181,18.3365353 38.4275222,18.674303 38.1893177,18.9758564 C37.951818,19.2767133 37.667805,19.5420525 37.3859063,19.8429094 C37.2956987,19.6520881 37.1928056,19.7140702 37.0765224,19.8331594 C36.9602391,19.9515522 36.8291562,20.0567129 36.6698834,20.1319271 C37.0236664,19.7440166 37.378154,19.3561061 37.731937,18.9681957 C37.7185468,18.9577492 37.7051566,18.9479992 37.6917664,18.9382493 C37.0885031,19.4870346 36.5063821,20.0615879 35.8756337,20.5769447 C35.3047887,21.044248 34.6817924,21.4495692 34.0785291,21.877176 C33.9650649,21.9572653 33.825525,22.0032295 33.7198129,22.0909795 C33.6803471,22.1237116 33.6683664,22.2595151 33.702899,22.2971222 C33.9770456,22.5986756 34.2251165,22.9475861 34.5591665,23.166961 C35.0094997,23.4636394 35.4612425,23.8034963 36.0630963,23.7958356 C36.2935486,23.7930499 36.5261151,23.8870677 36.7558625,23.9441748 C36.827042,23.9622819 36.8911739,24.0068533 36.9602391,24.0395854 C36.7220347,24.4539602 36.6346461,25.0849241 36.7995568,25.1949597 C36.7086445,25.2618169 36.5994087,25.3119597 36.54021,25.3962275 C36.4986299,25.4547274 36.5261151,25.5605845 36.5218866,25.6532095 C36.4908777,25.6469416 36.4034891,25.6295309 36.2956628,25.6072452 C36.3464046,25.7319059 36.3886894,25.8342808 36.4373169,25.9540664 C36.2604255,25.9206379 36.0912862,25.8886022 35.922147,25.8565665 C35.9158042,25.8774593 35.9101663,25.8983522 35.9045283,25.9185486 C36.0327922,25.977745 36.1603514,26.036245 36.2886154,26.0947449 C36.2815679,26.1163342 36.2745204,26.1386199 36.2681777,26.1602092 C35.7389128,26.0056021 35.2089431,25.8537808 34.6810877,25.6936023 C34.4252646,25.6162988 34.1743747,25.522281 33.9213706,25.434531 C33.8917712,25.424781 33.8607623,25.4143346 33.8360962,25.3962275 C33.6183294,25.2353526 33.4097243,25.0612455 33.1827958,24.9142992 C32.8945543,24.7283529 32.5908084,24.5667816 32.296929,24.3891924 C32.2024929,24.3320853 32.1179233,24.2596567 32.0326489,24.1900139 C31.8924043,24.0751033 31.7549786,23.9560141 31.5914773,23.8174249 C31.5315739,24.0166033 31.4906985,24.1983711 31.4216333,24.3696924 C31.3138071,24.6378172 31.1594675,24.8906206 31.0734884,25.1643169 C30.8951874,25.7319059 30.754238,26.3113341 30.584394,26.8817087 C30.5477472,27.0042801 30.4533111,27.1094407 30.3546466,27.2737978 C30.2813529,27.0551193 30.2299064,26.9680658 30.0537196,27.0808872 C29.9557598,27.1442621 29.846524,27.2772799 29.6745658,27.1672443 C29.6428522,27.1463514 29.4835794,27.2744942 29.4173332,27.3601549 C29.34263,27.4569584 29.3073927,27.5837083 29.2390322,27.7320475 C29.1643291,27.6867797 29.0952639,27.6129583 29.0247892,27.610869 C28.9331721,27.6080833 28.8063176,27.6338511 28.7520521,27.6958332 C28.5039812,27.9813688 28.1332844,27.8957081 27.8330622,28.0168866 C27.8076913,28.027333 27.7625875,28.0217616 27.7421498,28.0050473 C27.7146647,27.9834581 27.6773131,27.9312259 27.6864748,27.9124224 C27.7738634,27.7390118 27.468708,27.693744 27.5800581,27.4639227 C27.8055771,27.0001015 27.981059,26.506334 28.1213037,26.0097807 C28.4447825,24.8655492 28.7358429,23.7115678 29.0212654,22.6300149 C28.5504945,22.8946576 28.0296866,23.1808895 27.5159261,23.4789608 C27.3947096,23.5493 27.3094352,23.680925 27.187514,23.7470856 C27.0613643,23.816032 26.911958,23.8661748 26.7695991,23.8752284 C26.6300592,23.884282 26.525052,23.8933355 26.4700817,24.0402819 C26.4538725,24.0834604 26.399607,24.1182818 26.355208,24.146139 C25.550387,24.6426922 24.7321759,25.1197455 23.9435641,25.6413702 C23.5517248,25.9004415 23.2141511,26.239602 22.8526159,26.5432446 C22.8166738,26.5738875 22.7898935,26.6205482 22.7497229,26.6400482 C22.3388554,26.8413159 22.1845159,27.2320121 22.0062149,27.605994 C21.9907105,27.6373333 21.9723871,27.6672797 21.9441972,27.7188154 C21.863856,27.5488869 21.8060668,27.3991548 21.7250209,27.2619585 C21.6665269,27.1630657 21.5791383,27.1184943 21.4762453,27.2327085 C21.3381149,27.3873156 21.192937,27.5356548 21.0985009,27.6359404 C20.9392281,27.5697797 20.8088499,27.4806369 20.6693101,27.4639227 C20.3810686,27.4304941 20.0885986,27.4402441 19.7982429,27.4214405 C19.5952758,27.4082084 19.3923087,27.3873156 19.1914558,27.353887 C19.0124501,27.3239406 18.867977,27.1268514 18.9095571,26.9792087 C19.257702,25.7458344 19.6065518,24.5131566 19.9617442,23.2811752 C20.0660467,22.9183361 20.1907869,22.5603721 20.2922705,22.2421044 C20.006848,22.1508723 19.7348157,22.0916759 19.4923828,21.9725867 C19.4021752,21.9287117 19.3133771,21.7239618 19.3436812,21.6285512 C19.4056989,21.4300692 19.5480578,21.2566586 19.6565888,21.0728015 C19.8701271,20.7113553 20.2802898,20.787266 20.6009496,20.6709625 C20.8130784,20.593659 20.9441614,20.5038197 21.0111123,20.2746949 C21.1266908,19.8770344 21.29583,19.4946953 21.426913,19.1012134 C21.5164158,18.833785 21.579843,18.5573031 21.6672317,18.2418211 C21.471312,18.2654997 21.3233152,18.2766425 21.1781373,18.3024103 C20.683405,18.3915532 20.1999486,18.3386246 19.7179018,18.218839 C19.4881543,18.1617319 19.2041413,18.2849996 19.090677,18.4988031 C18.6086302,19.4055525 18.0673846,20.2809627 17.7178301,21.2566586 C17.5099298,21.8367832 17.2005459,22.3806936 16.9588177,22.9503718 C16.8023639,23.3180859 16.6881949,23.7025142 16.5521787,24.077889 C16.267461,24.8641564 15.9820385,25.6497273 15.693797,26.4346019 C15.6543312,26.5432446 15.5951325,26.6449232 15.5176103,26.8071909 C15.3491758,26.6275125 15.2110454,26.4791733 15.0609343,26.3182984 C14.8903856,26.5446375 14.7219511,26.7688874 14.5492881,26.9980122 C14.4231384,26.9980122 14.276551,26.9959229 14.1292589,26.9980122 C13.9403868,27.0007979 13.7494004,26.9889587 13.5633472,27.0140301 C13.3089336,27.0481551 13.0580437,27.1101372 12.806449,27.1637621 C12.6802993,27.1902264 12.5485117,27.2069407 12.4329332,27.2584764 C12.24688,27.3406549 12.1961382,27.19928 12.1658341,27.0948157 C12.0354559,26.6407446 11.9029635,26.1845841 11.8141654,25.720763 C11.7634236,25.4519417 11.804299,25.1664062 11.7880898,24.8899242 C11.7408717,24.116889 11.6837872,23.3445502 11.6351597,22.5715149 C11.5999224,22.0081045 11.6584164,21.421712 11.5153527,20.8875516 C11.3884983,20.4132841 11.4596777,19.9146415 11.2482537,19.4563918 C11.1502938,19.2446776 11.1735505,18.9821242 11.1023711,18.7543922 C10.996659,18.4166246 10.8550049,18.0899998 10.7309694,17.7578035 C10.7006653,17.6777143 10.6844562,17.5927501 10.6555615,17.5119644 C10.5533732,17.225036 10.4483659,16.9395005 10.3440634,16.6532685 L10.3440634,16.2284473 C10.4758511,16.0111617 10.6083435,15.7938762 10.7401312,15.5765906 C10.768321,15.5299299 10.8106058,15.4832692 10.8162438,15.4324299 C10.8465479,15.1810194 11.0326011,15.1294837 11.2348635,15.112073 C11.9833047,15.048698 12.7120129,15.1872872 13.4350833,15.34468 C13.836789,15.4324299 14.1088213,15.7054298 14.2229903,16.0891617 C14.3399783,16.4854293 14.4160909,16.8949291 14.4964321,17.3009467 C14.569021,17.6679643 14.6148295,18.0398569 14.6895327,18.4061781 C14.7374555,18.6429637 14.8156824,18.8741779 14.8840429,19.1221063 C15.0489536,19.0106778 15.1779223,18.9347671 15.2935008,18.8421422 C15.4436119,18.7216601 15.6226176,18.6123209 15.7205774,18.456321 C16.3957249,17.3831252 17.0462063,16.294608 17.7213538,15.2214122 C17.9172735,14.9101088 18.0624513,14.5995019 18.0554039,14.2269128 C18.0532896,14.1273236 18.0638608,14.0138058 18.1117836,13.9302344 C18.3337789,13.5395382 18.5184226,13.1202885 18.8898242,12.8319672 L19.0328878,12.8319672 Z" id="Fill-18" fill="#262626" fill-rule="nonzero"></path>
                <path d="M48.0989047,15.6990923 C48.1877028,15.6252709 48.2321018,15.5876638 48.3208999,15.5138424 C48.3977173,15.8968779 48.1834743,16.2123598 48.1531702,16.6072346 C48.3371091,16.4985918 48.4752395,16.4171097 48.6556547,16.3098598 C48.5562854,16.4839668 48.4956772,16.6357881 48.3948983,16.7548774 C48.2553585,16.9199308 48.2765009,16.9937522 48.4914487,17.0174308 C48.5189338,17.0202165 48.5443047,17.0404129 48.5760183,17.0550379 C48.0263157,17.7521625 47.4716799,18.4367513 46.9381865,19.1380545 C46.5639659,19.6304292 46.2214589,20.1471789 45.859219,20.6486071 C45.7979061,20.7335714 45.7175649,20.8220178 45.6252431,20.8651963 C45.3207924,21.0093569 45.2517272,21.294196 45.1622244,21.5678923 C45.0762453,21.82766 45.0092943,22.0929991 44.9190867,22.3506775 C44.7020247,22.9698022 44.453249,23.5798732 44.2601484,24.2066586 C44.0543623,24.8766224 43.9028417,25.5626042 43.7167885,26.2395323 C43.6780274,26.3795144 43.5941625,26.5076572 43.5314401,26.6413714 C43.481403,26.5968 43.4539179,26.5717286 43.4137473,26.5362107 C43.3820337,26.6427642 43.3545486,26.7339963 43.3270635,26.8252284 C43.317197,26.8259248 43.3073306,26.8259248 43.2974641,26.8259248 C43.2932356,26.7945856 43.2939404,26.7618534 43.2854834,26.7312106 C43.2636363,26.6546035 43.2382654,26.5786928 43.214304,26.5027822 C43.1424198,26.54805 43.0712404,26.591925 43.0007657,26.6378892 C42.7280286,26.8161748 42.5602989,27.0954425 42.3305514,27.3106388 C42.1508409,27.478478 41.9006558,27.5731922 41.6786605,27.6943707 C41.5969099,27.7396386 41.5067023,27.7737635 41.4171994,27.8023171 C41.337563,27.8266921 41.2536981,27.8364421 41.1649,27.8141564 C40.9323335,27.9638884 40.7011766,28.1164062 40.4650864,28.2612632 C40.3403462,28.3371739 40.1796639,28.2584775 40.1923493,28.1164062 C40.2134917,27.8601206 40.2487291,27.6038351 40.3036993,27.3531209 C40.5221709,26.359318 40.7406424,25.3648186 40.9774373,24.3744977 C41.1550336,23.6321053 41.3615244,22.8966772 41.5525108,22.1570705 C41.5912719,22.0087313 41.618757,21.8576064 41.6575181,21.6814101 C41.1381196,21.1528211 41.0246554,20.4473394 40.9274003,19.7258398 C40.8851155,19.408965 40.7660133,19.1004474 40.6687582,18.7919297 C40.5651604,18.4653049 40.429849,18.1484301 40.3375272,17.8190196 C40.1690927,17.2235735 40.0133436,16.6239489 39.8752132,16.0208421 C39.8470233,15.8989672 39.9139743,15.7527173 39.9470974,15.6203959 C40.0718376,15.1217533 40.3220227,14.7199143 40.8491734,14.5604323 C40.936562,14.533968 41.0613022,14.5430216 41.1402339,14.5868965 C41.6138238,14.8508428 42.1099656,15.0904141 42.5384517,15.415646 C42.9281767,15.711628 43.1825904,16.1176456 43.1896378,16.6594667 C43.1938663,16.9972344 43.3327015,17.3329127 43.4059951,17.6706804 C43.4461657,17.8545374 43.4792888,18.0397873 43.5117072,18.2250372 C43.5441255,18.4102871 43.5976863,18.4325728 43.779511,18.328805 C44.3461275,18.0042695 44.6364832,17.4352877 45.0565123,16.9819129 C45.3546203,16.6601631 45.6189004,16.3070741 45.8972754,15.9679135 C45.9275795,15.9310029 45.9684548,15.8968779 45.9811403,15.8543958 C46.1051757,15.4295746 46.4568444,15.1600569 46.714077,14.8292535 C46.8888542,14.6043072 47.1298777,14.5381466 47.3539872,14.7749321 C47.4625182,14.8891463 47.6337717,14.9427713 47.7719021,15.0312177 C47.9953069,15.1753783 48.1362562,15.3703782 48.0989047,15.6990923" id="Fill-20" fill="#262626" fill-rule="nonzero"></path>
                <path d="M32.184099,26.2290859 C32.3645142,26.2012288 32.3997515,26.3210144 32.3990468,26.4693536 C32.3983421,26.6434607 32.2073556,26.839157 32.0375116,26.8384605 C31.8852863,26.8377641 31.8126974,26.7639427 31.8190401,26.6044607 C31.8282018,26.3746394 31.9564658,26.2297823 32.184099,26.2290859" id="Fill-22" fill="#262626" fill-rule="nonzero"></path>
                <path d="M12.842673,27.7443046 C12.8229401,27.7178404 12.731323,27.6307868 12.745418,27.6091976 C12.8236449,27.4845369 12.9279474,27.3751977 13.0230882,27.2609835 C13.0886297,27.3264477 13.1929322,27.382162 13.2126651,27.4587691 C13.2486072,27.6022333 13.0808775,27.7422153 12.842673,27.7443046" id="Fill-24" fill="#262626" fill-rule="nonzero"></path>
                <path d="M32.4547218,26.0430699 C32.4321699,25.8083737 32.5202633,25.7220166 32.6647364,25.7261951 C32.7218209,25.727588 32.8247139,25.8229987 32.8233044,25.8724451 C32.8183712,26.02357 32.7330968,26.1475342 32.5618433,26.1419627 C32.5096921,26.1398735 32.4610645,26.0493378 32.4547218,26.0430699" id="Fill-26" fill="#262626" fill-rule="nonzero"></path>
                <path d="M31.4918261,27.4178191 C31.6074046,27.2945513 31.6997265,27.196355 31.8272856,27.0591586 C31.8893034,27.4024977 31.8138955,27.4770155 31.4918261,27.4178191" id="Fill-28" fill="#262626" fill-rule="nonzero"></path>
                <path d="M18.2065016,21.4807691 C18.1952256,21.5678227 18.1945209,21.6583583 18.166331,21.7398404 C18.1585788,21.7600368 18.063438,21.7509833 18.0084677,21.7551618 C18.0282006,21.656269 18.0472288,21.5573762 18.066257,21.4584834 C18.1127703,21.4661441 18.1599883,21.4731084 18.2065016,21.4807691" id="Fill-30" fill="#262626" fill-rule="nonzero"></path>
                <path d="M23.7467283,47.4834463 C23.75589,47.5781605 23.7650517,47.6721783 23.7742134,47.7668925 C24.783411,47.6540712 25.7926085,47.5412498 26.8025108,47.427732 C26.7989871,47.3963927 26.7961681,47.3650535 26.7933491,47.3337142 C25.7778088,47.383857 24.7622686,47.4333034 23.7467283,47.4834463 L23.7467283,47.4834463 Z M33.5772426,46.8782502 C33.9895196,47.1818929 36.9698942,47.2849642 37.6098043,46.8782502 L33.5772426,46.8782502 Z M37.7253828,45.7472509 C37.7239733,45.7256616 37.7218591,45.7033759 37.7204496,45.6810902 C36.9572087,45.6810902 36.1939678,45.6803938 35.4314317,45.6824831 C35.3905564,45.6824831 35.3200817,45.6991973 35.3130342,45.7228759 C35.1593994,46.230572 34.7379608,46.04184 34.4017965,46.0669114 C33.5638525,46.1295899 32.7252037,46.1873935 31.8865549,46.2472863 C32.534922,46.4011969 33.1903366,46.492429 33.8485702,46.5453575 C34.1177835,46.5669468 34.3961585,46.4715362 34.6660766,46.4896433 C35.4088798,46.5397861 36.148864,46.6331075 36.8916673,46.6790717 C37.0142932,46.686036 37.1460809,46.5370004 37.2729353,46.4603933 C37.1326907,46.4011969 36.9931508,46.2960363 36.8514967,46.293947 C36.5815786,46.289072 36.3109558,46.3426969 36.0396283,46.3726434 C36.0297618,46.3071791 36.0198954,46.2424113 36.0100289,46.1776435 C36.5815786,46.0341793 37.1538331,45.8907151 37.7253828,45.7472509 L37.7253828,45.7472509 Z M31.0056213,45.8538044 C29.4953487,45.9359829 27.9843713,46.0181614 26.4740988,46.0996435 C26.476213,46.191572 26.4776225,46.2835006 26.4797367,46.3761255 C27.1273991,46.414429 27.7750615,46.453429 28.4227239,46.492429 C28.4220192,46.5126254 28.4213144,46.5321254 28.4206097,46.5523218 C28.0527318,46.6317146 27.6848539,46.7118039 27.316976,46.7911967 C27.3233188,46.8573574 27.3303662,46.923518 27.336709,46.9896787 C27.8892305,46.9555537 28.4805132,47.0335537 28.9844072,46.8608395 C29.6962015,46.6163932 30.3424544,46.186697 31.0168972,45.8356973 C30.9964595,46.0313936 30.9767266,46.2263934 30.9365561,46.6184825 C31.2480542,46.3886612 31.3925273,46.2633041 31.5546191,46.1658042 C32.0648558,45.8586794 32.5490169,45.4261975 33.1050622,45.295269 C33.8372942,45.1232513 34.6273155,45.1935905 35.3919659,45.1566798 C35.8169283,45.1364834 36.2411859,45.111412 36.6654435,45.0884298 C36.6633293,45.0264477 36.6619198,44.9637692 36.6598055,44.9010907 L30.719494,44.9010907 C30.9689744,45.6037867 31.6307317,45.0751977 31.9859242,45.4310725 C31.6420077,45.5787153 31.3262811,45.7138223 31.0056213,45.8538044 L31.0056213,45.8538044 Z M11.2593182,45.0271442 C11.8273442,44.5793409 12.3714088,44.0939305 12.9739674,43.6969664 C13.3164744,43.4713237 13.7534174,43.3828773 14.1537137,43.2491631 C14.2107982,43.2296631 14.3580903,43.2895559 14.364433,43.3292523 C14.4821257,44.0444841 15.1001887,43.9790198 15.5519315,43.9755377 C17.1538212,43.9616091 18.7550061,43.8480913 20.3568958,43.8146628 C21.8305215,43.7840199 23.304852,43.8083949 24.7960964,43.9476805 C24.5092644,43.9762341 24.2224325,44.0054841 23.9356005,44.0340376 C23.9356005,44.088359 23.9348957,44.1426804 23.9348957,44.1970018 C25.6157171,44.2589839 27.2958336,44.3446446 28.9773597,44.3759839 C31.1000573,44.4149838 33.2241645,44.3857338 35.3461573,44.4323945 C36.8141451,44.4651267 38.2793139,44.6099837 39.7465969,44.6329658 C40.2814998,44.641323 40.8833536,44.7590193 41.3062018,44.117609 C41.4513796,43.8975377 42.0736711,43.9455913 42.4781958,43.9414127 C43.1921044,43.9330555 43.9074225,43.9546448 44.6185121,44.0096626 C45.1076065,44.0479662 45.5910629,44.1642697 46.119623,44.2527161 C46.1414702,44.0340376 46.1633173,43.8146628 46.175298,43.691395 C46.5805275,43.6433414 46.9434721,43.6001629 47.4015576,43.5458415 C47.2070475,44.0897519 47.943508,44.6099837 47.4191763,45.2353762 C47.3627965,45.3022333 47.4952889,45.527876 47.548145,45.6769116 C47.595363,45.8085366 47.653857,45.9359829 47.7412456,46.1463042 C47.1013354,45.9561793 46.8187319,46.1873935 46.4910246,47.0335537 C46.6510022,47.1025001 46.8123892,47.1714464 47.1429155,47.3135178 C46.7242959,47.3427678 46.4966626,47.3587856 46.1076423,47.3866427 C46.183755,47.6756604 46.2528202,47.9347317 46.3416183,48.2676244 L45.3486299,48.2676244 C45.328897,48.31916 45.3091641,48.3699993 45.2894312,48.4208385 C45.4881698,48.5684813 45.6869084,48.7168205 45.8856471,48.8644633 C44.373965,48.9696239 42.8791968,48.9563918 41.4041616,48.4298921 C41.3879524,48.30941 41.3625815,48.1241602 41.3350964,47.9263746 C40.9721517,47.858821 40.6218925,47.7822139 40.2681096,47.7306783 C39.4879548,47.616464 38.7085047,47.4834463 37.9234167,47.422857 C37.5407391,47.393607 37.1453761,47.5579641 36.7577654,47.5496069 C36.0480852,47.5342855 35.3405194,47.447232 34.6308392,47.4061427 C34.0585848,47.3734106 33.4842161,47.3413749 32.9119616,47.3518213 C32.2170812,47.364357 31.524315,47.4451427 30.8294345,47.4562856 C29.8963497,47.4709106 28.9611505,47.466732 28.0287704,47.432607 C27.6108555,47.4172856 27.2718722,47.3943035 27.1097805,47.8985174 C27.0731336,48.0134281 26.698913,48.0858566 26.4867842,48.0726245 C23.9215055,47.907571 21.3921689,48.2704101 18.8571944,48.5622135 C17.7401706,48.6910527 16.625261,48.9034633 15.5054182,48.9320168 C14.6921403,48.9529097 13.9493371,48.7119455 13.2438854,48.1123209 C12.7780477,47.7160533 12.3347619,47.3316249 12.0063499,46.8371609 C11.7110609,46.3921433 11.5045701,45.8900187 11.2593182,45.4136618 L11.2593182,45.0271442 Z" id="Fill-32" fill="#262626" fill-rule="nonzero"></path>
                <path d="M27.6761855,43.0958793 C27.8262966,43.7338075 27.624739,43.9622359 26.9488867,43.8041467 C27.1145023,43.5520397 27.2653181,43.3243077 27.4154292,43.0958793 L27.6761855,43.0958793 Z" id="Fill-34" fill="#262626" fill-rule="nonzero"></path>
                <path d="M29.1389582,47.8132746 L31.7267887,47.8132746 L31.7267887,48.0006138 L29.1643291,48.0006138 C29.1558721,47.9379353 29.1474151,47.8759532 29.1389582,47.8132746" id="Fill-36" fill="#262626" fill-rule="nonzero"></path>
                <path d="M21.7792159,50.8329174 C22.1379321,50.4847034 22.4015074,50.2284178 22.7524714,49.8878644 C22.831403,50.7082568 22.5967223,50.9471317 21.7792159,50.8329174" id="Fill-38" fill="#262626" fill-rule="nonzero"></path>
                <path d="M28.7906018,47.5871444 C28.7328125,47.7661264 28.6884135,47.9026264 28.6299195,48.0823048 C28.2712033,48.0474834 27.8659739,48.007787 27.4607444,47.968787 C27.4600397,47.9283942 27.4600397,47.8880014 27.4593349,47.8476085 C27.8927542,47.7626443 28.3261736,47.6783765 28.7906018,47.5871444" id="Fill-40" fill="#262626" fill-rule="nonzero"></path>
            </g>
        </g>
    </g>
</svg>